<svg width="564.1999999999999" height="101.24665093749" viewBox="0 0 370 66.39713017878643" class="looka-1j8o68f"><defs id="SvgjsDefs1895"></defs><g id="SvgjsG1896" featurekey="symbolFeature-0" transform="matrix(0.8232776522636414,0,0,0.8232776522636414,-2.0474911137996257,-3.848205267033765)" fill="#5d17ea"><path xmlns="http://www.w3.org/2000/svg" d="M58.478,26.77H21.38c-5.182,0-9.423,4.24-9.423,9.423v25.922c0,5.183,4.24,9.423,9.423,9.423h37.099  c5.182,0,9.423-4.24,9.423-9.423V36.193C67.901,31.011,63.661,26.77,58.478,26.77z M24.768,31.67  c-3.613,1.936-6.221,4.771-7.854,6.968c-0.619,0.833-1.939,0.251-1.736-0.766c1.244-6.215,5.653-7.783,9.059-8.024  C25.277,29.774,25.687,31.178,24.768,31.67z M71.426,17.292H57.717c-1.992-1.559-4.277-2.761-6.759-3.508l5.172-5.171  c0.901-0.901,0.901-2.361,0-3.262c-0.901-0.901-2.361-0.901-3.262,0l-7.191,7.191c-0.116,0.116-0.217,0.242-0.303,0.374  C45.249,12.914,45.125,12.91,45,12.91c-0.125,0-0.249,0.003-0.373,0.005c-0.086-0.132-0.187-0.258-0.303-0.374L37.133,5.35  c-0.901-0.901-2.361-0.901-3.262,0c-0.901,0.901-0.901,2.361,0,3.262l5.172,5.171c-2.483,0.747-4.767,1.949-6.759,3.508H18.574  c-8.848,0-16.087,7.239-16.087,16.087v31.55c0,8.848,7.239,16.087,16.087,16.087h0.213v1.596c0,1.492,1.221,2.713,2.713,2.713h1.651  c1.492,0,2.713-1.221,2.713-2.713v-1.596h38.272v0.924c0,1.492,1.221,2.713,2.713,2.713H68.5c1.492,0,2.713-1.221,2.713-2.713  v-0.924h0.213c8.848,0,16.087-7.239,16.087-16.087v-31.55C87.513,24.531,80.274,17.292,71.426,17.292z M20.276,74.958  c-6.373,0-11.586-5.214-11.586-11.586V35.163c0-6.373,5.214-11.586,11.586-11.586h39.306c6.373,0,11.587,5.214,11.587,11.586v28.209  c0,6.373-5.214,11.586-11.587,11.586H20.276z M79.019,59.404c-1.415,0-2.562-1.147-2.562-2.562c0-1.415,1.147-2.562,2.562-2.562  s2.562,1.147,2.562,2.562C81.581,58.257,80.434,59.404,79.019,59.404z M79.019,51.717c-1.415,0-2.562-1.147-2.562-2.562  s1.147-2.562,2.562-2.562s2.562,1.147,2.562,2.562S80.434,51.717,79.019,51.717z M79.019,44.029c-1.415,0-2.562-1.147-2.562-2.562  s1.147-2.562,2.562-2.562s2.562,1.147,2.562,2.562S80.434,44.029,79.019,44.029z"></path></g><g id="SvgjsG1897" featurekey="nameFeature-0" transform="matrix(1.3647881746292114,0,0,1.3647881746292114,88.85357897976463,-2.3774535587274386)" fill="#000000"><path d="M16.04 30 c-0.16 -2.92 -1.48 -4.64 -4.52 -4.64 c-0.84 0 -1.56 0.12 -2.16 0.36 c-1.84 0.84 -2.52 2.4 -2.52 4.32 c0 0.64 0.08 1.24 0.28 1.76 c0.6 2.08 2.4 2.84 4.4 2.84 c3.04 0 4.52 -1.64 4.52 -4.64 z M23.64 40 l-6 0 c-0.4 -1 -0.76 -2 -1 -3.04 c-1.36 2.24 -3.44 3.24 -6 3.24 c-5.72 0 -9.8 -4.8 -9.8 -10.28 c0 -6.32 4.72 -10.12 10.68 -10.12 c6.36 0 10.36 4.08 10.52 10.2 c0.04 0.52 0.04 1.12 0.04 1.84 c0 2.8 0.44 5.6 1.56 8.16 z M40.08 30 c0 -3 -1.48 -4.64 -4.52 -4.64 c-0.84 0 -1.56 0.12 -2.16 0.36 c-1.12 0.52 -1.88 1.28 -2.24 2.48 c-0.2 0.56 -0.28 1.16 -0.28 1.8 s0.08 1.24 0.28 1.8 c0.32 1.16 1.16 2 2.24 2.44 c0.6 0.28 1.32 0.4 2.16 0.4 c3.04 0 4.52 -1.64 4.52 -4.64 z M40.08 22 l0 -10 l6 0 l0 18 c0 6.36 -4.52 10.2 -10.56 10.2 c-6.16 0 -10.64 -4 -10.64 -10.12 c0 -5.64 4.16 -10.28 9.84 -10.28 c2.12 0 3.96 0.6 5.36 2.2 z M56.08 30 c0 2.96 1.48 4.64 4.48 4.64 c0.84 0 1.6 -0.12 2.2 -0.4 c1.12 -0.44 1.88 -1.28 2.28 -2.44 c0.16 -0.56 0.24 -1.16 0.24 -1.8 s-0.08 -1.24 -0.24 -1.8 c-0.44 -1.24 -1.12 -1.92 -2.28 -2.48 c-0.6 -0.24 -1.36 -0.36 -2.2 -0.36 c-3 0 -4.48 1.68 -4.48 4.64 z M50.08 12 l6 0 l0 10 c1.36 -1.56 3.2 -2.2 5.24 -2.2 c5.84 0 9.96 4.68 9.96 10.28 c0 6.32 -4.68 10.12 -10.64 10.12 c-6.2 0 -10.56 -4.08 -10.56 -10.2 l0 -18 z M83.52 34.64 c2.92 0 4.6 -1.72 4.6 -4.64 s-1.68 -4.64 -4.6 -4.64 s-4.6 1.72 -4.6 4.64 s1.68 4.64 4.6 4.64 z M83.52 40.2 c-6.16 0 -10.6 -4.08 -10.6 -10.2 c0 -6.32 4.6 -10.2 10.6 -10.2 c6.2 0 10.6 4.08 10.6 10.2 c0 6.28 -4.64 10.2 -10.6 10.2 z M111 30 c-0.16 -2.92 -1.48 -4.64 -4.52 -4.64 c-0.84 0 -1.56 0.12 -2.16 0.36 c-1.84 0.84 -2.52 2.4 -2.52 4.32 c0 0.64 0.08 1.24 0.28 1.76 c0.6 2.08 2.4 2.84 4.4 2.84 c3.04 0 4.52 -1.64 4.52 -4.64 z M118.6 40 l-6 0 c-0.4 -1 -0.76 -2 -1 -3.04 c-1.36 2.24 -3.44 3.24 -6 3.24 c-5.72 0 -9.8 -4.8 -9.8 -10.28 c0 -6.32 4.72 -10.12 10.68 -10.12 c6.36 0 10.36 4.08 10.52 10.2 c0.04 0.52 0.04 1.12 0.04 1.84 c0 2.8 0.44 5.6 1.56 8.16 z M127 30 l0 10 l-6 0 l0 -9.96 c0 -6.64 4.88 -10.24 11.04 -10.24 c0.2 0 0.48 0 0.76 0.04 s0.6 0.12 0.88 0.16 l0 5.8 c-0.2 -0.04 -0.44 -0.08 -0.72 -0.12 s-0.52 -0.08 -0.72 -0.08 c-1 0 -1.8 0.12 -2.48 0.32 c-1.12 0.4 -2.12 1.16 -2.48 2.36 c-0.2 0.52 -0.28 1.12 -0.28 1.72 z M149.72 30 c0 -3 -1.48 -4.64 -4.52 -4.64 c-0.84 0 -1.56 0.12 -2.16 0.36 c-1.12 0.52 -1.88 1.28 -2.24 2.48 c-0.2 0.56 -0.28 1.16 -0.28 1.8 s0.08 1.24 0.28 1.8 c0.32 1.16 1.16 2 2.24 2.44 c0.6 0.28 1.32 0.4 2.16 0.4 c3.04 0 4.52 -1.64 4.52 -4.64 z M149.72 22 l0 -10 l6 0 l0 18 c0 6.36 -4.52 10.2 -10.56 10.2 c-6.16 0 -10.64 -4 -10.64 -10.12 c0 -5.64 4.16 -10.28 9.84 -10.28 c2.12 0 3.96 0.6 5.36 2.2 z M166.07999999999998 36.76 c0 2.04 -1.4 3.44 -3.44 3.44 s-3.48 -1.36 -3.48 -3.44 c0 -2.04 1.44 -3.48 3.48 -3.48 c2.12 0 3.44 1.36 3.44 3.48 z M181.76 20.68 l0 5.56 l-5.6 0 l0 3.76 c0 3.08 2.04 4.64 5 4.64 c0.36 0 0.68 -0.04 0.96 -0.08 s0.52 -0.08 0.8 -0.12 l0 5.56 c-0.36 0.04 -0.64 0.12 -0.84 0.16 c-0.24 0.04 -0.64 0.04 -1.16 0.04 c-6.04 0 -10.76 -4.12 -10.76 -10.2 l0 -14.8 l6 0 l0 5.48 l5.6 0 z M206 20 l-8.2 20 l-6 0 l-8.2 -20 l5.96 0 c0.88 2.28 1.76 4.52 2.64 6.8 c0.84 2.28 1.72 4.52 2.6 6.8 c0.88 -2.28 1.76 -4.52 2.64 -6.8 c0.84 -2.28 1.72 -4.52 2.6 -6.8 l5.96 0 z"></path></g></svg>