<svg width="320" height="93.27393433832799" viewBox="0 0 320 93.27393433832799" class="css-1j8o68f"><defs id="SvgjsDefs1001"></defs><g id="SvgjsG1007" featurekey="S6ay6y-0" transform="matrix(1.0000100135803223,0,0,1.0000100135803223,11.364114766170436,-3.414034416392743)" fill="#ffffff"><path xmlns="http://www.w3.org/2000/svg" d="M74.399,3.414H2.873l-14.237,24.74v8.58c0,4.261,2.435,7.96,5.986,9.798v50.155h53.753V41.91  c1.861,3.482,5.529,5.855,9.739,5.855c4.219,0,7.887-2.373,9.748-5.855c1.853,3.482,5.521,5.855,9.739,5.855l0,0v48.922h5.048  V46.532c3.552-1.838,5.986-5.537,5.986-9.798v-8.58L74.399,3.414z M11.434,29.333L18.483,7.88h11.205l-2.334,21.329v6.133  c0,4.389-3.567,7.956-7.956,7.956c-4.389,0-7.956-3.567-7.956-7.956v-6.009H11.434z M43.623,65.096H-0.329V47.765  c4.219,0,7.886-2.373,9.74-5.855c1.861,3.482,5.529,5.855,9.747,5.855c4.21,0,7.878-2.373,9.74-5.855  c1.853,3.482,5.529,5.855,9.739,5.855c1.799,0,3.489-0.45,4.986-1.218V65.096L43.623,65.096z M65.831,35.342  c0,4.389-3.566,7.956-7.956,7.956c-4.389,0-7.956-3.567-7.956-7.956v-6.133L47.585,7.88H58.79l7.049,21.453v6.009H65.831z"></path></g><g id="SvgjsG1008" featurekey="j5pGhi-0" transform="matrix(1.7998093366622925,0,0,1.7998093366622925,118.15405142656782,25.214024237941963)" fill="#ffffff"><path d="M11.924 10.7031 l-1.0938 0.68359 q-1.416015625 -1.89453125 -3.8671875 -1.89453125 q-1.962890625 0 -3.256835938 1.259765625 t-1.2939 3.0664 q0 1.171875 0.595703125 2.211914063 t1.6309 1.6064 t2.3242 0.56641 q2.373046875 0 3.8671875 -1.875 l1.0938 0.71289 q-0.771484375 1.15234375 -2.065429688 1.782226563 t-2.9541 0.62988 q-2.529296875 0 -4.204101563 -1.611328125 t-1.6748 -3.916 q0 -1.5625 0.7861328125 -2.895507813 t2.1484 -2.0801 t3.0615 -0.74707 q1.0546875 0 2.045898438 0.322265625 t1.6846 0.84473 t1.1719 1.333 z M19.61914375 8.203 q2.470703125 0 4.1015625 1.787109375 q1.474609375 1.640625 1.474609375 3.876953125 t-1.5625 3.9111 t-4.0137 1.6748 q-2.4609375 0 -4.018554688 -1.674804688 t-1.5576 -3.9111 q0 -2.2265625 1.474609375 -3.8671875 q1.630859375 -1.796875 4.1015625 -1.796875 z M19.61914375 9.551 q-1.708984375 0 -2.939453125 1.26953125 t-1.2305 3.0664 q0 1.162109375 0.5615234375 2.172851563 t1.5186 1.5527 t2.0898 0.54199 q1.15234375 0 2.104492188 -0.5419921875 t1.5088 -1.5527 t0.55664 -2.1729 q0 -1.796875 -1.23046875 -3.06640625 t-2.9395 -1.2695 z M27.714871875 15.293 l0 -1.709 q0.17578125 -2.1875 0.91796875 -3.203125 q0.615234375 -0.927734375 1.611328125 -1.474609375 q0.654296875 -0.419921875 1.865234375 -0.44921875 q0.78125 0 1.58203125 0.29296875 t1.2402 0.78125 t0.88867 1.4648 q0.244140625 -0.625 1.025390625 -1.46484375 q0.380859375 -0.322265625 0.986328125 -0.634765625 q0.41015625 -0.263671875 1.904296875 -0.439453125 q1.11328125 0 2.138671875 0.556640625 t1.4404 1.5674 t0.41504 3.0127 l0 5.8496 l-1.4063 0 l0 -5.8496 q0 -1.71875 -0.244140625 -2.36328125 t-0.83984 -1.04 t-1.4355 -0.39551 q-1.58203125 0.107421875 -2.705078125 1.533203125 q-0.439453125 0.60546875 -0.6640625 2.685546875 l0 5.4297 l-1.377 0 l0 -5.4883 q0 -1.93359375 -0.4296875 -2.631835938 t-1.0254 -1.1133 t-1.4844 -0.41504 q-0.95703125 0 -1.645507813 0.48828125 t-1.0791 1.46 t-0.3125 3.1592 l0 4.541 l-1.3672 0 l0 -4.1504 z M46.611290625 15.3809 l-0.019531 -1.1426 q-0.029296875 -0.83984375 0.068359375 -1.42578125 q0.21484375 -1.845703125 0.9375 -2.705078125 q0.703125 -0.751953125 1.435546875 -1.162109375 q1.2109375 -0.517578125 2.763671875 -0.48828125 q1.2109375 0 2.241210938 0.6103515625 t1.4697 1.6406 t0.43945 3.2275 l0 5.5078 l-1.3672 0 l0 -5.1074 q0 -1.85546875 -0.15625 -2.48046875 q-0.244140625 -1.064453125 -0.966796875 -1.508789063 t-2.1387 -0.44434 q-1.25 0 -2.2265625 0.72265625 t-0.9082 1.9727 q-0.185546875 0.80078125 -0.185546875 2.919921875 l0 3.9258 l-1.3867 0 l0 -4.0625 z M59.365215625 4.3260000000000005 q0.46875 0 0.8056640625 0.33203125 t0.33691 0.80078 t-0.33691 0.80566 t-0.80566 0.33691 t-0.80078 -0.33691 t-0.33203 -0.80566 t0.33203 -0.80078 t0.80078 -0.33203 z M58.681615625 8.73 l1.377 0 l0 10.713 l-1.377 0 l0 -10.713 z M64.414053125 17.0215 q0.498046875 0 0.8544921875 0.3564453125 t0.35645 0.86426 q0 0.498046875 -0.3564453125 0.8544921875 t-0.85449 0.35645 q-0.5078125 0 -0.859375 -0.3564453125 t-0.35156 -0.85449 q0 -0.5078125 0.3515625 -0.8642578125 t0.85938 -0.35645 z M73.84769375 9.648 l-0.87891 0.91797 q-1.11328125 -1.07421875 -2.158203125 -1.07421875 q-0.673828125 0 -1.15234375 0.439453125 t-0.47852 1.0449 q0 0.5078125 0.400390625 0.9765625 q0.390625 0.498046875 1.650390625 1.142578125 q1.54296875 0.791015625 2.08984375 1.533203125 q0.537109375 0.751953125 0.537109375 1.689453125 q0 1.30859375 -0.9228515625 2.221679688 t-2.3096 0.91309 q-0.927734375 0 -1.772460938 -0.3955078125 t-1.3916 -1.1084 l0.86914 -0.98633 q1.0546875 1.19140625 2.236328125 1.19140625 q0.8203125 0 1.401367188 -0.5322265625 t0.58105 -1.2451 q0 -0.595703125 -0.380859375 -1.0546875 t-1.7285 -1.1523 q-1.455078125 -0.732421875 -1.97265625 -1.474609375 q-0.52734375 -0.72265625 -0.52734375 -1.66015625 q0 -1.220703125 0.8349609375 -2.026367188 t2.0947 -0.80566 q1.474609375 0 2.978515625 1.4453125 z M80.13669375 17.9297 q-1.015625 0.546875 -1.9921875 0.087890625 q-1.19140625 -0.908203125 -1.1328125 -2.587890625 l0 -4.5313 l2.5391 0 l0 -1.1816 l-2.5488 0 l0 -5.1758 l-1.3867 0 l0 11.123 q-0.01953125 1.171875 0.537109375 2.1484375 q0.91796875 1.552734375 2.5 1.640625 q0.83984375 0.029296875 1.9140625 -0.380859375 q-0.166015625 -0.41015625 -0.4296875 -1.142578125 z M87.82226875 8.203 q2.470703125 0 4.1015625 1.787109375 q1.474609375 1.640625 1.474609375 3.876953125 t-1.5625 3.9111 t-4.0137 1.6748 q-2.4609375 0 -4.018554688 -1.674804688 t-1.5576 -3.9111 q0 -2.2265625 1.474609375 -3.8671875 q1.630859375 -1.796875 4.1015625 -1.796875 z M87.82226875 9.551 q-1.708984375 0 -2.939453125 1.26953125 t-1.2305 3.0664 q0 1.162109375 0.5615234375 2.172851563 t1.5186 1.5527 t2.0898 0.54199 q1.15234375 0 2.104492188 -0.5419921875 t1.5088 -1.5527 t0.55664 -2.1729 q0 -1.796875 -1.23046875 -3.06640625 t-2.9395 -1.2695 z M95.410196875 14.541 l0 -1.2891 q0.15625 -0.966796875 0.44921875 -1.572265625 q0.68359375 -1.6796875 1.8359375 -2.4609375 t1.9141 -0.78125 q0.56640625 0 1.2109375 0.37109375 l-0.71289 1.1523 q-0.908203125 -0.33203125 -1.801757813 0.537109375 t-1.2354 1.8945 q-0.25390625 0.908203125 -0.25390625 3.408203125 l0 3.623 l-1.4063 0 l0 -4.8828 z M110.64465625 15.6348 l1.1523 0.61523 q-0.556640625 1.123046875 -1.30859375 1.806640625 t-1.6895 1.04 t-2.1191 0.35645 q-2.6171875 0 -4.091796875 -1.713867188 t-1.4746 -3.8721 q0 -2.041015625 1.25 -3.6328125 q1.58203125 -2.03125 4.248046875 -2.03125 q2.724609375 0 4.365234375 2.080078125 q1.162109375 1.46484375 1.171875 3.65234375 l-9.6191 0 q0.0390625 1.875 1.19140625 3.071289063 t2.8418 1.1963 q0.8203125 0 1.591796875 -0.2880859375 t1.3135 -0.75684 t1.1768 -1.5234 z M110.64465625 12.7539 q-0.2734375 -1.103515625 -0.80078125 -1.762695313 t-1.3965 -1.0645 t-1.8262 -0.40527 q-1.572265625 0 -2.705078125 1.015625 q-0.8203125 0.7421875 -1.240234375 2.216796875 l7.9688 0 z"></path></g></svg>