<svg width="240" height="64" viewBox="0 0 240 64" class="css-1j8o68f"><defs id="SvgjsDefs1721"></defs><g id="SvgjsG1722" featurekey="nameContainer" transform="matrix(1,0,0,1,0,0)" fill="#000000">    <rect width="240" height="64"></rect></g><g id="SvgjsG1723" featurekey="nameFeature-0" transform="matrix(1.0369571447372437,0,0,1.0369571447372437,19.834118667158226,7.2022818720797215)" fill="#f9e7e0"><path d="M11.296 40.48 l-0.032031 0 c-1.536 0 -2.944 -0.92288 -3.84 -2.5379 c-0.92796 -1.681 -1.024 -6.5592 -1.024 -10.053 l0 -0.1648 l0 -3.1971 c0 -2.8675 0.16 -6.9876 0.896 -9.064 c0.60796 -1.7139 1.472 -2.4391 2.976 -2.4391 l0.031992 0 c2.464 0 2.656 3.5926 2.752 6.8888 l5.12 -0.42848 c-0.576 -7.1192 -3.296 -10.778 -8.032 -10.778 c-2.112 0 -3.872 0.69216 -5.216 2.0765 c-3.008 3.0653 -3.616 8.998 -3.616 13.415 c0 6.2952 1.12 10.679 3.328 13.019 c0.22398 0.23074 0.19199 0.62624 -0.031992 0.85696 c-0.22402 0.23074 -0.576 0.19777 -0.8 -0.032969 c-2.464 -2.6038 -3.648 -7.1524 -3.648 -13.843 c0 -4.6472 0.672 -10.91 3.968 -14.272 c1.568 -1.615 3.584 -2.4061 5.984 -2.4061 l0.064024 0 c3.84 0 8.544 2.1754 9.216 12.459 c0 0.32961 -0.22398 0.59324 -0.544 0.6262 l-6.304 0.56032 c-0.16 0 -0.28797 -0.065936 -0.41596 -0.16476 c-0.12801 -0.098908 -0.22402 -0.26371 -0.22402 -0.42852 l0 -0.2307 c-0.063984 -2.5709 -0.19199 -6.0976 -1.632 -6.0976 c-0.89596 0 -1.408 0.2307 -1.92 1.615 c-0.73596 2.1424 -0.8 7.0864 -0.8 8.7012 l0 3.1642 l0 0.1648 c0 6.4932 0.448 8.7344 0.86404 9.4596 c0.704 1.2525 1.728 1.9446 2.88 1.9446 l0.031992 0 c5.216 -0.03293 6.4 -7.0864 6.656 -10.053 l-4.992 -0.36258 l0 0.49442 c-0.031992 1.8128 -0.063984 4.3176 -1.696 5.4712 c-0.25602 0.19774 -0.608 0.098828 -0.8 -0.1648 c-0.19203 -0.26371 -0.12801 -0.62624 0.12797 -0.82404 c1.152 -0.79104 1.184 -2.9664 1.216 -4.5156 c0 -0.42844 0 -0.824 0.031992 -1.1536 s0.28801 -0.52736 0.608 -0.52736 l6.176 0.46144 c0.32 0 0.512 0.29664 0.512 0.62624 c-0.16 2.7357 -1.248 11.734 -7.872 11.734 z M41.120000000000005 40 l-6.272 0 c-0.25602 0 -0.48 -0.16 -0.54404 -0.416 l-2.944 -10.944 l-1.056 0 l0 10.784 c0 0.32 -0.22398 0.576 -0.544 0.576 l-5.824 0 c-0.32 0 -0.576 -0.25602 -0.576 -0.576 l0 -14.496 c0 -2.016 0.864 -2.88 2.88 -2.88 l4.928 0 c1.504 0 2.496 -0.25602 2.496 -4.16 c0 -2.752 -0.704 -3.872 -2.496 -3.872 l-0.86402 0 l0 4.864 c0 0.32 -0.22398 0.576 -0.544 0.576 s-0.576 -0.25602 -0.576 -0.576 l0 -5.44 c0 -0.32 0.25602 -0.576 0.576 -0.576 l1.408 0 c3.648 0 3.648 3.776 3.648 5.024 c0 3.904 -0.99204 5.312 -3.648 5.312 l-4.928 0 c-1.376 0 -1.728 0.35199 -1.728 1.728 l0 13.92 l4.672 0 l0 -10.816 c0 -0.32 0.25602 -0.57596 0.576 -0.57596 l2.048 0 c0.16 0 0.28801 0.095976 0.38398 0.19199 c0.064024 0.063984 0.16 0.19199 0.16 0.28801 l2.944 10.912 l5.024 0 l-3.872 -11.776 c-0.031992 -0.063984 -0.031992 -0.16 -0.031992 -0.25598 c0 -0.16 0.12797 -0.32 0.25598 -0.416 c0.12801 -0.063984 0.25602 -0.19199 0.38402 -0.28801 c1.696 -1.376 2.784 -4.352 2.784 -7.744 c0 -2.656 -0.576 -4.864 -1.696 -6.56 c-1.696 -2.656 -4.256 -2.656 -6.976 -2.656 l-6.656 0 l0 10.496 c0 0.32 -0.25598 0.57596 -0.57596 0.57596 s-0.576 -0.25598 -0.576 -0.57596 l0 -11.072 c0 -0.32 0.25602 -0.576 0.576 -0.576 l7.232 0 c2.752 0 5.92 0.031992 7.936 3.2 c1.248 1.888 1.888 4.288 1.888 7.168 c0 3.776 -1.216 7.008 -3.2 8.64 c-0.031992 0.031992 -0.095976 0.063984 -0.12801 0.095976 l4 12.16 c0.064024 0.16 0 0.35203 -0.095976 0.51204 c-0.096016 0.16 -0.25602 0.22398 -0.448 0.22398 z M67.792 39.296 c0 0 0 0.35199 -0.095976 0.48 c-0.096016 0.12797 -0.28801 0.22398 -0.448 0.22398 l-5.824 0 l-0.16 0 c-0.063984 0 -0.16 -0.096016 -0.22398 -0.12801 c-0.063984 -0.063984 -0.096016 -0.12801 -0.12801 -0.19199 c0 -0.031992 -0.063984 -0.12801 -0.063984 -0.16 l-0.832 -4.416 l-0.32 -1.76 l-2.528 0 c-0.32 0 -0.576 -0.25598 -0.576 -0.57596 s0.25602 -0.576 0.576 -0.576 l2.944 0 c0.28801 -0.031992 0.608 0.19199 0.64 0.48 l0.38402 2.208 l0.73596 3.968 l4.64 0 l-2.624 -10.944 l-4.512 -18.752 l-5.28 0 l-4.48 18.784 l-2.624 10.912 l4.672 0 l1.6 -8.8 c0.32 -1.76 1.024 -2.848 3.36 -2.848 l0.064024 0 l0.063984 0 l1.792 0 l-1.792 -9.696 l-1.248 6.784 c-0.063984 0.32 -0.35199 0.512 -0.672 0.448 c-0.32 -0.064024 -0.544 -0.32 -0.48 -0.64 l1.824 -9.856 c0.031992 -0.25602 0.28797 -0.448 0.57596 -0.448 s0.512 0.19199 0.54404 0.448 l2.496 13.408 l0 0.063984 l0 0.19199 c0 0.064024 -0.095976 0.16 -0.12801 0.22402 c-0.031992 0.063984 -0.12797 0.12801 -0.19199 0.16 c-0.063984 0.031992 -0.12801 0.063984 -0.19199 0.063984 l-0.063984 0 l-2.464 0 l-0.063984 -0.031992 l-0.064024 0.031992 c-1.6 0 -1.984 0.448 -2.24 1.92 l-1.696 9.248 c0 0.031992 -0.031992 0.12801 -0.031992 0.16 c-0.032031 0.063984 -0.096016 0.16 -0.16 0.19199 c-0.064024 0.064024 -0.16 0.12801 -0.22402 0.12801 l-0.16 0 l-5.856 0 c-0.16 0 -0.35203 -0.096016 -0.448 -0.22398 c-0.096016 -0.12801 -0.16 -0.32 -0.12801 -0.48 l2.784 -11.648 l4.608 -19.2 c0.064024 -0.25602 0.32 -0.448 0.576 -0.448 l6.176 0 c0.25602 0 0.48 0.19199 0.54404 0.448 l4.64 19.2 z M82.256 40.48 l-0.032031 0 c-1.536 0 -2.944 -0.92288 -3.84 -2.5379 c-0.92796 -1.681 -1.024 -6.5592 -1.024 -10.053 l0 -0.1648 l0 -3.1971 c0 -2.8675 0.16 -6.9876 0.896 -9.064 c0.60796 -1.7139 1.472 -2.4391 2.976 -2.4391 l0.031992 0 c2.464 0 2.656 3.5926 2.752 6.8888 l5.12 -0.42848 c-0.576 -7.1192 -3.296 -10.778 -8.032 -10.778 c-2.112 0 -3.872 0.69216 -5.216 2.0765 c-3.008 3.0653 -3.616 8.998 -3.616 13.415 c0 6.2952 1.12 10.679 3.328 13.019 c0.22398 0.23074 0.19199 0.62624 -0.031992 0.85696 c-0.22402 0.23074 -0.576 0.19777 -0.8 -0.032969 c-2.464 -2.6038 -3.648 -7.1524 -3.648 -13.843 c0 -4.6472 0.672 -10.91 3.968 -14.272 c1.568 -1.615 3.584 -2.4061 5.984 -2.4061 l0.064024 0 c3.84 0 8.544 2.1754 9.216 12.459 c0 0.32961 -0.22398 0.59324 -0.544 0.6262 l-6.304 0.56032 c-0.16 0 -0.28797 -0.065936 -0.41596 -0.16476 c-0.12801 -0.098908 -0.22402 -0.26371 -0.22402 -0.42852 l0 -0.2307 c-0.063984 -2.5709 -0.19199 -6.0976 -1.632 -6.0976 c-0.89596 0 -1.408 0.2307 -1.92 1.615 c-0.73596 2.1424 -0.8 7.0864 -0.8 8.7012 l0 3.1642 l0 0.1648 c0 6.4932 0.448 8.7344 0.86404 9.4596 c0.704 1.2525 1.728 1.9446 2.88 1.9446 l0.031992 0 c5.216 -0.03293 6.4 -7.0864 6.656 -10.053 l-4.992 -0.36258 l0 0.49442 c-0.031992 1.8128 -0.063984 4.3176 -1.696 5.4712 c-0.25602 0.19774 -0.608 0.098828 -0.8 -0.1648 c-0.19203 -0.26371 -0.12801 -0.62624 0.12797 -0.82404 c1.152 -0.79104 1.184 -2.9664 1.216 -4.5156 c0 -0.42844 0 -0.824 0.031992 -1.1536 s0.28801 -0.52736 0.608 -0.52736 l6.176 0.46144 c0.32 0 0.512 0.29664 0.512 0.62624 c-0.16 2.7357 -1.248 11.734 -7.872 11.734 z M115.888 40 l-6.432 0 c-0.19203 0 -0.38402 -0.096016 -0.48 -0.25602 c-0.25602 -0.41596 -6.496 -10.08 -7.584 -11.872 c-0.992 -1.888 -1.12 -3.744 -1.12 -5.44 l0 -13.28 l-4.8 0 l0 29.696 l4.8 0 l0 -6.176 c0 -0.32 0.25602 -0.544 0.576 -0.544 s0.57596 0.22398 0.57596 0.544 l0 6.752 c0 0.32 -0.25598 0.576 -0.57596 0.576 l-5.952 0 c-0.32 0 -0.576 -0.25602 -0.576 -0.576 l0 -30.848 c0 -0.32 0.25602 -0.576 0.576 -0.576 l5.952 0 c0.32 0 0.57596 0.25602 0.57596 0.576 l0 13.856 c0 1.792 0.16 3.296 0.96 4.864 c0.96 1.568 6.336 9.952 7.36 11.552 l5.12 0 c-2.112 -3.456 -9.696 -15.744 -10.752 -17.856 c-0.672 -1.344 -0.448 -2.88 -0.22398 -3.552 c0.41596 -1.248 4.896 -8.384 5.408 -9.184 c0.095976 -0.16 0.28797 -0.25602 0.48 -0.25602 l6.112 0 c0.19199 0 0.38398 0.12801 0.48 0.28801 c0.095976 0.16 0.095976 0.41596 0 0.57596 l-7.008 12.384 c-0.16 0.28801 -0.512 0.38398 -0.8 0.22398 s-0.38398 -0.512 -0.22398 -0.8 l6.56 -11.52 l-4.8 0 c-1.984 3.136 -4.864 7.84 -5.12 8.64 c-0.19203 0.576 -0.32 1.76 0.16 2.688 c1.184 2.368 11.136 18.496 11.232 18.656 c0.095976 0.16 0.095976 0.38398 0 0.57596 c-0.096016 0.19199 -0.28801 0.28801 -0.48 0.28801 z M151.792 8.224 c0.096016 0.12801 0.16 0.28801 0.12801 0.448 l-6.4 30.88 c-0.063984 0.25602 -0.28801 0.448 -0.544 0.448 l-1.248 0 l-1.312 0 l-0.12801 0 l-0.096016 0 c-1.92 -0.096016 -3.136 -1.632 -3.808 -4.64 l0 -0.031992 l-4.704 -23.552 l-2.72 16.448 c-0.031992 0.28801 -0.28801 0.48 -0.576 0.48 c-0.28797 0 -0.544 -0.22398 -0.57596 -0.48 l-3.584 -19.072 l-4.544 0 l6.24 29.696 l0.76801 0 l0.031992 0 l0.063984 0 l1.344 0 c0.89596 0 2.048 -0.416 2.784 -3.744 l0.768 -4.704 c0.031992 -0.32 0.32 -0.512 0.64 -0.48 s0.512 0.35199 0.48 0.672 l-0.768 4.736 l0 0.031992 c-0.704 3.168 -1.92 4.64 -3.904 4.64 l-1.344 0 l-0.063984 0 l-0.031992 0 l-1.216 0 c-0.25598 0 -0.512 -0.19199 -0.57596 -0.448 l-6.496 -30.848 c-0.031992 -0.16 0.031992 -0.35199 0.12801 -0.48 c0.095976 -0.12797 0.28801 -0.22398 0.448 -0.22398 l5.728 0 c0.28801 0 0.51204 0.22398 0.54404 0.48 l3.104 16.352 l2.72 -16.352 c0.031992 -0.28801 0.25602 -0.48 0.54404 -0.48 c0.28797 -0.031992 0.544 0.22398 0.57596 0.48 l5.312 26.624 c0.736 3.36 2.016 3.744 2.912 3.744 l1.312 0 l0.76801 0 l6.144 -29.696 l-4.512 0 l-3.52 19.072 c-0.031992 0.25602 -0.25602 0.48 -0.54404 0.48 c-0.28797 0 -0.544 -0.19199 -0.57596 -0.48 l-3.136 -19.552 c-0.031992 -0.32 0.16 -0.64 0.48 -0.672 s0.608 0.16 0.64 0.48 l2.624 16.256 l2.976 -16.256 c0.031992 -0.25602 0.28801 -0.48 0.576 -0.48 l5.728 0 c0.16 0 0.32 0.096016 0.41596 0.22398 z M162.25600000000003 40 l-5.76 0 c-0.32 0 -0.576 -0.25602 -0.576 -0.576 l0 -21.376 c0 -2.912 1.632 -3.296 3.008 -3.296 l0.70398 0 c0.32 0 0.576 0.25602 0.576 0.576 s-0.25602 0.57596 -0.576 0.57596 l-0.70398 0 c-1.12 0 -1.856 0.16 -1.856 2.144 l0 20.8 l4.64 0 l0 -29.696 l-4.64 0 l0 2.912 c0 0.32 -0.25598 0.576 -0.57596 0.576 s-0.576 -0.25602 -0.576 -0.576 l0 -3.488 c0 -0.32 0.25602 -0.576 0.576 -0.576 l5.76 0 c0.32 0 0.57596 0.25602 0.57596 0.576 l0 30.848 c0 0.32 -0.25598 0.576 -0.57596 0.576 z M173.36 40 l-5.984 0 c-0.32 0 -0.576 -0.25602 -0.576 -0.576 l0 -15.776 c0 -0.32 0.25602 -0.576 0.576 -0.576 s0.57596 0.25602 0.57596 0.576 l0 15.2 l4.832 0 l0 -12.544 c0 -0.32 0.25602 -0.57596 0.576 -0.57596 l6.464 0 l0 -4 l-9.504 0 c-1.952 0 -3.52 -1.568 -3.52 -3.52 l0 -9.632 c0 -0.32 0.25602 -0.576 0.576 -0.576 l14.176 0 c0.32 0 0.576 0.25602 0.576 0.576 l0 5.408 c0 0.32 -0.25602 0.576 -0.576 0.576 l-7.616 0 l0 2.848 c0 0.32 -0.25602 0.57596 -0.576 0.57596 s-0.576 -0.25598 -0.576 -0.57596 l0 -3.424 c0 -0.32 0.25602 -0.57596 0.576 -0.57596 l7.616 0 l0 -4.256 l-13.024 0 l0 9.056 c0 1.312 1.056 2.368 2.368 2.368 l10.048 0 c0.32 0 0.57596 0.25598 0.57596 0.57596 l0 5.152 c0 0.32 -0.25598 0.54404 -0.57596 0.54404 l-6.432 0 l0 12.576 c0 0.32 -0.25602 0.576 -0.576 0.576 z M192.45600000000002 40 l-5.76 0 c-0.32 0 -0.576 -0.25602 -0.576 -0.576 l0 -21.376 c0 -2.912 1.632 -3.296 3.008 -3.296 l0.70398 0 c0.32 0 0.576 0.25602 0.576 0.576 s-0.25602 0.57596 -0.576 0.57596 l-0.70398 0 c-1.12 0 -1.856 0.16 -1.856 2.144 l0 20.8 l4.64 0 l0 -29.696 l-4.64 0 l0 2.912 c0 0.32 -0.25598 0.576 -0.57596 0.576 s-0.576 -0.25602 -0.576 -0.576 l0 -3.488 c0 -0.32 0.25602 -0.576 0.576 -0.576 l5.76 0 c0.32 0 0.57596 0.25602 0.57596 0.576 l0 30.848 c0 0.32 -0.25598 0.576 -0.57596 0.576 z"></path></g></svg>