<svg width="315" height="103.88311962857739" viewBox="0 0 315 103.88311962857739" class="css-1j8o68f"><defs id="SvgjsDefs2176"></defs><g id="SvgjsG2177" featurekey="symbolFeature-0" transform="matrix(0.2054346799850464,0,0,0.2054346799850464,-5.341274868164133,-0.6163604450468936)" fill="#506084"><path xmlns="http://www.w3.org/2000/svg" d=" M 278.5 373.81 L 269.39 375.03 C 269.38 375.03 269.36 375.03 269.35 375.03 C 267.22 375.31 265.09 375.5 262.95 375.6 C 260.64 375.73 258.32 375.79 256 375.78 C 253.68 375.79 251.36 375.73 249.05 375.6 C 246.91 375.5 244.78 375.31 242.65 375.03 C 242.64 375.03 242.62 375.03 242.61 375.03 L 233.5 373.81 C 233.49 373.8 233.48 373.8 233.47 373.8 C 231.57 373.54 229.69 373.14 227.84 372.62 C 225.98 372.08 224.14 371.45 222.35 370.7 C 218.73 369.19 215.25 367.33 211.98 365.15 C 208.7 362.98 205.64 360.5 202.84 357.74 C 201.46 356.38 200.16 354.94 198.95 353.43 C 197.74 351.93 196.65 350.35 195.67 348.7 C 195.66 348.69 195.66 348.68 195.65 348.68 L 190.57 340.03 C 188.75 336.99 187.31 333.74 186.28 330.35 C 185.3 327.15 184.79 323.83 184.77 320.48 C 184.74 316.6 185.5 312.76 186.99 309.17 C 188.49 305.61 190.72 302.39 193.53 299.72 C 196.39 297.01 199.73 294.85 203.36 293.34 C 205.25 292.54 207.19 291.89 209.17 291.4 C 211.25 290.87 213.37 290.5 215.5 290.27 L 227.59 288.93 C 227.6 288.93 227.61 288.93 227.62 288.93 C 232.08 288.46 236.55 288.13 241.02 287.95 C 246.01 287.73 251.01 287.62 256 287.63 C 260.99 287.62 265.99 287.73 270.98 287.95 C 275.45 288.13 279.92 288.46 284.38 288.93 C 284.39 288.93 284.4 288.93 284.41 288.93 L 296.5 290.27 C 298.63 290.5 300.75 290.87 302.83 291.4 C 304.81 291.89 306.75 292.54 308.64 293.34 C 312.27 294.85 315.61 297.01 318.47 299.72 C 321.28 302.39 323.51 305.61 325.01 309.17 C 326.5 312.76 327.26 316.6 327.23 320.48 C 327.21 323.83 326.7 327.15 325.72 330.35 C 324.69 333.74 323.25 336.99 321.43 340.03 L 316.35 348.68 C 308.27 362.41 294.3 371.69 278.5 373.81 Z  M 244.98 357.18 L 235.91 355.97 C 234.85 355.82 233.81 355.6 232.78 355.31 C 231.59 354.97 230.41 354.56 229.27 354.08 C 226.7 353.01 224.25 351.7 221.94 350.15 C 219.62 348.63 217.46 346.87 215.48 344.93 C 214.59 344.05 213.76 343.13 212.98 342.16 C 212.31 341.33 211.7 340.45 211.16 339.54 L 206.07 330.88 C 206.06 330.86 206.05 330.84 206.04 330.83 C 204.96 329.02 204.1 327.09 203.49 325.08 C 203.02 323.55 202.78 321.97 202.77 320.37 C 202.76 318.92 203.04 317.48 203.59 316.13 C 204.13 314.87 204.92 313.73 205.91 312.79 C 207.2 311.58 208.69 310.61 210.33 309.94 C 211.37 309.49 212.45 309.13 213.55 308.86 C 214.83 308.53 216.13 308.3 217.44 308.16 C 217.45 308.16 217.45 308.16 217.46 308.16 L 229.54 306.83 C 233.61 306.4 237.69 306.1 241.78 305.93 C 246.52 305.73 251.26 305.62 256 305.63 C 260.74 305.62 265.48 305.73 270.22 305.93 C 274.31 306.1 278.39 306.4 282.46 306.83 L 294.54 308.16 C 294.55 308.16 294.55 308.16 294.56 308.16 C 295.87 308.3 297.17 308.53 298.45 308.86 C 299.55 309.13 300.63 309.49 301.67 309.94 C 303.31 310.61 304.8 311.58 306.09 312.79 C 307.08 313.73 307.87 314.87 308.41 316.13 C 308.96 317.48 309.24 318.92 309.23 320.37 C 309.22 321.97 308.98 323.55 308.51 325.08 C 307.9 327.09 307.04 329.02 305.96 330.83 C 305.95 330.84 305.94 330.86 305.93 330.88 L 300.83 339.55 C 295.55 348.52 286.43 354.58 276.11 355.97 L 267.02 357.18 C 265.37 357.4 263.7 357.54 262.03 357.63 C 260.02 357.73 258.01 357.79 256 357.78 C 253.99 357.79 251.98 357.73 249.97 357.63 C 248.3 357.54 246.63 357.4 244.98 357.18 Z " fill-rule="evenodd" fill="#506084"></path><path xmlns="http://www.w3.org/2000/svg" d=" M 317.734 473.8 L 317.734 473.8 C 285.425 462.736 233.231 462.05 201.25 472.271 L 201.25 472.271 C 190.179 475.81 183.56 465.644 186.479 449.584 Q 197.645 388.159 259.195 388.159 Q 320.745 388.159 332.581 451.666 C 335.572 467.713 328.919 477.631 317.734 473.8 Z " fill="#506084"></path><path xmlns="http://www.w3.org/2000/svg" d=" M 198.923 336.369 L 198.923 336.369 C 162.103 343.794 126.189 364.914 110.754 390.358 L 110.754 390.358 C 81.498 438.588 118.347 484.22 192.991 492.197 L 192.991 492.197 C 226.801 495.81 281.699 495.81 315.509 492.197 L 315.509 492.197 C 390.153 484.22 427.002 438.588 397.746 390.358 L 397.746 390.358 C 382.747 365.631 348.406 344.988 312.689 337.03 L 313.688 335.33 C 324.121 317.579 315.983 301.335 295.526 299.078 L 283.428 297.744 C 268.29 296.074 243.71 296.074 228.572 297.744 L 216.474 299.078 C 196.017 301.335 187.879 317.579 198.312 335.33 L 198.923 336.369 L 198.923 336.369 L 198.923 336.369 L 198.923 336.369 L 198.923 336.369 Z  M 151.017 94.177 C 153.871 81.058 146.789 61.829 132.898 47.399 L 128.547 42.879 C 110.936 24.586 85.377 27.004 71.506 48.276 L 69.168 51.862 C 55.297 73.134 63.379 97.517 87.205 106.279 L 93.092 108.443 C 104.772 112.738 117.089 113.878 127.34 112.224 C 134.896 105.599 142.842 99.523 151.017 94.177 L 151.017 94.177 L 151.017 94.177 L 151.017 94.177 L 151.017 94.177 L 151.017 94.177 L 151.017 94.177 L 151.017 94.177 Z  M 358.953 94.177 C 356.099 81.058 363.181 61.829 377.072 47.399 L 381.423 42.879 C 399.033 24.586 424.592 27.004 438.464 48.276 L 440.802 51.862 C 454.673 73.134 446.591 97.517 422.765 106.279 L 416.878 108.443 C 405.197 112.738 392.88 113.878 382.629 112.224 C 375.074 105.599 367.127 99.523 358.953 94.177 L 358.953 94.177 L 358.953 94.177 L 358.953 94.177 L 358.953 94.177 L 358.953 94.177 L 358.953 94.177 L 358.953 94.177 Z  M 155.66 268.76 C 154.4 270.63 152.44 271.92 150.23 272.35 C 148.02 272.77 145.72 272.3 143.86 271.04 C 141.99 269.78 140.7 267.82 140.27 265.61 C 139.85 263.4 140.32 261.1 141.58 259.24 C 143.05 257.07 144.69 255.03 146.48 253.13 C 148.29 251.21 150.23 249.42 152.28 247.77 C 156.44 244.44 160.97 241.6 165.78 239.29 C 170.58 236.97 175.6 235.15 180.78 233.87 C 183.33 233.24 185.91 232.75 188.51 232.41 C 191.06 232.08 193.64 231.9 196.21 231.9 C 199.1 231.89 201.99 232.13 204.84 232.63 C 207.06 233.01 209.03 234.26 210.33 236.11 C 211.63 237.95 212.14 240.24 211.75 242.46 C 211.37 244.68 210.12 246.65 208.27 247.95 C 206.43 249.25 204.14 249.76 201.92 249.37 C 200.06 249.05 198.16 248.89 196.26 248.9 C 194.41 248.9 192.55 249.03 190.71 249.27 C 188.74 249.52 186.79 249.89 184.86 250.37 C 180.83 251.37 176.9 252.79 173.16 254.6 C 169.51 256.35 166.08 258.51 162.92 261.04 C 161.47 262.2 160.11 263.46 158.84 264.8 C 157.67 266.04 156.61 267.36 155.66 268.76 L 155.66 268.76 L 155.66 268.76 L 155.66 268.76 Z  M 356.338 268.76 C 357.598 270.63 359.558 271.92 361.768 272.35 C 363.978 272.77 366.278 272.3 368.138 271.04 C 370.008 269.78 371.298 267.82 371.728 265.61 C 372.148 263.4 371.678 261.1 370.418 259.24 C 368.948 257.07 367.308 255.03 365.518 253.13 C 363.708 251.21 361.768 249.42 359.718 247.77 C 355.558 244.44 351.028 241.6 346.218 239.29 C 341.418 236.97 336.398 235.15 331.218 233.87 C 328.668 233.24 326.088 232.75 323.488 232.41 C 320.938 232.08 318.358 231.9 315.788 231.9 C 312.898 231.89 310.008 232.13 307.158 232.63 C 304.938 233.01 302.968 234.26 301.668 236.11 C 300.368 237.95 299.858 240.24 300.248 242.46 C 300.628 244.68 301.878 246.65 303.728 247.95 C 305.568 249.25 307.858 249.76 310.078 249.37 C 311.938 249.05 313.838 248.89 315.738 248.9 C 317.588 248.9 319.448 249.03 321.288 249.27 C 323.258 249.52 325.208 249.89 327.138 250.37 C 331.168 251.37 335.098 252.79 338.838 254.6 C 342.488 256.35 345.918 258.51 349.078 261.04 C 350.528 262.2 351.888 263.46 353.158 264.8 C 354.328 266.04 355.388 267.36 356.338 268.76 L 356.338 268.76 L 356.338 268.76 Z  M 127.371 311.194 C 124.49 314.883 123.082 316.611 122.083 320.201 C 119.356 329.997 125.095 340.165 134.891 342.893 C 144.688 345.62 154.856 339.881 157.583 330.085 C 158.628 326.332 158.306 323.14 157.561 319.192 L 154.265 294.677 C 153.133 286.26 147.966 284.858 142.734 291.548 L 127.371 311.194 L 127.371 311.194 Z  M 408.944 137.996 C 423.164 155.182 434.399 174.155 440.749 193.127 L 476.158 298.914 C 507.47 392.464 461.586 482.224 373.758 499.234 L 373.758 499.234 C 308.766 511.822 203.234 511.822 138.242 499.234 L 138.242 499.234 C 50.414 482.224 4.53 392.464 35.842 298.914 L 71.251 193.127 C 77.589 174.189 88.795 155.25 102.979 138.09 C 97.009 136.876 91.01 135.188 85.108 133.018 L 75.276 129.403 C 35.483 114.77 21.984 74.046 45.152 38.517 L 49.057 32.529 C 72.224 -2.999 114.912 -7.038 144.324 23.515 L 151.591 31.064 C 165.467 45.478 175.274 62.758 179.886 79.005 C 186.916 76.022 193.966 73.672 200.936 72.031 L 200.936 72.031 C 231.327 64.875 280.673 64.875 311.064 72.031 L 311.064 72.031 C 317.877 73.635 324.767 75.917 331.64 78.808 C 336.275 62.619 346.059 45.419 359.879 31.064 L 367.146 23.515 C 396.558 -7.038 439.246 -2.999 462.413 32.529 L 466.318 38.517 C 489.485 74.046 475.987 114.77 436.194 129.403 L 426.362 133.018 C 420.609 135.133 414.765 136.79 408.944 137.996 L 408.944 137.996 L 408.944 137.996 L 408.944 137.996 L 408.944 137.996 L 408.944 137.996 Z  M 382.033 311.194 C 384.915 314.883 386.322 316.611 387.321 320.201 C 390.049 329.997 384.31 340.165 374.513 342.893 C 364.716 345.62 354.549 339.881 351.821 330.085 C 350.776 326.332 351.099 323.14 351.844 319.192 L 355.14 294.677 C 356.271 286.26 361.438 284.858 366.67 291.548 L 382.033 311.194 Z " fill-rule="evenodd" fill="#506084"></path></g><g id="SvgjsG2178" featurekey="nameFeature-0" transform="matrix(1.6683074235916138,0,0,1.6683074235916138,111.83789040735317,9.729178279801069)" fill="#9a39d7"><path d="M11.348 27.266 l2.2266 0 c-0.35156 4.707 2.8516 8.2422 11.875 2.4414 l2.9297 0 l-1.8359 7.9688 c-9.9023 5.7031 -24.59 3.9844 -22.441 -10.41 l-2.207 0 c0.11719 -0.52734 0.23438 -1.1523 0.39063 -1.8359 c1.9922 -8.7305 8.6523 -15.078 17.93 -15.078 c5.1172 0 8.0664 1.4648 9.8242 2.6758 l-1.8945 8.1641 l-3.1445 0 c-7.0703 -7.6172 -13.184 0.15625 -13.652 6.0742 z M31.4648875 26.719 l-1.7773 0 l3.6328 -15.957 c3.3984 0 9.5313 -0.33203 14.375 0.3125 c4.2773 0.625 8.418 2.207 7.6953 7.3438 c-0.41016 3.1055 -2.793 6.2891 -5.3711 8.3008 l1.7578 0 c-0.46875 0.35156 -0.9375 0.72266 -1.4453 0.97656 l6.6797 12.383 l-11.719 0 l-4.8828 -9.5508 l-2.168 9.5508 l-9.8438 0 z M41.5431875 17.988 l-1.1914 5.0391 c4.707 0 7.3438 -5.0391 1.1914 -5.0391 z M74.23840625 26.719 l-0.95703 1.2305 l-2.7734 12.129 l-9.8438 0 l2.7148 -11.816 c-0.15625 -0.48828 -0.33203 -1.0156 -0.50781 -1.543 l-1.7578 0 c-1.8164 -5.2734 -3.9648 -10.723 -5.5078 -15.957 l11.055 0 l2.3047 7.4023 c1.7969 -2.4609 3.6523 -4.9414 5.4492 -7.4023 l10.801 0 l-12.734 15.957 l1.7578 0 z M90.54659375 33.3398 l-1.543 6.6602 l-6.7773 0 l1.5234 -6.6602 l6.7969 0 z M119.98078125 27.344 l-2.9688 12.734 l-9.7852 0 l2.7734 -11.953 l-5.6641 0 l-2.793 11.953 l-9.8438 0 l2.9492 -12.734 l-1.9727 0 l3.7695 -16.484 l9.8438 0 l-2.2461 9.9023 l5.6445 0 l2.2852 -9.9023 l9.8047 0 l-3.8086 16.484 l2.0117 0 z"></path></g></svg>