<svg width="175" height="66.01011922671385" viewBox="0 0 175 66.01011922671385" class="css-1j8o68f"><defs id="SvgjsDefs1377"></defs><g id="SvgjsG1378" featurekey="v37d4h-0" transform="matrix(0.7332746982574463,0,0,0.7332746982574463,-8.794897113634104,-3.650974816263267)" fill="#f015a6"><path xmlns="http://www.w3.org/2000/svg" d="M49.497,4.979L11.994,27.484v45.012L49.497,95L87,72.497V27.484L49.497,4.979z M49.497,12.349l10.526,6.317L31.097,35.149  l-9.85-5.845L49.497,12.349z M46.702,85.95l-28.563-17.14V34.81l9.483,5.627v9.553l5.633,3.279v-9.489l13.448,7.98V85.95z   M36.957,38.626l28.6-16.639l12.297,7.38L49.81,46.254L36.957,38.626z M80.859,68.809L52.843,85.62V51.807l28.016-16.872V68.809z"></path></g><g id="SvgjsG1379" featurekey="UxBHKT-0" transform="matrix(1.7403411865234375,0,0,1.7403411865234375,73.50330649562757,11.507135064052525)" fill="#141010"><path d="M9.72 18.9 q-0.38 0.52 -1.31 0.93 t-2.03 0.41 q-1.7 0 -2.95 -0.76 t-1.91 -2.07 t-0.66 -2.91 t0.66 -2.91 t1.91 -2.07 t2.95 -0.76 q1.14 0 2.01 0.39 t1.33 0.99 l0 -5.26 l2.96 0 l0 15.12 l-2.96 0 l0 -1.1 z M9.02 12.25 q-0.82 -0.87 -2.2 -0.87 q-1.4 0 -2.21 0.87 t-0.81 2.25 q0 1.34 0.83 2.22 t2.19 0.88 q1.4 0 2.21 -0.83 t0.81 -2.27 q0 -1.38 -0.82 -2.25 z M18.45 19.74 q-1.37 -0.54 -2.35 -1.83 t-0.98 -3.37 t0.99 -3.36 t2.37 -1.82 t2.62 -0.54 q1.44 0 2.74 0.64 t2.13 1.88 t0.87 2.94 q0 0.52 -0.02 0.9 t-0.04 0.48 l-8.68 0 q0.24 1.16 1.2 1.58 t1.8 0.42 q1.08 0 1.72 -0.39 t1.1 -0.89 l2.32 1.34 q-1.88 2.56 -5.14 2.56 q-1.28 0 -2.65 -0.54 z M19.06 12.05 q-0.78 0.61 -0.88 1.49 l5.5 0 q-0.06 -0.52 -0.4 -1 t-0.91 -0.79 t-1.29 -0.31 q-1.24 0 -2.02 0.61 z M27.44 9.04 l3.32 0 l2.56 5.38 l2.56 -5.38 l3.34 0 l-5.9 11.44 z M57.19 10.04 q1.13 1.24 1.13 3.46 l0 6.5 l-3.02 0 l0 -6.5 q0 -1.18 -0.59 -1.7 t-1.55 -0.52 q-0.8 0 -1.44 0.6 t-0.66 2 l0 6.12 l-3.02 0 l0 -6.5 q0 -1.18 -0.59 -1.7 t-1.53 -0.52 q-0.86 0 -1.49 0.64 t-0.63 2.26 l-0.02 5.82 l-2.98 0 l0 -11 l2.98 0 l0 1 q0.58 -0.52 1.4 -0.86 t1.5 -0.34 q2.32 0 3.54 1.5 q0.62 -0.7 1.54 -1.1 t2 -0.4 q2.3 0 3.43 1.24 z"></path></g></svg>