<svg width="421.64539649516695" height="308.2166748046875" viewBox="0 0 349.99999999999994 255.8449281750361" class="css-1j8o68f"><defs id="SvgjsDefs1001"></defs><g id="SvgjsG1007" featurekey="1p4tPl-0" transform="matrix(2.2685184478759766,0,0,2.2685184478759766,106.95962070094214,-0.007939815059890627)" fill="#d72323"><title xmlns="http://www.w3.org/2000/svg">Group 158</title><desc xmlns="http://www.w3.org/2000/svg">Created with Sketch.</desc><g xmlns="http://www.w3.org/2000/svg" stroke="none" stroke-width="1" fill="none" fill-rule="evenodd"><g transform="translate(-840.000000, -2207.000000)" fill="#d72323"><g transform="translate(840.000000, 2207.000000)"><path d="M21.0178,2.0035 L21.0178,6.0055 L39.0178,6.0035 L39.0178,2.0035 L21.0178,2.0035 Z M39.0178,8.0035 L21.0178,8.0035 C19.9148,8.0035 19.0178,7.1065 19.0178,6.0035 L19.0178,2.0035 C19.0178,0.9005 19.9148,0.0035 21.0178,0.0035 L39.0178,0.0035 C40.1208,0.0035 41.0178,0.9005 41.0178,2.0035 L41.0178,6.0035 C41.0178,7.1065 40.1208,8.0035 39.0178,8.0035 L39.0178,8.0035 Z"></path><path d="M21.0178,54.0035 L21.0178,58.0055 L39.0178,58.0035 L39.0178,54.0035 L21.0178,54.0035 Z M39.0178,60.0035 L21.0178,60.0035 C19.9148,60.0035 19.0178,59.1065 19.0178,58.0035 L19.0178,54.0035 C19.0178,52.9005 19.9148,52.0035 21.0178,52.0035 L39.0178,52.0035 C40.1208,52.0035 41.0178,52.9005 41.0178,54.0035 L41.0178,58.0035 C41.0178,59.1065 40.1208,60.0035 39.0178,60.0035 L39.0178,60.0035 Z"></path><path d="M53.0178,24.0035 L49.0178,24.0035 C48.4648,24.0035 48.0178,23.5565 48.0178,23.0035 C48.0178,22.4505 48.4648,22.0035 49.0178,22.0035 L53.0178,22.0035 C53.5708,22.0035 54.0178,22.4505 54.0178,23.0035 C54.0178,23.5565 53.5708,24.0035 53.0178,24.0035"></path><path d="M33.0178,28.0035 C32.4648,28.0035 32.0178,27.5565 32.0178,27.0035 L32.0178,23.0035 C32.0178,22.4505 32.4648,22.0035 33.0178,22.0035 C33.5708,22.0035 34.0178,22.4505 34.0178,23.0035 L34.0178,27.0035 C34.0178,27.5565 33.5708,28.0035 33.0178,28.0035"></path><path d="M44.0178,23.0035 C44.0178,23.5555 44.4658,24.0035 45.0178,24.0035 C45.5698,24.0035 46.0178,23.5555 46.0178,23.0035 C46.0178,22.4515 45.5698,22.0035 45.0178,22.0035 C44.4658,22.0035 44.0178,22.4515 44.0178,23.0035"></path><path d="M33.0178,43.0035 C32.4648,43.0035 32.0178,42.5565 32.0178,42.0035 L32.0178,32.0035 C32.0178,31.4505 32.4648,31.0035 33.0178,31.0035 C33.5708,31.0035 34.0178,31.4505 34.0178,32.0035 L34.0178,42.0035 C34.0178,42.5565 33.5708,43.0035 33.0178,43.0035"></path><path d="M33.0178,54.0035 C32.4648,54.0035 32.0178,53.5565 32.0178,53.0035 L32.0178,48.0035 C32.0178,47.4505 32.4648,47.0035 33.0178,47.0035 C33.5708,47.0035 34.0178,47.4505 34.0178,48.0035 L34.0178,53.0035 C34.0178,53.5565 33.5708,54.0035 33.0178,54.0035"></path><path d="M2.0178,31.0035 L2.0178,49.0035 L6.0198,49.0035 L6.0178,31.0035 L2.0178,31.0035 Z M6.0178,51.0035 L2.0178,51.0035 C0.9148,51.0035 0.0178,50.1065 0.0178,49.0035 L0.0178,31.0035 C0.0178,29.9005 0.9148,29.0035 2.0178,29.0035 L6.0178,29.0035 C7.1208,29.0035 8.0178,29.9005 8.0178,31.0035 L8.0178,49.0035 C8.0178,50.1065 7.1208,51.0035 6.0178,51.0035 L6.0178,51.0035 Z"></path><path d="M24.0178,52.0035 L36.0178,52.0035 L36.0178,27.0035 C36.0178,26.4505 36.4648,26.0035 37.0178,26.0035 L52.0178,26.0035 L52.0178,14.0035 L37.0178,14.0035 C36.4648,14.0035 36.0178,13.5565 36.0178,13.0035 L36.0178,8.0035 L24.0178,8.0035 L24.0178,33.0035 C24.0178,33.5565 23.5708,34.0035 23.0178,34.0035 L8.0178,34.0035 L8.0178,46.0035 L23.0178,46.0035 C23.5708,46.0035 24.0178,46.4505 24.0178,47.0035 L24.0178,52.0035 Z M37.0178,54.0035 L23.0178,54.0035 C22.4648,54.0035 22.0178,53.5565 22.0178,53.0035 L22.0178,48.0035 L7.0178,48.0035 C6.4648,48.0035 6.0178,47.5565 6.0178,47.0035 L6.0178,33.0035 C6.0178,32.4505 6.4648,32.0035 7.0178,32.0035 L22.0178,32.0035 L22.0178,7.0035 C22.0178,6.4505 22.4648,6.0035 23.0178,6.0035 L37.0178,6.0035 C37.5708,6.0035 38.0178,6.4505 38.0178,7.0035 L38.0178,12.0035 L53.0178,12.0035 C53.5708,12.0035 54.0178,12.4505 54.0178,13.0035 L54.0178,27.0035 C54.0178,27.5565 53.5708,28.0035 53.0178,28.0035 L38.0178,28.0035 L38.0178,53.0035 C38.0178,53.5565 37.5708,54.0035 37.0178,54.0035 L37.0178,54.0035 Z"></path><path d="M54.0178,11.0035 L54.0158,11.0035 L54.0178,29.0035 L58.0178,29.0035 L58.0178,11.0035 L54.0178,11.0035 Z M58.0178,31.0035 L54.0178,31.0035 C52.9148,31.0035 52.0178,30.1065 52.0178,29.0035 L52.0178,11.0035 C52.0178,9.9005 52.9148,9.0035 54.0178,9.0035 L58.0178,9.0035 C59.1208,9.0035 60.0178,9.9005 60.0178,11.0035 L60.0178,29.0035 C60.0178,30.1065 59.1208,31.0035 58.0178,31.0035 L58.0178,31.0035 Z"></path><path d="M41.0178,24.0035 L33.0178,24.0035 C32.4648,24.0035 32.0178,23.5565 32.0178,23.0035 C32.0178,22.4505 32.4648,22.0035 33.0178,22.0035 L41.0178,22.0035 C41.5708,22.0035 42.0178,22.4505 42.0178,23.0035 C42.0178,23.5565 41.5708,24.0035 41.0178,24.0035"></path></g></g></g></g><g id="SvgjsG1008" featurekey="dYASrj-0" transform="matrix(6.801425457000732,0,0,6.801425457000732,-4.082210287594891,117.91201469724189)" fill="#111111"><path d="M10.86 6 c0.32 0 0.5 0.18 0.5 0.5 l0 13 c0 0.32 -0.18 0.5 -0.5 0.5 l-2 0 c-0.32 0 -0.5 -0.18 -0.5 -0.5 l0 -0.434 c-0.6686 0.7624 -1.6416 1.214 -2.9798 1.214 c-2.62 0 -4.78 -2.3 -4.78 -5.28 s2.16 -5.28 4.78 -5.28 c1.3382 0 2.3112 0.4516 2.9798 1.214 l0 -4.434 c0 -0.32 0.18 -0.5 0.5 -0.5 l2 0 z M5.98 17.44 c1.38 0 2.38 -0.94 2.38 -2.44 s-1 -2.44 -2.38 -2.44 s-2.38 0.94 -2.38 2.44 s1 2.44 2.38 2.44 z M14.06 8.8 c-0.32 0 -0.5 -0.18 -0.5 -0.5 l0 -1.8 c0 -0.32 0.18 -0.5 0.5 -0.5 l2 0 c0.32 0 0.5 0.18 0.5 0.5 l0 1.8 c0 0.32 -0.18 0.5 -0.5 0.5 l-2 0 z M14.06 20 c-0.32 0 -0.5 -0.18 -0.5 -0.5 l0 -9 c0 -0.32 0.18 -0.5 0.5 -0.5 l2 0 c0.32 0 0.5 0.18 0.5 0.5 l0 9 c0 0.32 -0.18 0.5 -0.5 0.5 l-2 0 z M22.28 17.2 l3.48 0 c0.32 0 0.5 0.18 0.5 0.5 l0 1.8 c0 0.32 -0.18 0.5 -0.5 0.5 l-7 0 c-0.32 0 -0.5 -0.18 -0.5 -0.5 l0 -1.16 c0 -0.24 0.06 -0.42 0.2 -0.62 l3.58 -4.92 l-3.08 0 c-0.32 0 -0.5 -0.18 -0.5 -0.5 l0 -1.8 c0 -0.32 0.18 -0.5 0.5 -0.5 l6.6 0 c0.32 0 0.5 0.18 0.5 0.5 l0 1.16 c0 0.24 -0.06 0.42 -0.2 0.62 z M31.38 17.2 l3.48 0 c0.32 0 0.5 0.18 0.5 0.5 l0 1.8 c0 0.32 -0.18 0.5 -0.5 0.5 l-7 0 c-0.32 0 -0.5 -0.18 -0.5 -0.5 l0 -1.16 c0 -0.24 0.06 -0.42 0.2 -0.62 l3.58 -4.92 l-3.08 0 c-0.32 0 -0.5 -0.18 -0.5 -0.5 l0 -1.8 c0 -0.32 0.18 -0.5 0.5 -0.5 l6.6 0 c0.32 0 0.5 0.18 0.5 0.5 l0 1.16 c0 0.24 -0.06 0.42 -0.2 0.62 z M37.46 20 c-0.32 0 -0.5 -0.18 -0.5 -0.5 l0 -13.4 c0 -0.32 0.18 -0.5 0.5 -0.5 l2 0 c0.32 0 0.5 0.18 0.5 0.5 l0 13.4 c0 0.32 -0.18 0.5 -0.5 0.5 l-2 0 z M47.02 9.72 c2.92 0 5.04 2.26 5.04 5.28 c0 0.26 -0.02 0.5 -0.04 0.74 c-0.04 0.32 -0.24 0.46 -0.54 0.46 l-2.44 0 l-4.2388 0 c0.3634 1.1882 1.2966 1.66 2.3388 1.66 c0.56 0 1.12 -0.2 1.48 -0.5 c0.2 -0.16 0.36 -0.26 0.62 -0.26 l1.92 -0.02 c0.36 0 0.56 0.24 0.4 0.56 c-0.78 1.74 -2.42 2.64 -4.46 2.64 c-3.32 0 -5.44 -2.3 -5.44 -5.28 s2.2 -5.28 5.36 -5.28 z M44.7886 13.92 l4.285 0 c-0.3092 -1.138 -1.1914 -1.54 -2.0736 -1.54 c-1.1244 0 -1.9024 0.5426 -2.2114 1.54 z"></path></g></svg>