<svg width="375.36360526666186" height="66.54184233948823" viewBox="0 0 375.36360526666186 66.54184233948823" class="css-1j8o68f"><defs id="SvgjsDefs1327"></defs><g id="SvgjsG1328" featurekey="nRdZyp-0" transform="matrix(0.17575763165950775,0,0,0.17575763165950775,-0.17575763673203576,-11.726551078233674)" fill="#000000"><title xmlns="http://www.w3.org/2000/svg">Evil-Emoji-Emotion-Face-Expression-Feeling</title><path xmlns="http://www.w3.org/2000/svg" d="M501,369.64h-8.87V99.48a32.8,32.8,0,0,0-32.76-32.76H52.63A32.8,32.8,0,0,0,19.87,99.48V369.64H11a10,10,0,0,0-10,10v22.68a43,43,0,0,0,43,43H468a43,43,0,0,0,43-43V379.64A10,10,0,0,0,501,369.64ZM39.87,99.48A12.77,12.77,0,0,1,52.63,86.72H459.37a12.77,12.77,0,0,1,12.76,12.76V369.64H39.87ZM491,402.32a23,23,0,0,1-23,23H44a23,23,0,0,1-23-23V389.64H198.74v2.94a19.13,19.13,0,0,0,19.11,19.11h76.3a19.13,19.13,0,0,0,19.11-19.11v-2.94H491Z"></path><path xmlns="http://www.w3.org/2000/svg" d="M300.89,232.17H211.11a10,10,0,0,0-10,10,54.89,54.89,0,1,0,109.78,0A10,10,0,0,0,300.89,232.17Z"></path><path xmlns="http://www.w3.org/2000/svg" d="M210.73,211.25a10,10,0,0,0-5.61-12.31l-38.51-16.32a10,10,0,0,0-12.74,4.52,31,31,0,1,0,56.86,24.11Z"></path><path xmlns="http://www.w3.org/2000/svg" d="M345.39,182.62l-38.51,16.32a10,10,0,0,0-5.61,12.31,31,31,0,1,0,56.86-24.11A10,10,0,0,0,345.39,182.62Z"></path></g><g id="SvgjsG1329" featurekey="Q4qmbg-0" transform="matrix(3.6500678062438965,0,0,3.6500678062438965,112.37195367319708,-12.688346839922659)" fill="#000000"><path d="M10.82 15.08 l0 0.66 l-7.04 0 c0 1.16 1.18 1.98 2.16 1.98 c0.96 0 1.84 -0.38 2.3 -1.22 l1.98 1.82 c-0.8 1.08 -2.02 1.84 -4.28 1.84 c-3.24 0 -5.22 -2.16 -5.22 -5.08 s1.92 -5.1 5.04 -5.1 s5.06 2.14 5.06 5.1 z M3.84 13.86 l3.88 0 c-0.16 -0.94 -0.84 -1.44 -1.96 -1.44 c-1.08 0 -1.74 0.58 -1.92 1.44 z M17.00389583333333 20 l-1.94 0 l-4.18 -9.88 l3.06 0 l2.08 5.64 c0.68 -1.72 1.44 -3.98 2.08 -5.64 l3.04 0 z M24.747791666666664 10.12 l0 9.88 l-2.96 0 l0 -9.88 l2.96 0 z M24.827791666666666 7.279999999999999 c0 0.84 -0.68 1.5 -1.58 1.5 c-0.86 0 -1.56 -0.66 -1.56 -1.5 c0 -0.82 0.7 -1.46 1.56 -1.46 c0.9 0 1.58 0.64 1.58 1.46 z M29.2916875 5.119999999999999 l0 14.88 l-2.98 0 l0 -14.88 l2.98 0 z M33.63558333333333 13.24 c0 1.18 5 0.62 5 3.74 c0 2.04 -1.8 3.18 -4.04 3.18 c-1.42 0 -2.84 -0.7 -3.96 -1.82 l1.94 -1.94 c0.56 0.68 1.36 1.2 2.02 1.26 s1.22 -0.22 1.32 -0.52 c0.24 -0.76 -1.14 -0.8 -1.56 -0.92 c-1.58 -0.48 -3.42 -1.14 -3.42 -3.1 c0 -2.34 2.44 -3.14 3.66 -3.14 c1.4 0 2.82 0.64 3.96 1.8 l-1.92 1.92 c-0.52 -0.68 -1.42 -1.22 -2.04 -1.22 c-0.32 0 -0.96 0.12 -0.96 0.76 z M43.41947916666666 15.8 c0 0.72 -0.02 1.92 1.08 1.92 c0.54 0 0.88 -0.22 1.26 -0.5 l0 2.44 c-0.46 0.26 -1.02 0.5 -1.62 0.5 c-2.54 0 -3.68 -1.08 -3.68 -4.36 l0 -3.24 l-1.1 0 l0 -2.44 l1.1 0 l0 -2.84 l2.96 0 l0 2.84 l2.34 0 l0 2.44 l-2.34 0 l0 3.24 z M47.64337499999999 15.76 l0 -5.64 l2.96 0 l0 5.64 c0 1.52 0.42 2.16 1.56 2.16 c1.2 0 1.9 -0.64 1.9 -2.16 l0 -5.64 l2.96 0 l0 9.88 l-2.96 0 l0 -0.9 c-0.56 0.7 -1.78 1.06 -2.64 1.06 c-2.78 0 -3.78 -1.32 -3.78 -4.4 z M64.78727083333332 5.82 l0 2.34 c-0.42 -0.38 -1.08 -0.4 -1.26 -0.4 c-1.02 0 -1.08 1.08 -1.08 1.9 l0 0.46 l2.34 0 l0 2.44 l-2.34 0 l0 7.44 l-2.96 0 l0 -7.44 l-1.1 0 l0 -2.44 l1.1 0 l0 -0.46 c0 -3.12 1.16 -4.36 3.68 -4.36 c0.6 0 1.16 0.24 1.62 0.52 z M72.05116666666666 5.82 l0 2.34 c-0.42 -0.38 -1.08 -0.4 -1.26 -0.4 c-1.02 0 -1.08 1.08 -1.08 1.9 l0 0.46 l2.34 0 l0 2.44 l-2.34 0 l0 7.44 l-2.96 0 l0 -7.44 l-1.1 0 l0 -2.44 l1.1 0 l0 -0.46 c0 -3.12 1.16 -4.36 3.68 -4.36 c0.6 0 1.16 0.24 1.62 0.52 z"></path></g></svg>