<svg width="320" height="99.62476882362215" viewBox="0 0 320 99.62476882362215" class="css-1j8o68f"><defs id="SvgjsDefs1163"><linearGradient id="SvgjsLinearGradient1168"><stop id="SvgjsStop1169" stop-color="#00ff8f" offset="0"></stop><stop id="SvgjsStop1170" stop-color="#00a1ff" offset="1"></stop></linearGradient></defs><g id="SvgjsG1164" featurekey="symbolFeature-0" transform="matrix(1.0527033805847168,0,0,1.0527033805847168,-3.158337456833757,-3.158559577707509)" fill="url(#SvgjsLinearGradient1168)"><g xmlns="http://www.w3.org/2000/svg" fill="url(#SvgjsLinearGradient1168)" fill-rule="evenodd"><path d="M93.3139091,93.1095281 L90.2544773,90.0844719 L87.1939659,93.1095281 L84.1334545,90.0844719 L81.0740227,93.1095281 L78.0135114,90.0844719 L74.953,93.1095281 L71.8935682,90.0844719 L68.8330568,93.1095281 L65.773625,90.0844719 L62.7131136,93.1095281 L59.6526023,90.0844719 L56.5920909,93.1095281 L55.1508977,91.6845281 L55.1519773,57.1055955 L57.5097045,57.1055955 L57.5097045,54.970764 L55.1519773,54.970764 L55.1519773,34.8585169 C55.1519773,34.7261573 55.1152727,34.6087416 55.0958409,34.4849213 C55.0483409,29.574809 54.0756705,24.9368876 52.3980568,20.7974494 L53.7161818,20.7974494 L53.7161818,18.662618 L51.4458977,18.662618 C48.8355568,13.2967191 44.9815795,8.93419101 40.3568068,6.20267416 L65.7725455,6.20267416 C75.6795341,6.20267416 84.4368068,11.1437416 89.666125,18.662618 L89.3411818,18.662618 L89.3411818,20.7974494 L91.0123182,20.7974494 C93.3905568,24.9550337 94.7551023,29.7509326 94.7551023,34.8585169 L94.7551023,54.970764 L93.1347045,54.970764 L93.1347045,57.1055955 L94.7551023,57.1055955 L94.7551023,91.6845281 L93.3139091,93.1095281 Z M40.2412955,63.5623933 C45.1888523,60.6739663 49.2857273,55.9485169 51.9133409,50.0958764 L51.9133409,63.5623933 L40.2412955,63.5623933 Z M6.14169318,34.8585169 C6.14169318,19.0308764 16.4189659,6.15464045 29.0518068,6.15464045 C41.6835682,6.15464045 51.9619205,19.0308764 51.9619205,34.8585169 C51.9619205,50.6850899 41.6835682,63.5623933 29.0518068,63.5623933 C16.4189659,63.5623933 6.14169318,50.6850899 6.14169318,34.8585169 L6.14169318,34.8585169 Z M65.7725455,3.00042697 L29.0518068,3.00042697 L29.0518068,3.04739326 L29.0518068,3.04739326 C14.6862955,3.04739326 3.00021591,17.3176742 3.00021591,34.8585169 C3.00021591,52.3982921 14.6862955,66.668573 29.0518068,66.668573 L29.0636818,66.668573 L51.9133409,66.668573 L51.9122614,93.0102584 L56.5920909,97.6375056 L59.6526023,94.6124494 L62.7131136,97.6375056 L65.773625,94.6124494 L68.8330568,97.6375056 L71.8935682,94.6124494 L74.953,97.6375056 L78.0135114,94.6124494 L81.0740227,97.6375056 L84.1334545,94.6124494 L87.1939659,97.6375056 L90.2544773,94.6124494 L93.3139091,97.6375056 L97.9937386,93.0113258 L97.9937386,34.8585169 C97.9937386,17.2920562 83.5397045,3.00042697 65.7725455,3.00042697 L65.7725455,3.00042697 Z"></path><path d="M24.5023864,34.8581966 C24.5023864,31.5438708 26.5438068,28.8475787 29.0515909,28.8475787 C31.5604545,28.8475787 33.6007955,31.5438708 33.6007955,34.8581966 C33.6007955,38.1725225 31.5604545,40.8688146 29.0515909,40.8688146 C26.5438068,40.8688146 24.5023864,38.1725225 24.5023864,34.8581966 M36.7422727,34.8581966 C36.7422727,29.8306685 33.293125,25.7403315 29.0515909,25.7403315 C24.8111364,25.7403315 21.3609091,29.8306685 21.3609091,34.8581966 C21.3609091,39.8857247 24.8111364,43.9760618 29.0515909,43.9760618 C33.293125,43.9760618 36.7422727,39.8857247 36.7422727,34.8581966"></path><polygon points="60.748 57.106 63.987 57.106 63.987 54.971 60.748 54.971"></polygon><polygon points="67.225 57.106 70.464 57.106 70.464 54.971 67.225 54.971"></polygon><polygon points="86.657 57.106 89.896 57.106 89.896 54.971 86.657 54.971"></polygon><polygon points="80.18 57.106 83.419 57.106 83.419 54.971 80.18 54.971"></polygon><polygon points="73.703 57.106 76.941 57.106 76.941 54.971 73.703 54.971"></polygon><polygon points="63.432 20.798 66.671 20.798 66.671 18.663 63.432 18.663"></polygon><polygon points="82.864 20.798 86.102 20.798 86.102 18.663 82.864 18.663"></polygon><polygon points="76.386 20.798 79.625 20.798 79.625 18.663 76.386 18.663"></polygon><polygon points="56.955 20.798 60.193 20.798 60.193 18.663 56.955 18.663"></polygon><polygon points="69.909 20.798 73.148 20.798 73.148 18.663 69.909 18.663"></polygon><polygon points="59.652 40.91 74.953 40.91 74.953 25.781 59.652 25.781"></polygon><polygon points="78.013 28.808 90.254 28.808 90.254 25.782 78.013 25.782"></polygon><polygon points="78.013 34.859 90.254 34.859 90.254 31.834 78.013 31.834"></polygon><polygon points="78.013 40.91 90.254 40.91 90.254 37.885 78.013 37.885"></polygon><polygon points="59.652 49.987 90.254 49.987 90.254 43.936 59.652 43.936"></polygon><polygon points="74.953 77.219 90.253 77.219 90.253 62.091 74.953 62.091"></polygon><polygon points="59.652 65.116 71.893 65.116 71.893 62.091 59.652 62.091"></polygon><polygon points="59.652 71.167 71.893 71.167 71.893 68.142 59.652 68.142"></polygon><polygon points="59.652 77.219 71.893 77.219 71.893 74.194 59.652 74.194"></polygon><polygon points="59.652 86.296 90.254 86.296 90.254 80.245 59.652 80.245"></polygon></g></g><g id="SvgjsG1165" featurekey="nameFeature-0" transform="matrix(1.3167424201965332,0,0,1.3167424201965332,119.27579206516846,16.14786951078146)" fill="#ffffff"><path d="M13.04 25.32 l-4.2 0 l0 3.48 c0 1.92 -0.12 7 -0.04 8.56 c0.04 0.88 0.52 1.24 1.16 1.24 l1.44 0 c0.36 0 0.44 0.08 0.44 0.32 l0 0.8 c0 0.24 -0.08 0.4 -0.28 0.4 c-0.24 0 -1.72 -0.12 -5.6 -0.12 c-2.6 0 -4.64 0.12 -4.96 0.12 c-0.24 0 -0.32 -0.08 -0.32 -0.36 l0 -0.88 c0 -0.2 0.08 -0.28 0.4 -0.28 l1.32 0 c0.76 0 1.08 -0.48 1.08 -1.32 l-0.12 -11.96 l-2.56 0 c-0.2 0 -0.28 -0.08 -0.24 -0.44 l0.2 -1.4 c0.04 -0.24 0.16 -0.28 0.48 -0.28 l2.12 0 l0 -1.2 c0 -4.2 1.32 -6.8 3.36 -8.72 c2.16 -2 4.28 -2.76 6.76 -2.76 c2.36 0 4.12 0.96 4.12 2.8 c0 1.24 -1.28 2 -2.2 2 c-1.28 0 -2.08 -0.48 -2.68 -1.52 c-0.48 -0.8 -1.04 -1.2 -1.44 -1.2 c-0.8 0 -1.36 0.24 -2 1.28 c-0.72 1.12 -0.44 3.96 -0.44 7.64 l0 1.68 l4.64 0 c0.28 0 0.32 0.24 0.28 0.4 l-0.2 1.52 c-0.04 0.16 -0.2 0.2 -0.52 0.2 z M23.200000000000003 29.36 l0 -2.12 c0 -0.8 -0.08 -1.72 -0.6 -2.2 c-0.4 -0.36 -1.04 -0.48 -1.68 -0.48 c-0.72 0 -1.4 0.16 -2.12 0.64 c-0.6 0.4 -0.12 1.08 -0.12 2.36 c0 1.36 -1 2.28 -2.6 2.28 c-0.92 0 -1.72 -0.56 -1.72 -1.44 s0.28 -2.08 1.12 -2.8 c1.68 -1.52 4.44 -2.96 7.68 -2.96 c2.56 0 3.24 0.4 4.08 1.16 c0.88 0.8 1.12 1.96 1.12 3.4 l0.08 7.96 c0.04 2.08 0.16 2.72 0.92 2.72 c0.56 0 1 -0.44 1.16 -0.72 c0.16 -0.24 0.28 -0.28 0.4 -0.2 l0.56 0.32 c0.16 0.08 0.28 0.2 0.12 0.56 c-0.36 0.84 -1.56 2.72 -4.04 2.72 c-1.56 0 -3.04 -0.56 -3.8 -2.44 l-0.2 0 c-1 0.92 -1.84 1.48 -3.44 2.08 c-0.8 0.28 -1.72 0.36 -2.88 0.36 c-1.4 0 -2.64 -1.52 -2.64 -3.68 c0 -1.76 0.84 -3.6 3.44 -4.88 c3.12 -1.48 4.12 -1.92 5.16 -2.64 z M23.240000000000002 36.64 l0 -5.68 c-1.96 1.12 -3.6 1.72 -3.6 4.48 c0 1.84 0.84 2.6 1.72 2.64 c1.08 -0.08 1.88 -1.08 1.88 -1.44 z M34.32 37.64 l0 -20.64 c0 -1.32 -0.16 -2.28 -2.16 -2.88 c-0.4 -0.12 -0.56 -0.28 -0.56 -0.4 l0 -0.72 c0 -0.16 0.12 -0.32 0.52 -0.4 c2.08 -0.36 4.84 -1.24 5.8 -1.56 c0.76 -0.36 1.24 -0.52 1.56 -0.52 s0.4 0.2 0.36 0.68 c-0.16 1.92 -0.16 7.8 -0.2 13.16 l-0.04 5.84 c0.44 0 0.84 -0.16 1.32 -0.6 c1.68 -1.56 3.56 -3.68 3.56 -4.28 c0 -0.48 -0.52 -0.72 -0.92 -0.72 c-0.28 0 -0.32 -0.12 -0.32 -0.36 l0 -0.84 c0 -0.2 0.08 -0.32 0.28 -0.32 c0.24 0 1.68 0.12 4.28 0.12 c2.4 0 3.4 -0.12 3.68 -0.12 c0.16 0 0.24 0.12 0.24 0.36 l0 0.84 c0 0.24 -0.08 0.32 -0.24 0.32 l-0.48 0 c-0.48 0 -1.28 0.24 -2.28 0.68 c-1.24 0.56 -4.28 3.24 -5.12 4.08 c1.48 1.76 6.28 7.76 7.44 8.64 c0.64 0.48 1.68 0.6 2.12 0.6 c0.24 0 0.32 0.08 0.32 0.36 l0 0.8 c0 0.24 -0.08 0.36 -0.36 0.36 c-0.32 0 -1.44 -0.12 -4.72 -0.12 c-2.36 0 -4.04 0.12 -4.36 0.12 c-0.2 0 -0.28 -0.12 -0.28 -0.48 l0 -0.64 c0 -0.2 0.08 -0.32 0.24 -0.32 l0.28 0 c0.32 0 0.4 -0.2 0.4 -0.48 c0 -0.4 -3.12 -4.6 -4.28 -6.12 c-0.32 -0.4 -0.64 -0.48 -0.88 -0.48 l0 5.96 c0 0.76 0.36 1.04 0.76 1.04 l0.76 0 c0.28 0 0.36 0.08 0.36 0.32 l0 0.84 c0 0.24 -0.08 0.36 -0.32 0.36 s-1.56 -0.12 -4.12 -0.12 c-2.8 0 -4.2 0.12 -4.48 0.12 c-0.12 0 -0.2 -0.16 -0.2 -0.4 l0 -0.76 c0 -0.28 0.12 -0.36 0.4 -0.36 l0.76 0 c0.52 0 0.88 -0.44 0.88 -0.96 z M67.8 30.04 l-9.16 0 l0 1.08 c0 4.16 2.36 6.2 5.28 6.2 c1.96 0 3.56 -0.92 4.36 -2.2 c0.08 -0.2 0.24 -0.24 0.4 -0.12 l0.68 0.36 c0.16 0.08 0.28 0.28 -0.08 0.96 c-0.72 1.48 -3.32 4.24 -7.08 4.24 c-2.56 0 -4.68 -0.44 -6 -1.88 c-2.04 -2.2 -2.72 -3.76 -2.76 -6.88 c0 -1.12 0 -3.24 1.8 -5.88 c1.44 -2.12 3.88 -3.28 6.96 -3.28 c6.48 0 6.84 6.2 6.84 6.84 c0 0.52 -0.36 0.56 -1.24 0.56 z M58.68 28.52 l3.84 0 c0.88 0 1.28 -0.2 1.28 -0.8 c0 -1.76 -0.72 -3.48 -1.96 -3.48 c-1.88 0 -2.88 1.48 -3.16 4.28 z M78.24 23.12 l0.44 1.72 l0.32 0 c0.44 -0.52 1.16 -1.04 1.92 -1.44 c0.88 -0.48 1.76 -0.76 3.08 -0.76 c1.56 0 3.08 0.16 4.12 1.12 c1.68 1.56 1.8 2.56 1.8 4.56 l0 4.24 c0 1.36 -0.08 3.24 -0.16 4.64 c-0.04 1.2 0.6 1.4 0.96 1.4 l1.08 0 c0.36 0 0.44 0.12 0.44 0.36 l0 0.72 c0 0.28 -0.08 0.44 -0.32 0.44 c-0.28 0 -1.52 -0.12 -4.72 -0.12 c-2.64 0 -3.92 0.12 -4.2 0.12 c-0.24 0 -0.32 -0.12 -0.32 -0.44 l0 -0.72 c0 -0.28 0.12 -0.36 0.52 -0.36 l0.44 0 c0.28 0 0.64 -0.2 0.72 -0.92 c0.16 -1.04 0.24 -2.32 0.24 -4.16 l0 -4.28 c0 -1.52 -0.12 -2.56 -0.96 -3.32 c-0.72 -0.64 -1.28 -0.72 -1.96 -0.72 c-0.72 0 -1.24 0.2 -2.04 0.8 c-0.48 0.36 -0.8 1.44 -0.8 3.08 l-0.08 8.2 c0 0.72 0.28 1.32 0.64 1.32 l0.52 0 c0.32 0 0.4 0.12 0.4 0.4 l0 0.76 c0 0.24 -0.08 0.36 -0.28 0.36 c-0.28 0 -1.36 -0.12 -4 -0.12 c-2.84 0 -4.12 0.12 -4.36 0.12 c-0.2 0 -0.28 -0.12 -0.28 -0.36 l0 -0.8 c0 -0.24 0.08 -0.36 0.4 -0.36 l0.6 0 c0.44 0 1.12 -0.12 1.12 -0.8 l0 -8.88 c0 -1.2 -0.68 -1.88 -1.6 -2.32 l-0.36 -0.16 c-0.24 -0.12 -0.28 -0.28 -0.28 -0.44 l0 -0.36 c0 -0.2 0.16 -0.32 0.36 -0.4 l5.12 -2.32 c0.32 -0.12 0.6 -0.28 0.92 -0.28 c0.24 0 0.48 0.2 0.56 0.48 z M108.44 30.04 l-9.16 0 l0 1.08 c0 4.16 2.36 6.2 5.28 6.2 c1.96 0 3.56 -0.92 4.36 -2.2 c0.08 -0.2 0.24 -0.24 0.4 -0.12 l0.68 0.36 c0.16 0.08 0.28 0.28 -0.08 0.96 c-0.72 1.48 -3.32 4.24 -7.08 4.24 c-2.56 0 -4.68 -0.44 -6 -1.88 c-2.04 -2.2 -2.72 -3.76 -2.76 -6.88 c0 -1.12 0 -3.24 1.8 -5.88 c1.44 -2.12 3.88 -3.28 6.96 -3.28 c6.48 0 6.84 6.2 6.84 6.84 c0 0.52 -0.36 0.56 -1.24 0.56 z M99.32 28.52 l3.84 0 c0.88 0 1.28 -0.2 1.28 -0.8 c0 -1.76 -0.72 -3.48 -1.96 -3.48 c-1.88 0 -2.88 1.48 -3.16 4.28 z M110.19999999999999 24.240000000000002 l0 -0.84 c0 -0.2 0.04 -0.32 0.24 -0.32 c0.56 0 1.36 0.12 4.76 0.12 c2 0 2.96 -0.12 3.56 -0.12 c0.24 0 0.32 0.08 0.32 0.32 l0 0.88 c0 0.2 -0.04 0.32 -0.32 0.32 l-0.52 0 c-0.36 0 -0.52 0.36 -0.36 0.92 l2.72 8.28 l0.24 0 l2.44 -6.24 c0.2 -0.56 0.04 -1.84 -0.36 -2.36 c-0.24 -0.32 -0.68 -0.36 -1.04 -0.36 l-0.28 0 c-0.24 0 -0.32 -0.12 -0.32 -0.32 l0 -0.88 c0 -0.24 0.12 -0.32 0.36 -0.32 c0.32 0 1.6 0.12 4.12 0.12 c2.32 0 3.2 -0.12 3.52 -0.12 c0.28 0 0.36 0.08 0.36 0.24 l0 0.88 c0 0.2 -0.04 0.4 -0.24 0.4 l-0.56 0 c-0.32 0 -0.68 0.4 -0.52 0.88 l2.84 7.88 l0.16 0 l2.16 -6.08 c0.76 -2.08 0.2 -2.92 -0.88 -2.92 l-0.56 0 c-0.2 0 -0.24 -0.12 -0.24 -0.32 l0 -0.92 c0 -0.2 0.12 -0.28 0.28 -0.28 c0.24 0 1.44 0.12 3.68 0.12 c1.72 0 2.44 -0.12 2.92 -0.12 c0.2 0 0.28 0.12 0.28 0.36 l0 0.84 c0 0.2 -0.08 0.32 -0.28 0.32 l-0.4 0 c-0.64 0 -1.36 0.24 -1.64 0.84 c-0.32 0.68 -5.52 13.24 -6.16 14.64 c-0.2 0.44 -0.6 0.52 -0.92 0.52 c-0.44 0 -0.6 -0.28 -0.88 -0.96 l-4.04 -10.28 l-0.24 0 l-4.48 10.6 c-0.2 0.44 -0.56 0.64 -0.96 0.64 s-0.6 -0.32 -0.8 -0.8 l-5.8 -14.12 c-0.32 -0.8 -0.92 -1.08 -1.4 -1.08 l-0.48 0 c-0.24 0 -0.28 -0.12 -0.28 -0.36 z M151.32 24.240000000000002 l0.56 2.96 c0.04 0.2 0 0.28 -0.16 0.36 l-0.72 0.32 c-0.12 0.08 -0.24 0.04 -0.4 -0.12 l-2.24 -2.4 c-0.52 -0.52 -1.28 -1.16 -2.48 -1.16 s-2.36 0.8 -2.36 2.16 c0.08 1.4 0.56 1.8 3.52 2.6 c1.96 0.52 2.92 0.8 4.12 2.08 c1.04 1.04 1.28 2 1.28 3.4 c0 3.56 -2.8 6.12 -7.16 6.12 c-2.24 0 -4.2 -0.8 -4.68 -1.16 c-0.16 -0.12 -0.2 -0.28 -0.24 -0.52 l-0.52 -3.84 c0 -0.2 0.12 -0.28 0.28 -0.32 l0.72 -0.2 c0.12 -0.04 0.2 0 0.28 0.16 l1.6 2.36 c0.72 1.04 1.64 2.04 3.48 2.04 c1.48 0 2.36 -1.04 2.36 -2.44 c0 -1.6 -1.16 -2.12 -3.76 -2.92 c-2.84 -0.84 -4.88 -2.2 -4.88 -5.08 c0 -1.88 0.56 -3.44 2.08 -4.56 c1.6 -1.16 2.72 -1.44 4.4 -1.44 c2.16 0 3.48 0.48 4.2 0.84 c0.6 0.28 0.68 0.48 0.72 0.76 z"></path></g></svg>