<svg width="320" height="148.37922100121082" viewBox="0 0 320 148.37922100121082" class="css-1j8o68f"><defs id="SvgjsDefs1672"></defs><g id="SvgjsG1673" featurekey="symbolFeature-0" transform="matrix(0.5933380126953125,0,0,0.5933380126953125,0,0.0002054039969558109)" fill="#98f262"><path xmlns="http://www.w3.org/2000/svg" d="M126.795,249.872l-5.068-6.189l26.459-21.67l3.933-0.654c2.383,0.891,4.517,0.809,6.008-0.227  c1.556-1.08,2.412-3.164,2.412-5.869v-145c0-6.626-5.137-14.141-11.217-16.408l-0.146-0.059L39.823,8.012  c-8.66-0.255-17.459,3.097-23.702,9.031C10.884,22.02,8,28.378,8,34.947v4H0v-4c0-8.783,3.768-17.201,10.609-23.703  C18.576,3.673,29.911-0.513,40.907,0.05l1.342,0.305l109.947,46.033c9.17,3.467,16.342,13.936,16.342,23.875v145  c0,5.326-2.132,9.859-5.85,12.441c-3.078,2.135-7.019,2.771-11.074,1.84L126.795,249.872z"></path><path xmlns="http://www.w3.org/2000/svg" d="M1.038,38.491v145c0,8.08,6.053,16.912,13.493,19.688l105.042,46.072c1.457,0.543,2.91,0.824,4.293,0.824  c5.277,0,8.823-4.104,8.823-10.209v-145c0-8.08-6.053-16.912-13.492-19.688l-9.267-4.064c-1.756,1.523-4.893,5.444-4.893,14.093v56  l-18-25.25l-13.25,11.25c0,0-0.169-34.875-0.044-50.25c-0.037-10.146,1.992-16.831,5.298-19.391L14.155,29.104  c-1.457-0.543-2.91-0.823-4.293-0.823C4.584,28.281,1.038,32.384,1.038,38.491z"></path><path xmlns="http://www.w3.org/2000/svg" d="M4.475,29.498C2.76,30.81,1.495,32.787,0.91,35.272C1.715,33.491,3.003,31.483,4.475,29.498z"></path></g><g id="SvgjsG1674" featurekey="nameFeature-0" transform="matrix(1.749475121498108,0,0,1.749475121498108,119.99999958289261,22.125964427347267)" fill="#ffffff"><path d="M5.28 17.36 c2.84 0 5.16 2.28 5.16 5.12 l0 17.48 l-3.8 0 l0 -17.48 c0 -0.72 -0.6 -1.36 -1.36 -1.36 l-1.48 0 l0 18.84 l-3.8 0 l0 -28.52 l3.8 0 l0 5.92 l1.48 0 z M22.36 32.76 l0 7.2 l-3.68 0 l0 -0.12 c-0.36 0.08 -0.72 0.12 -1.12 0.12 c-2.8 0 -5.04 -2.24 -5.04 -5.04 l0 -4.28 c0 -1.12 0.44 -2.16 1.24 -2.96 c0.76 -0.76 1.8 -1.2 2.92 -1.2 l1.92 0 l0 -4.32 c0 -0.6 -0.52 -1.12 -1.12 -1.12 l-0.2 0 c-0.64 0 -1.12 0.52 -1.12 1.12 l0 3.04 l-3.72 0 l0 -3.04 c0 -2.68 2.16 -4.84 4.84 -4.84 l0.2 0 c2.68 0 4.84 2.16 4.84 4.84 z M17.56 36.24 c0.6 0 1.12 -0.48 1.12 -1.08 l-0.04 -4.92 l-1.96 -0.04 c-0.16 0 -0.24 0.08 -0.32 0.12 c-0.04 0.08 -0.12 0.16 -0.12 0.32 l0 4.28 c0 0.72 0.6 1.32 1.32 1.32 z M35.12 11.440000000000001 l0 28.6 l-5.96 0 c-2.64 0 -4.8 -2.12 -4.8 -4.8 l0 -13.08 c0 -2.64 2.16 -4.8 4.8 -4.8 l2.12 0 l0 -5.92 l3.84 0 z M31.28 21.16 l-2.12 0 c-0.56 0 -1 0.44 -1 1 l0 13.08 c0 0.56 0.44 1 1 1 l2.12 0 l0 -15.08 z M40.919999999999995 39.88 c0.04 -6.28 0.04 -16.32 0 -22.52 l-3.8 0.04 c0.04 6.16 0.04 16.16 0 22.44 z M37.12 12.600000000000001 l3.8 0 l0 3.72 l-3.8 0 l0 -3.72 z M51.63999999999999 21.2 l-2.72 0 l0 12.76 c0 1.2 1 2.16 2.2 2.16 l0 3.84 c-3.32 0 -6 -2.68 -6 -6 l0 -12.76 l-2.72 0 l0 -3.84 l2.72 0 l0 -6 l3.8 0 l0 6 l2.72 0 l0 3.84 z M58.48 17.36 c2.84 0 5.16 2.28 5.16 5.12 l0 17.48 l-3.8 0 l0 -17.48 c0 -0.72 -0.6 -1.36 -1.36 -1.36 l-1.48 0 l0 18.84 l-3.8 0 l0 -28.52 l3.8 0 l0 5.92 l1.48 0 z M69 40 l-3.36 0 l0 -3.68 l3.36 0 l0 3.68 z M71.56 47.8 c-3.12 0 -5.68 -2.56 -5.68 -5.68 l3.8 0 c0 1 0.84 1.84 1.88 1.84 s1.88 -0.84 1.88 -1.84 l0 -24.8 l3.8 0 l0 24.8 c0 3.12 -2.56 5.68 -5.68 5.68 z M84.6 39.96 c-2.96 0 -5.36 -2.4 -5.36 -5.36 l0 -3.12 l3.8 0 l0 3.12 c0 0.88 0.72 1.56 1.56 1.56 c0.88 0 1.56 -0.68 1.56 -1.56 l0 -1.72 l-6.92 -7.16 l0 -3.16 c0 -2.96 2.4 -5.4 5.36 -5.4 s5.36 2.44 5.36 5.4 l0 2.48 l-3.8 0 l0 -2.48 c0 -0.88 -0.68 -1.56 -1.56 -1.56 c-0.84 0 -1.56 0.68 -1.56 1.56 l0 1.6 l6.92 7.2 l0 3.24 c0 2.96 -2.4 5.36 -5.36 5.36 z M97.36 40.04 c-3 0 -5.4 -2.44 -5.4 -5.4 l0 -11.88 c0 -2.96 2.4 -5.4 5.4 -5.4 c2.96 0 5.36 2.44 5.36 5.4 l0 11.88 c0 2.96 -2.4 5.4 -5.36 5.4 z M97.36 21.2 c-0.88 0 -1.56 0.72 -1.56 1.56 l0 11.88 c0 0.88 0.68 1.56 1.56 1.56 c0.84 0 1.56 -0.68 1.56 -1.56 l0 -11.88 c0 -0.84 -0.72 -1.56 -1.56 -1.56 z M109.52 17.36 c2.64 0 4.8 2.16 4.8 4.8 l0 18 l-3.84 0 l0 -18 c0 -0.52 -0.44 -0.96 -0.96 -0.96 s-0.96 0.44 -0.96 0.96 l0 18 l-3.84 0 l0 -23.52 l3.84 0 l0 0.84 c0.32 -0.08 0.64 -0.12 0.96 -0.12 z"></path></g></svg>