<svg width="491.24999999999994" height="127.72025169250769" viewBox="0 0 200 51.998066846822475" class="css-1j8o68f"><defs id="SvgjsDefs4372"><linearGradient id="SvgjsLinearGradient4377"><stop id="SvgjsStop4378" stop-color="#6d7cff" offset="0"></stop><stop id="SvgjsStop4379" stop-color="#ff51ff" offset="1"></stop></linearGradient></defs><g id="SvgjsG4373" featurekey="2ou6gm-0" transform="matrix(1.1195701360702515,0,0,1.1195701360702515,-12.989253545849401,-2.060009176927315)" fill="url(#SvgjsLinearGradient4377)"><g xmlns="http://www.w3.org/2000/svg"><g><path fill="url(#SvgjsLinearGradient4377)" d="M25.183,32.057L38.398,1.922L31.615,1.84l-2.666,6.191c0.984,1.143,1.584,2.623,1.584,4.248    c0,3.492-2.754,6.334-6.211,6.486L11.602,48.16l6.657-0.041l2.251-5.217c-1.042-1.154-1.683-2.676-1.683-4.354    C18.828,35.006,21.662,32.133,25.183,32.057z"></path></g><g><circle fill-rule="evenodd" clip-rule="evenodd" fill="url(#SvgjsLinearGradient4377)" cx="23.012" cy="11.713" r="5.293"></circle></g><g><circle fill-rule="evenodd" clip-rule="evenodd" fill="url(#SvgjsLinearGradient4377)" cx="26.37" cy="39.15" r="5.292"></circle></g></g></g><g id="SvgjsG4374" featurekey="kZnDdN-0" transform="matrix(3.6109769344329834,0,0,3.6109769344329834,45.66682876717612,-20.94367050055636)" fill="#ffffff"><path d="M9.98 6 l1.66 0 l0 14 l-1.66 0 l0 -6.12 l-7.12 0 l0 6.12 l-1.66 0 l0 -14 l1.66 0 l0 6.32 l7.12 0 l0 -6.32 z M25.36 20 l-1.44 -3.3 l-7.48 0 l-1.44 3.3 l-1.76 0 l6.24 -14 l1.38 0 l6.26 14 l-1.76 0 z M17.06 15.3 l6.24 0 l-3.12 -7.12 z M42.74 13 c0 2.18 -0.94 4.02 -2.34 5.3 l1.38 1.7 l-1.96 0 l-0.64 -0.8 c-1.1 0.64 -2.34 1 -3.6 1 c-3.66 0 -7.16 -2.96 -7.16 -7.2 s3.5 -7.2 7.16 -7.2 c3.64 0 7.16 2.96 7.16 7.2 z M35.58 18.62 c0.9 0 1.78 -0.24 2.56 -0.7 l-3.08 -3.82 l1.96 0 l2.34 2.9 c1 -0.98 1.66 -2.38 1.66 -4 c0 -3.3 -2.7 -5.62 -5.44 -5.62 c-2.76 0 -5.44 2.32 -5.44 5.62 s2.68 5.62 5.44 5.62 z"></path></g></svg>