<svg width="323.3962608103962" height="80" viewBox="0 0 323.3962608103962 80" class="css-1j8o68f"><defs id="SvgjsDefs1001"></defs><g id="SvgjsG1007" featurekey="nRdZyp-0" transform="matrix(0.8511146903038025,0,0,0.8511146903038025,-21.686398217147488,-2.5581248490263664)" fill="#000000"><defs xmlns="http://www.w3.org/2000/svg"></defs><title xmlns="http://www.w3.org/2000/svg">Spying</title><path xmlns="http://www.w3.org/2000/svg" class="cls-1" d="M74.53,20.84a25.78,25.78,0,0,0-49.05,0C31.67,16.62,40.36,12.3,50,12.3S68.33,16.62,74.53,20.84Z" style="fill: #000000;"></path><path xmlns="http://www.w3.org/2000/svg" class="cls-1" d="M74.52,36.72c-6.2,4.22-14.89,8.54-24.52,8.54s-18.32-4.32-24.52-8.54A25.84,25.84,0,0,0,36.77,50.9L26.78,97H73.22l-10-46.1A25.84,25.84,0,0,0,74.52,36.72Z" style="fill: #000000;"></path><path xmlns="http://www.w3.org/2000/svg" class="cls-1" d="M53.87,17.94A12.43,12.43,0,0,0,50,17.32a11.83,11.83,0,0,0-12,11.6,12.06,12.06,0,0,0,24.1,0,11.18,11.18,0,0,0-.65-3.73,5.6,5.6,0,0,1-4.93,2.86,5.47,5.47,0,0,1-5.57-5.37A5.34,5.34,0,0,1,53.87,17.94Z" style="fill: #000000;"></path></g><g id="SvgjsG1008" featurekey="Q4qmbg-0" transform="matrix(4.388298034667969,0,0,4.388298034667969,63.31383015453519,-15.468084661169474)" fill="#000000"><path d="M3.82 5.119999999999999 l0 14.88 l-2.98 0 l0 -14.88 l2.98 0 z M8.583895833333333 10.12 l0 9.88 l-2.96 0 l0 -9.88 l2.96 0 z M8.663895833333333 7.279999999999999 c0 0.84 -0.68 1.5 -1.58 1.5 c-0.86 0 -1.56 -0.66 -1.56 -1.5 c0 -0.82 0.7 -1.46 1.56 -1.46 c0.9 0 1.58 0.64 1.58 1.46 z M15.527791666666666 9.98 c2.9 0 4.82 2.18 4.82 5.1 s-2.12 5.08 -5.02 5.08 c-0.64 0 -1.72 -0.36 -2.04 -0.82 l0 0.66 l-2.96 0 l0 -14.52 l2.96 0 l0 5.34 c0.34 -0.5 1.62 -0.84 2.24 -0.84 z M15.127791666666665 17.92 c1.24 0 2.26 -1.28 2.26 -2.84 c0 -1.58 -1.02 -2.86 -2.26 -2.86 c-1.36 0 -2.24 1.54 -2.24 2.86 s0.9 2.84 2.24 2.84 z M24.351687499999997 13.24 c0 1.18 5 0.62 5 3.74 c0 2.04 -1.8 3.18 -4.04 3.18 c-1.42 0 -2.84 -0.7 -3.96 -1.82 l1.94 -1.94 c0.56 0.68 1.36 1.2 2.02 1.26 s1.22 -0.22 1.32 -0.52 c0.24 -0.76 -1.14 -0.8 -1.56 -0.92 c-1.58 -0.48 -3.42 -1.14 -3.42 -3.1 c0 -2.34 2.44 -3.14 3.66 -3.14 c1.4 0 2.82 0.64 3.96 1.8 l-1.92 1.92 c-0.52 -0.68 -1.42 -1.22 -2.04 -1.22 c-0.32 0 -0.96 0.12 -0.96 0.76 z M39.83558333333333 14.36 l0 5.64 l-2.96 0 l0 -5.64 c0 -1.5 -0.4 -2.16 -1.56 -2.16 c-1.2 0 -1.9 0.66 -1.9 2.16 l0 5.64 l-2.96 0 l0 -9.88 l2.96 0 l0 0.94 c0.76 -0.74 1.8 -1.08 2.66 -1.08 c2.78 0 3.76 1.34 3.76 4.38 z M44.339479166666656 10.12 l0 9.88 l-2.96 0 l0 -9.88 l2.96 0 z M44.419479166666655 7.279999999999999 c0 0.84 -0.68 1.5 -1.58 1.5 c-0.86 0 -1.56 -0.66 -1.56 -1.5 c0 -0.82 0.7 -1.46 1.56 -1.46 c0.9 0 1.58 0.64 1.58 1.46 z M52.00337499999999 5.82 l0 2.34 c-0.42 -0.38 -1.08 -0.4 -1.26 -0.4 c-1.02 0 -1.08 1.08 -1.08 1.9 l0 0.46 l2.34 0 l0 2.44 l-2.34 0 l0 7.44 l-2.96 0 l0 -7.44 l-1.1 0 l0 -2.44 l1.1 0 l0 -0.46 c0 -3.12 1.16 -4.36 3.68 -4.36 c0.6 0 1.16 0.24 1.62 0.52 z M59.26727083333333 5.82 l0 2.34 c-0.42 -0.38 -1.08 -0.4 -1.26 -0.4 c-1.02 0 -1.08 1.08 -1.08 1.9 l0 0.46 l2.34 0 l0 2.44 l-2.34 0 l0 7.44 l-2.96 0 l0 -7.44 l-1.1 0 l0 -2.44 l1.1 0 l0 -0.46 c0 -3.12 1.16 -4.36 3.68 -4.36 c0.6 0 1.16 0.24 1.62 0.52 z"></path></g></svg>