<svg width="458.4666534423828" height="114.01477540596392" viewBox="0 0 410.15384615384613 102" class="css-1j8o68f"><defs id="SvgjsDefs2581"><linearGradient id="SvgjsLinearGradient2588"><stop id="SvgjsStop2589" stop-color="#7d141d" offset="0"></stop><stop id="SvgjsStop2590" stop-color="#ff1e27" offset="1"></stop></linearGradient></defs><g id="SvgjsG2582" featurekey="symbolContainer" transform="matrix(1,0,0,1,0,0)" fill="url(#SvgjsLinearGradient2588)"><rect xmlns="http://www.w3.org/2000/svg" width="94" height="102" rx="10" ry="10"></rect></g><g id="SvgjsG2583" featurekey="uHI19F-0" transform="matrix(1.132858157157898,0,0,1.132858157157898,-9.252764485873875,-4.922878627468421)" fill="#f8f3d4"><g xmlns="http://www.w3.org/2000/svg"><path fill="#f8f3d4" d="M49.73,76.959c-0.336,0-0.649-0.168-0.834-0.448L31.525,50.237c-0.261-0.395-0.21-0.918,0.123-1.254   l8.468-8.577c0.188-0.19,0.444-0.297,0.711-0.297h17.48c0.261,0,0.512,0.102,0.698,0.284l8.794,8.577   c0.344,0.335,0.4,0.867,0.136,1.268L50.564,76.511C50.379,76.791,50.066,76.959,49.73,76.959z M33.641,49.811L49.73,74.146   l16.081-24.322L57.9,42.108H41.246L33.641,49.811z"></path></g><g xmlns="http://www.w3.org/2000/svg"><rect x="32.359" y="49.185" fill="#f8f3d4" width="34.742" height="1"></rect></g><g xmlns="http://www.w3.org/2000/svg"><polygon fill="#f8f3d4" points="55.822,50.811 49.671,41.976 43.367,50.789 40.351,41.259 41.304,40.958 43.717,48.581    49.682,40.241 55.473,48.56 57.83,40.96 58.785,41.256  "></polygon></g><g xmlns="http://www.w3.org/2000/svg"><rect x="33.055" y="62.096" transform="matrix(-0.2262 -0.9741 0.9741 -0.2262 -3.9276 122.0718)" fill="#f8f3d4" width="26.935" height="1"></rect></g><g xmlns="http://www.w3.org/2000/svg"><rect x="52.19" y="49.358" transform="matrix(-0.9758 -0.2188 0.2188 -0.9758 90.3575 135.6553)" fill="#f8f3d4" width="1" height="26.934"></rect></g><g xmlns="http://www.w3.org/2000/svg"><rect x="69.066" y="36.247" transform="matrix(-0.7071 -0.7071 0.7071 -0.7071 89.693 119.3571)" fill="#f8f3d4" width="1" height="9.711"></rect></g><g xmlns="http://www.w3.org/2000/svg"><rect x="24.768" y="40.6" transform="matrix(-0.7127 -0.7015 0.7015 -0.7127 21.9607 91.1954)" fill="#f8f3d4" width="9.776" height="1"></rect></g><g xmlns="http://www.w3.org/2000/svg"><path fill="#f8f3d4" stroke="#f8f3d4" stroke-miterlimit="10" d="M33.138,44.474"></path></g><g xmlns="http://www.w3.org/2000/svg"><rect x="33.592" y="31.747" transform="matrix(-0.3883 -0.9215 0.9215 -0.3883 23.6952 81.2229)" fill="#f8f3d4" width="10.426" height="2"></rect></g><g xmlns="http://www.w3.org/2000/svg"><rect x="59.4" y="27.507" transform="matrix(-0.9168 -0.3993 0.3993 -0.9168 102.6997 86.8865)" fill="#f8f3d4" width="2" height="10.479"></rect></g><g xmlns="http://www.w3.org/2000/svg"><rect x="49.176" y="22" fill="#f8f3d4" width="1" height="13.788"></rect></g></g><g id="SvgjsG2584" featurekey="8FbbNb-0" transform="matrix(2.817828893661499,0,0,2.817828893661499,110.1677528419479,7.6565938916021)" fill="#111111"><path d="M6.12 10.28 c1.3733 0 2.36 0.58666 2.96 1.76 c0.30666 -0.56 0.72666 -0.99334 1.26 -1.3 s1.1133 -0.46 1.74 -0.46 c2.3866 0 3.5866 1.3733 3.6 4.12 l0 5.6 l-1.8 0 l0 -5.38 c0 -0.93334 -0.16666 -1.61 -0.5 -2.03 s-0.84668 -0.63 -1.54 -0.63 c-0.81334 0 -1.42 0.24666 -1.82 0.74 s-0.6 1.1733 -0.6 2.04 l0 5.26 l-1.8 0 l0 -5.1 c0 -1.12 -0.16 -1.89 -0.48 -2.31 s-0.82666 -0.63 -1.52 -0.63 c-0.74666 0 -1.3433 0.28666 -1.79 0.86 s-0.67 1.3 -0.67 2.18 l0 5 l-1.8 0 l0 -9.48 l1.68 0 l0 1.48 l0.04 0 c0.2 -0.46666 0.59666 -0.87 1.19 -1.21 s1.21 -0.51 1.85 -0.51 z M22.98 10.28 c1.4 0 2.5866 0.48338 3.56 1.45 s1.4667 2.1434 1.48 3.53 c0 1.4 -0.48666 2.5734 -1.46 3.52 s-2.1666 1.4333 -3.58 1.46 c-1.3867 0 -2.5666 -0.48 -3.54 -1.44 s-1.4733 -2.14 -1.5 -3.54 c0 -1.3733 0.48334 -2.54 1.45 -3.5 s2.1634 -1.4533 3.59 -1.48 z M19.86 15.26 c0 0.97334 0.28664 1.7633 0.85998 2.37 s1.3267 0.91666 2.26 0.93 c0.94666 0 1.7 -0.30334 2.26 -0.91 s0.84666 -1.4033 0.86 -2.39 c0 -0.97334 -0.28 -1.7633 -0.84 -2.37 s-1.3267 -0.91666 -2.3 -0.93 c-0.94666 0 -1.7 0.31334 -2.26 0.94 s-0.84 1.4133 -0.84 2.36 z M34.96 10.28 c0.33334 0 0.6 0.04 0.8 0.12 l-0.08 1.94 c-0.34666 -0.09334 -0.64666 -0.14 -0.9 -0.14 c-1.7733 0 -2.6734 0.98666 -2.7 2.96 l0 4.84 l-1.8 0 l0 -9.48 l1.8 0 l0 1.46 l0.04 0 c0.24 -0.50666 0.62666 -0.91666 1.16 -1.23 s1.0933 -0.47 1.68 -0.47 z M41.660000000000004 10.28 c1.4533 0 2.5834 0.45664 3.39 1.37 s1.2167 2.17 1.23 3.77 l0 0.5 l-7.6 0 c0 0.77334 0.31 1.4233 0.93 1.95 s1.3767 0.79666 2.27 0.81 c0.98666 0 1.8533 -0.47334 2.6 -1.42 l1.36 1.04 c-1.0133 1.2933 -2.4134 1.94 -4.2 1.94 c-1.4533 0 -2.6234 -0.46334 -3.51 -1.39 s-1.3433 -2.1234 -1.37 -3.59 c0 -1.4133 0.45666 -2.59 1.37 -3.53 s2.09 -1.4233 3.53 -1.45 z M44.36 14.48 c-0.02666 -0.89334 -0.28 -1.5767 -0.76 -2.05 s-1.14 -0.71 -1.98 -0.71 c-0.56 0 -1.0633 0.13666 -1.51 0.41 s-0.79666 0.62668 -1.05 1.06 s-0.38 0.86334 -0.38 1.29 l5.68 0 z M49.379999999999995 10.52 l2.84 7.26 l2.72 -7.26 l1.92 0 l-3.72 9.48 l-1.98 0 l-3.86 -9.48 l2.08 0 z M62.78 10.28 c1.4533 0 2.5834 0.45664 3.39 1.37 s1.2167 2.17 1.23 3.77 l0 0.5 l-7.6 0 c0 0.77334 0.31 1.4233 0.93 1.95 s1.3767 0.79666 2.27 0.81 c0.98666 0 1.8533 -0.47334 2.6 -1.42 l1.36 1.04 c-1.0133 1.2933 -2.4134 1.94 -4.2 1.94 c-1.4533 0 -2.6234 -0.46334 -3.51 -1.39 s-1.3433 -2.1234 -1.37 -3.59 c0 -1.4133 0.45666 -2.59 1.37 -3.53 s2.09 -1.4233 3.53 -1.45 z M65.48 14.48 c-0.02666 -0.89334 -0.28 -1.5767 -0.76 -2.05 s-1.14 -0.71 -1.98 -0.71 c-0.56 0 -1.0633 0.13666 -1.51 0.41 s-0.79666 0.62668 -1.05 1.06 s-0.38 0.86334 -0.38 1.29 l5.68 0 z M74.24000000000001 10.28 c0.33334 0 0.6 0.04 0.8 0.12 l-0.08 1.94 c-0.34666 -0.09334 -0.64666 -0.14 -0.9 -0.14 c-1.7733 0 -2.6734 0.98666 -2.7 2.96 l0 4.84 l-1.8 0 l0 -9.48 l1.8 0 l0 1.46 l0.04 0 c0.24 -0.50666 0.62666 -0.91666 1.16 -1.23 s1.0933 -0.47 1.68 -0.47 z M80.16000000000001 10.28 c0.72 0 1.3633 0.13338 1.93 0.40004 s1.0033 0.65332 1.31 1.16 l-1.4 1.06 c-0.53334 -0.62666 -1.18 -0.94 -1.94 -0.94 c-0.45334 0 -0.83 0.1 -1.13 0.3 s-0.45 0.45334 -0.45 0.76 c0 0.66666 0.62 1.12 1.86 1.36 c1.2133 0.22666 2.07 0.56 2.57 1 s0.75 1.0667 0.75 1.88 c0 0.92 -0.35 1.6433 -1.05 2.17 s-1.6367 0.79666 -2.81 0.81 c-0.88 0 -1.6033 -0.13666 -2.17 -0.41 s-1.0567 -0.69668 -1.47 -1.27 l1.36 -1.12 c0.72 0.74666 1.4867 1.12 2.3 1.12 c0.53334 0 0.98668 -0.10666 1.36 -0.32 s0.56 -0.50668 0.56 -0.88002 c0 -0.65334 -0.6 -1.1067 -1.8 -1.36 c-1.3333 -0.26666 -2.23 -0.62332 -2.69 -1.07 s-0.69 -1.0233 -0.69 -1.73 c0 -0.88 0.34 -1.5833 1.02 -2.11 s1.54 -0.79666 2.58 -0.81 z M86.88000000000001 5.800000000000001 c0.36 0 0.67002 0.13002 0.93002 0.39002 s0.39 0.57 0.39 0.93 c0 0.37334 -0.13334 0.68668 -0.4 0.94002 s-0.57332 0.38 -0.91998 0.38 c-0.37334 0 -0.68668 -0.12666 -0.94002 -0.38 s-0.38 -0.56668 -0.38 -0.94002 s0.13334 -0.68668 0.4 -0.94002 s0.57332 -0.38 0.91998 -0.38 z M87.78 10.52 l0 9.48 l-1.8 0 l0 -9.48 l1.8 0 z M93.14 7.859999999999999 l-0.000019531 2.66 l2.58 0 l0 1.56 l-2.58 0 l0 4.56 c0 0.61334 0.08666 1.0867 0.26 1.42 s0.54 0.5 1.1 0.5 c0.53334 0 0.96 -0.09334 1.28 -0.28 l0 1.64 c-0.34666 0.18666 -0.89332 0.29332 -1.64 0.31998 c-0.72 0 -1.2767 -0.11 -1.67 -0.33 s-0.68 -0.52666 -0.86 -0.92 s-0.27 -1.01 -0.27 -1.85 l0 -5.06 l-2.08 0 l0 -1.56 l2.08 0 l0 -2.66 l1.8 0 z M98.98 10.52 l2.82 7.4 l0.04 0 l2.68 -7.4 l1.94 0 l-4.48 11.48 c-0.41334 1.1067 -0.86668 1.85 -1.36 2.23 s-1.1267 0.57 -1.9 0.57 c-0.65334 0 -1.1867 -0.08666 -1.6 -0.26 l0.22 -1.62 c0.37334 0.13334 0.73334 0.2 1.08 0.2 c0.56 0 0.96334 -0.13666 1.21 -0.41 s0.46332 -0.66334 0.64998 -1.17 l0.56 -1.48 l-3.94 -9.54 l2.08 0 z"></path></g></svg>