<svg width="318.94857025146484" height="64.80000000000001" viewBox="0 0 318.94857025146484 64.80000000000001" class="css-1j8o68f"><defs id="SvgjsDefs1499"></defs><g id="SvgjsG1500" featurekey="symbolFeature-0" transform="matrix(0.7128711938858032,0,0,0.7128711938858032,-9.908910300990916,-3.2792075225318915)" fill="#cdf27e"><path xmlns="http://www.w3.org/2000/svg" d="M57.1,4.6H23.7c-5.4,0-9.8,4.4-9.8,9.8v71.3c0,5.4,4.4,9.8,9.8,9.8h33.4c5.4,0,9.8-4.4,9.8-9.8V75.3  c-0.8,0.1-1.7,0.1-2.6,0.1c-0.9,0-1.7,0-2.6-0.1v4.4c0,1.4-1.1,2.5-2.5,2.5H21.6c-1.4,0-2.5-1.1-2.5-2.5V20.4c0-1.4,1.1-2.5,2.5-2.5  h37.5c1.4,0,2.5,1.1,2.5,2.5v0.4h0v1.9c0.9-0.1,1.7-0.1,2.6-0.1c0.9,0,1.7,0,2.6,0.1v-8.4C66.8,9,62.4,4.6,57.1,4.6z M35.2,86.2h9.4  c1.4,0,2.5,1.1,2.5,2.5c0,1.4-1.1,2.5-2.5,2.5h-9.4c-1.4,0-2.5-1.1-2.5-2.5C32.6,87.4,33.8,86.2,35.2,86.2z M64.1,27.1  c-12.1,0-22,9.8-22,22c0,5.7,2.2,10.9,5.8,14.8c-0.8,1.7-2.2,3.7-4.3,4.8c-0.7,0.4-0.6,1.5,0.2,1.6c2.4,0.4,5.8,0,9-2.4  c3.3,2,7.1,3.1,11.3,3.1c12.1,0,22-9.8,22-22C86.1,37,76.2,27.1,64.1,27.1z M64.1,39C58.5,39,54,43.5,54,49.1c0,1.5-1.2,2.6-2.6,2.6  s-2.6-1.2-2.6-2.6c0-8.5,6.9-15.3,15.3-15.3c1.5,0,2.6,1.2,2.6,2.6C66.7,37.8,65.6,39,64.1,39z"></path></g><g id="SvgjsG1501" featurekey="nameLeftFeature-0" transform="matrix(2.5,0,0,2.5,68.00000178813927,0.5000000993410687)" fill="#cdf27e"><path d="M10.36 6 l2.92 0 l0 14 l-2.22 0 l-6.94 -8.68 l0 8.68 l-2.92 0 l0 -14 l2.26 0 l6.9 8.7 l0 -8.7 z M22.64 5.800000000000001 c3.9 0 7.26 2.94 7.26 7.2 s-3.36 7.2 -7.26 7.2 s-7.26 -2.94 -7.26 -7.2 s3.36 -7.2 7.26 -7.2 z M22.64 17.46 c2.36 0 4.22 -1.86 4.22 -4.46 s-1.86 -4.46 -4.22 -4.46 s-4.22 1.86 -4.22 4.46 s1.86 4.46 4.22 4.46 z M41.5 6 l0 2.68 l-3.48 0 l0 11.32 l-2.92 0 l0 -11.32 l-3.5 0 l0 -2.68 l9.9 0 z M46.419999999999995 6 l0 14 l-2.92 0 l0 -14 l2.92 0 z M57.68 8.66 l-5.86 0 l0 3.06 l4.82 0 l0 2.5 l-4.82 0 l0 5.78 l-3 0 l0 -14 l8.86 0 l0 2.66 z M72.53999999999999 6 l-5.32 8.04 l0 5.96 l-2.92 0 l0 -5.96 l-5.32 -8.04 l3.3 0 l3.48 5.4 l3.48 -5.4 l3.3 0 z"></path></g><g id="SvgjsG1502" featurekey="nameRightFeature-0" transform="matrix(2.5714285373687744,0,0,2.5714285373687744,252.9142862047468,-0.4285714285714306)" fill="#cdf27e"><path d="M15.42 6 l0 14 l-0.58 0 l0 -12.7 l-6.34 12.7 l-0.38 0 l-6.34 -12.72 l0 12.72 l-0.58 0 l0 -14 l0.58 0 l6.54 13.1 l6.52 -13.1 l0.58 0 z M18.400000000000002 19.42 l7.28 0 l0 0.58 l-7.68 0 l-0.18 0 l0 -14 l0.58 0 l7.1 0 l0 0.58 l-7.1 0 l0 6.1 l5.66 0 l0 0.58 l-5.66 0 l0 6.16 z"></path></g></svg>