<svg width="322.1335709916075" height="273.6" viewBox="0 0 188.38220525825 160" class="css-1j8o68f"><defs id="SvgjsDefs1323"><linearGradient id="SvgjsLinearGradient1330"><stop id="SvgjsStop1331" stop-color="#2d388a" offset="0"></stop><stop id="SvgjsStop1332" stop-color="#00aeef" offset="1"></stop></linearGradient></defs><g id="SvgjsG1324" featurekey="symbolFeature-0" transform="matrix(1.078125,0,0,1.078125,42,0)" fill="url(#SvgjsLinearGradient1330)"><path xmlns="http://www.w3.org/2000/svg" d="M0,12C0,5.373,5.373,0,12,0h72c6.627,0,12,5.373,12,12v24v24v24c0,6.627-5.373,12-12,12H12C5.373,96,0,90.627,0,84V60V36V12  L0,12z M42,30v18h9c4.969,0,9-4.03,9-9s-4.03-9-9-9H42L42,30z M31.5,21c-0.828,0-1.5,0.672-1.5,1.5v51c0,0.828,0.672,1.5,1.5,1.5h12  c0.828,0,1.5-0.672,1.5-1.5V57h9c9.941,0,18-8.059,18-18s-8.059-18-18-18H43.5H39H31.5z"></path></g><g id="SvgjsG1325" featurekey="nameLeftFeature-0" transform="matrix(2.55112886428833,0,0,2.55112886428833,-4.6586171297238685,108.97640285692736)" fill="#111111"><path d="M7.6953 5.888999999999999 c2.7637 0 4.4824 2.0508 4.4824 4.5605 c0 2.5684 -1.7188 4.4922 -4.4824 4.4922 l-2.9395 0 l0 5.0586 l-2.9297 0 l0 -14.111 l5.8691 0 z M7.207 12.4902 c1.4648 0 2.1484 -0.81055 2.1484 -2.0801 c0 -1.2207 -0.68359 -2.0703 -2.1484 -2.0703 l-2.4512 0 l0 4.1504 l2.4512 0 z M24.0825 20 l-1.0254 -2.9102 l-5.9277 0 l-1.0254 2.9102 l-2.998 0 l5.1953 -14.111 l3.584 0 l5.1953 14.111 l-2.998 0 z M17.9883 14.6387 l4.209 0 l-2.0996 -5.9863 z M36.650346875 20 l-3.6719 -6.2109 l-0.84961 0 l0 6.2109 l-2.9297 0 l0 -14.111 l5.1172 0 c3.1934 0 4.541 1.8848 4.541 4.2188 c0 1.8945 -1.0742 3.125 -2.9883 3.5352 l4.248 6.3574 l-3.4668 0 z M32.128946875 8.32 l0 3.3691 l1.7285 0 c1.5625 0 2.1973 -0.66406 2.1973 -1.6797 c0 -1.0059 -0.63477 -1.6895 -2.1973 -1.6895 l-1.7285 0 z M50.615453125 20 l-4.3848 -5.9961 l-1.0352 0 l0 5.9961 l-2.9297 0 l0 -14.111 l2.9297 0 l0 5.5469 l0.99609 0 l4.4238 -5.5469 l3.5742 0 l-5.4688 6.748 l5.6348 7.3633 l-3.7402 0 z"></path></g><g id="SvgjsG1326" featurekey="nameRightFeature-0" transform="matrix(1.8848165273666382,0,0,1.8848165273666382,138.92460932062247,120.8711749675601)" fill="#111111"><path d="M13.88 20.76 c-0.04 0 -0.06 -0.02 -0.08 -0.04 l-0.02 -0.06 c0 -0.02 -0.04 -0.02 -0.1 -0.02 l-0.04 0 c-0.04 0 -0.04 -0.02 -0.06 -0.04 l-0.06 -0.08 l-0.06 0 c-0.1 0 -0.16 -0.04 -0.2 -0.1 c-0.04 -0.04 -0.12 -0.1 -0.22 -0.1 c-0.08 -0.02 -0.22 -0.08 -0.28 -0.12 c-0.1 -0.08 -0.12 -0.1 -0.18 -0.24 c-0.02 -0.04 -0.06 -0.06 -0.08 -0.06 l-0.02 0 c-0.02 0 -0.04 -0.02 -0.06 -0.06 s-0.04 -0.08 -0.06 -0.08 c-0.14 -0.1 -0.3 -0.48 -0.3 -0.62 c0 -0.04 0 -0.06 0.02 -0.06 l0.02 -0.02 l-0.02 -0.02 c-0.02 -0.04 -0.04 -0.1 -0.04 -0.16 c0 -0.1 0.02 -0.18 0.06 -0.18 c0.02 0 0.04 -0.02 0.04 -0.06 l-0.02 -0.1 c0 -0.02 0.02 -0.04 0.04 -0.04 l0.02 -0.02 l-0.02 -0.02 c-0.02 -0.02 -0.02 -0.06 -0.02 -0.12 l0.02 -0.4 c0 -0.14 -0.02 -0.26 -0.04 -0.28 l0 -0.02 c0 -0.04 0.02 -0.08 0.04 -0.12 s0.04 -0.1 0.04 -0.14 l0 -0.02 c-0.02 -0.04 -0.04 -0.12 -0.04 -0.2 s0.02 -0.14 0.04 -0.14 s0.02 -0.04 0.02 -0.1 l0 -0.08 c0 -0.1 0 -0.2 0.02 -0.22 l-0.02 -0.14 c-0.02 -0.06 -0.02 -0.16 -0.02 -0.24 c0 -0.1 0 -0.18 0.04 -0.18 l0.02 -0.02 l-0.06 -0.08 c0 -0.02 0.02 -0.04 0.04 -0.06 s0.06 -0.22 0.06 -0.38 l-0.02 -0.18 l0.04 -0.18 l0.02 -0.32 c0 -0.14 0.04 -0.36 0.14 -0.6 c0.04 -0.08 0.04 -0.16 0.04 -0.2 l-0.02 -0.06 l0.04 -0.08 l-0.04 -0.08 l0.04 -0.08 l-0.02 -0.08 c-0.02 -0.04 -0.02 -0.06 -0.02 -0.1 c0 -0.06 0 -0.14 0.04 -0.3 c0 -0.1 0 -0.16 -0.02 -0.16 l0 -0.02 l0.04 -0.1 c0.04 -0.06 0.04 -0.18 0.04 -0.26 l0 -0.06 c0 -0.04 0 -0.06 0.02 -0.06 l0.04 0 l-0.02 -0.02 l-0.02 -0.06 c0 -0.06 0.02 -0.12 0.04 -0.16 l0.04 -0.16 l-0.04 -0.14 l-0.04 -0.08 c0 -0.04 0.02 -0.04 0.06 -0.06 c0.02 0 0.04 -0.02 0.04 -0.04 l0 -0.02 c-0.02 -0.02 -0.02 -0.06 -0.02 -0.12 l0 -0.26 l-0.02 -0.04 l0.02 -0.02 c0.02 0 0.06 -0.08 0.06 -0.2 c0.02 -0.08 0.06 -0.16 0.08 -0.16 l0.02 0 l-0.04 -0.08 l-0.02 -0.16 l0.08 -0.74 c0 -0.12 0.02 -0.26 0.04 -0.28 c0 -0.04 0 -0.12 0.02 -0.18 c0 -0.06 0.02 -0.32 0.06 -0.6 c0.02 -0.2 0.04 -0.4 0.04 -0.54 l0 -0.1 c0 -0.08 0 -0.24 0.02 -0.34 l0.04 -0.16 l-0.04 -0.1 c0 -0.02 0.02 -0.08 0.06 -0.14 l0.04 -0.12 c0 -0.02 0 -0.02 -0.02 -0.02 s-0.04 -0.02 -0.04 -0.04 l0.04 -0.08 l0.02 -0.2 c-0.02 -0.06 -0.02 -0.12 -0.02 -0.14 c0.02 -0.02 0.02 -0.06 0.02 -0.12 l-0.02 -0.16 c0 -0.12 0.04 -0.24 0.06 -0.24 l0.06 0 l-0.06 -0.1 l0.04 -0.02 c0.02 0 0.04 -0.04 0.04 -0.1 l-0.04 -0.44 l0.02 -0.16 l0 -0.2 c0 -0.28 -0.02 -0.72 -0.04 -0.74 c0 0 -0.04 0.02 -0.06 0.08 c-0.02 0.04 -0.06 0.06 -0.12 0.06 l-0.04 0 c-0.04 0 -0.08 0.02 -0.12 0.06 s-0.08 0.08 -0.1 0.08 s-0.04 0.08 -0.04 0.18 c0 0.08 -0.04 0.18 -0.08 0.2 c-0.04 0 -0.06 0.04 -0.06 0.08 l0 0.04 c0 0.1 -0.08 0.26 -0.16 0.32 l-0.06 0.04 l0 -0.06 c0.02 -0.06 0.06 -0.12 0.1 -0.16 s0.06 -0.08 0.06 -0.1 s-0.02 -0.02 -0.04 -0.02 s-0.04 0 -0.08 0.04 s-0.12 0.08 -0.16 0.08 l-0.06 0 l0.06 0.04 c0.04 0.02 0.06 0.02 0.06 0.04 s-0.04 0.06 -0.14 0.14 l-0.08 0.08 l0.1 0 c0.04 0 0.06 0.02 0.06 0.06 s-0.02 0.1 -0.06 0.16 s-0.08 0.14 -0.08 0.18 l0 0.02 c0 0.02 -0.02 0.04 -0.04 0.04 c-0.06 0 -0.12 0.08 -0.12 0.18 l0.04 0.14 l-0.12 -0.08 c-0.02 0 -0.04 0.04 -0.08 0.1 c-0.02 0.06 -0.04 0.12 -0.04 0.18 l0 0.08 c0 0.02 -0.02 0.02 -0.1 0.02 c-0.02 0 -0.08 0.02 -0.14 0.06 s-0.14 0.1 -0.18 0.1 l-0.06 0.04 l0.1 0.04 c0.1 0.04 0.14 0.08 0.14 0.14 c0 0.04 -0.02 0.08 -0.08 0.12 c-0.04 0.06 -0.1 0.12 -0.1 0.16 l-0.06 0.02 l-0.06 0 c-0.02 0 -0.04 0 -0.04 0.04 l0.02 0.1 c0 0.06 -0.02 0.12 -0.12 0.16 c-0.1 0.06 -0.14 0.1 -0.14 0.16 l0 0.02 c0.02 0.04 0.04 0.06 0.06 0.06 l0.02 0 c0.02 -0.02 0.02 -0.06 0.02 -0.1 l-0.02 -0.04 l0.04 0 c0.04 0.02 0.1 0.18 0.1 0.24 l-0.2 -0.04 c-0.06 0 -0.1 0.02 -0.16 0.06 c-0.06 0.06 -0.12 0.08 -0.14 0.08 l-0.02 0 l-0.04 0.02 c0 0.04 0.04 0.1 0.08 0.14 l0.04 0.04 l0 -0.02 l-0.02 -0.08 l0.04 -0.02 l0.04 0.02 l0 -0.08 c0.02 0 0.08 0.08 0.12 0.18 l0.04 0.1 l-0.04 -0.04 l-0.06 -0.04 c-0.02 0 -0.02 0.02 -0.04 0.06 c-0.02 0.06 -0.06 0.16 -0.12 0.26 l-0.06 0.12 c0 0.02 0 0.02 0.02 0.02 l0.02 0.02 l-0.02 0.06 c0 0.02 0 0.08 0.02 0.1 l0.02 0.02 l-0.04 -0.02 c-0.04 0 -0.08 0.06 -0.12 0.12 c-0.04 0.1 -0.06 0.14 -0.1 0.14 c0 0 -0.02 -0.02 -0.02 -0.08 c0 -0.04 0 -0.06 -0.02 -0.06 l-0.04 0.08 c-0.04 0.04 -0.1 0.1 -0.14 0.12 c-0.02 0.02 -0.04 0.04 -0.04 0.06 l0.02 0.06 c0 0.04 -0.02 0.12 -0.06 0.16 l-0.06 0.16 l0 0.02 l-0.04 0.16 c-0.02 0.04 -0.04 0.1 -0.04 0.14 l-0.04 0.16 c-0.02 0.04 -0.04 0.08 -0.04 0.12 c0 0.06 0.04 0.12 0.14 0.14 c0.06 0.02 0.08 0.02 0.08 0.04 l-0.02 0.04 l-0.04 0.02 l-0.08 -0.06 c-0.06 0 -0.16 0.22 -0.16 0.34 l0.02 0.16 c0 0.06 -0.02 0.14 -0.04 0.18 l-0.06 0.14 l-0.06 -0.1 l-0.02 -0.08 l0.02 -0.02 l0.06 0.04 c0.02 0 0.02 -0.02 0.04 -0.08 l0.02 -0.08 l-0.02 -0.06 c-0.02 0 -0.04 0 -0.04 0.04 l-0.1 0.08 c-0.02 0 -0.04 0.04 -0.04 0.06 l0 0.06 c0 0.02 -0.02 0.04 -0.04 0.04 s-0.02 0.02 -0.02 0.08 l0.02 0.24 c0 0.04 0 0.06 -0.02 0.06 l-0.04 -0.06 c-0.02 -0.04 -0.04 -0.06 -0.06 -0.06 c-0.04 0 -0.06 0.04 -0.06 0.08 l0 0.08 c0 0.04 -0.02 0.08 -0.04 0.1 l-0.02 0.1 l0.04 0.22 c0 0.04 -0.02 0.04 -0.08 0.06 c-0.06 0 -0.12 0.02 -0.12 0.04 s0 0.02 0.04 0.02 s0.08 0.02 0.08 0.06 s-0.04 0.1 -0.1 0.14 s-0.1 0.08 -0.1 0.12 l0.02 0.1 l-0.02 0.02 l-0.04 0.02 l0.02 0.02 c0.04 0.04 0.06 0.2 0.06 0.3 c0 0.06 0 0.1 -0.02 0.1 s-0.06 0.06 -0.06 0.16 c-0.02 0.1 -0.08 0.18 -0.12 0.22 c-0.08 0.02 -0.14 0.16 -0.14 0.28 c0 0.06 0.02 0.1 0.04 0.14 l0.04 0.04 l-0.06 -0.02 c-0.02 0 -0.04 0.02 -0.06 0.04 l-0.02 0.08 c0 0.02 0 0.04 0.02 0.04 l0.04 0 s0.02 0.02 0.02 0.06 l0 0.04 c0 0.02 -0.02 0.04 -0.04 0.04 l-0.04 0 c-0.04 0 -0.12 0.1 -0.12 0.18 l0 0.04 c0 0.02 -0.02 0.04 -0.04 0.06 c-0.04 0.02 -0.04 0.06 -0.04 0.1 c0.02 0.04 0.02 0.14 0.02 0.22 l-0.02 0.1 l0.02 0.02 l0.02 -0.04 c0.02 -0.04 0.04 -0.08 0.06 -0.08 s0.02 0.02 0.02 0.06 c0 0.06 -0.04 0.22 -0.08 0.26 c-0.02 0.02 -0.04 0.06 -0.04 0.1 l0.04 0.1 c0 0.02 -0.02 0.04 -0.04 0.04 s-0.02 0.02 -0.02 0.14 l0 0.22 s0 0.06 0.02 0.1 l0.02 0.08 c0 0.14 -0.08 0.28 -0.14 0.28 c-0.02 0 -0.04 0.02 -0.04 0.04 l0 0.04 c0 0.04 -0.1 0.1 -0.2 0.18 c-0.14 0.08 -0.3 0.12 -0.44 0.12 c-0.12 0 -0.24 -0.02 -0.34 -0.06 l-0.04 0 c-0.02 0 -0.04 0.02 -0.04 0.08 s0.04 0.16 0.1 0.2 s0.1 0.1 0.1 0.16 s-0.02 0.1 -0.08 0.12 l-0.04 0 c-0.1 0 -0.2 -0.1 -0.26 -0.28 l-0.04 -0.1 l-0.02 0 l0.02 0.12 c0 0.1 0.02 0.18 0.04 0.2 l0.02 0.02 l-0.04 0.02 c-0.06 0 -0.08 -0.02 -0.08 -0.1 c-0.02 -0.04 -0.02 -0.06 -0.04 -0.06 l-0.08 0.02 c-0.02 0 -0.04 -0.02 -0.04 -0.04 c-0.02 -0.02 -0.08 -0.04 -0.16 -0.04 c-0.16 -0.02 -0.22 -0.06 -0.3 -0.24 c-0.04 -0.08 -0.12 -0.16 -0.2 -0.22 c-0.06 -0.04 -0.14 -0.1 -0.16 -0.14 c0 -0.04 -0.04 -0.1 -0.08 -0.12 c-0.04 0 -0.08 -0.08 -0.08 -0.14 s-0.02 -0.08 -0.04 -0.08 l-0.04 0 c-0.02 0 -0.04 -0.06 -0.04 -0.14 c0 -0.06 0.02 -0.14 0.04 -0.18 l0.02 -0.06 c0 -0.12 -0.08 -0.3 -0.14 -0.34 c-0.04 0 -0.06 -0.06 -0.06 -0.18 c0 -0.08 0 -0.18 -0.04 -0.22 l-0.02 -0.04 l0.08 -0.04 l-0.06 -0.12 c0.02 0 0.04 -0.08 0.06 -0.14 c0 -0.14 -0.02 -0.16 -0.08 -0.24 l-0.06 -0.04 l0.02 0 l0.12 -0.02 l0.02 -0.02 c0 -0.02 -0.02 -0.02 -0.08 -0.02 c-0.08 0 -0.12 -0.02 -0.12 -0.06 s0.02 -0.08 0.06 -0.12 s0.06 -0.06 0.06 -0.1 s-0.02 -0.08 -0.04 -0.12 c-0.04 -0.04 -0.04 -0.08 -0.04 -0.1 s0 -0.04 0.02 -0.04 l0.02 -0.02 c0 -0.04 -0.02 -0.1 -0.08 -0.24 l-0.06 -0.2 l0.04 0.02 l0.02 -0.04 c0 -0.06 0.06 -0.08 0.12 -0.08 s0.1 -0.02 0.1 -0.04 l0 -0.02 l-0.06 -0.02 l-0.04 0 c-0.06 0 -0.1 -0.02 -0.14 -0.08 l-0.04 -0.08 l0.02 -0.02 l0 -0.04 c0 -0.1 -0.06 -0.32 -0.12 -0.34 l-0.02 -0.02 l0.04 -0.02 c0.04 0 0.06 -0.02 0.06 -0.1 l-0.02 -0.14 c-0.02 -0.14 -0.04 -0.28 -0.06 -0.32 l-0.02 -0.08 l0.04 -0.1 l-0.04 -0.18 l0.08 -0.1 l-0.02 -0.04 c-0.02 -0.02 -0.04 -0.02 -0.08 -0.02 l-0.06 0.02 c-0.02 0 -0.04 -0.02 -0.04 -0.04 l0.04 -0.1 l0.02 -0.1 l-0.04 -0.2 l0.02 -0.02 c0.02 0 0.04 -0.14 0.04 -0.28 c0 -0.08 0 -0.16 -0.02 -0.2 l-0.02 -0.08 l0.06 -0.14 l-0.02 -0.02 c-0.04 0 -0.08 -0.1 -0.08 -0.18 l0.02 -0.1 l-0.02 -0.14 c-0.02 -0.04 -0.04 -0.22 -0.06 -0.4 s-0.04 -0.38 -0.08 -0.44 l-0.02 -0.1 l0.02 -0.04 c0.02 0 0.02 -0.02 0.02 -0.06 s-0.02 -0.14 -0.06 -0.16 l-0.04 -0.04 l0.02 -0.04 c0 -0.04 0 -0.1 -0.04 -0.14 l-0.02 -0.06 l0.02 -0.04 c0.02 -0.02 0.04 -0.06 0.04 -0.1 l-0.08 -0.42 l0.02 0 l0.02 -0.06 l-0.08 -0.38 c-0.04 -0.14 -0.06 -0.28 -0.06 -0.36 l0 -0.04 c0 -0.08 -0.02 -0.22 -0.06 -0.34 c-0.04 -0.16 -0.08 -0.3 -0.08 -0.42 c0 -0.08 0.02 -0.16 0.06 -0.18 l0.02 -0.06 l0 -0.02 c0 -0.02 0 -0.02 -0.02 -0.02 l-0.06 0.02 c-0.02 0 -0.04 -0.04 -0.04 -0.1 l0.04 -0.14 c0.02 -0.04 0.02 -0.06 0.02 -0.1 s0 -0.08 -0.04 -0.14 c-0.02 -0.06 -0.04 -0.08 -0.04 -0.12 c0 -0.02 0.02 -0.04 0.04 -0.04 c0.02 -0.02 0.02 -0.04 0.02 -0.08 s0 -0.1 -0.04 -0.2 c-0.06 -0.14 -0.12 -0.46 -0.14 -0.7 c-0.06 -0.54 -0.04 -0.52 -0.16 -0.54 l-0.06 -0.02 l0.04 -0.02 c0.04 0 0.06 -0.02 0.06 -0.06 l0 -0.02 c-0.02 -0.04 -0.04 -0.06 -0.06 -0.06 c-0.04 0 -0.06 0.06 -0.08 0.14 c-0.02 0.06 -0.04 0.1 -0.06 0.1 s-0.02 0 -0.02 0.02 l0 0.02 c0 0.02 0 0.06 -0.02 0.08 l-0.02 0.02 l0 -0.06 c0 -0.02 0 -0.02 -0.02 -0.02 l-0.02 0 c-0.02 0 -0.04 0.02 -0.04 0.04 l0.02 0.06 l0.02 0.08 c0 0.08 -0.04 0.16 -0.1 0.16 l-0.06 0 l0.04 0.08 l-0.04 0.06 c-0.06 0.04 -0.1 0.08 -0.1 0.12 l-0.02 0.26 c-0.02 0.1 -0.08 0.18 -0.12 0.18 c-0.04 0.02 -0.06 0.04 -0.06 0.08 l0 0.06 c0 0.02 0 0.04 -0.02 0.04 l-0.02 0 c-0.02 0 -0.06 0.08 -0.08 0.18 c0 0.1 -0.08 0.28 -0.14 0.36 c-0.04 0.08 -0.08 0.16 -0.08 0.22 l0.02 0.04 l-0.02 0 c-0.06 0 -0.1 0.06 -0.1 0.12 l0 0.06 c0 0.1 -0.06 0.22 -0.12 0.22 c-0.04 0 -0.08 0.24 -0.08 0.4 l0.02 0.14 l0.04 0.04 l-0.04 -0.02 c-0.06 0 -0.1 0.1 -0.1 0.24 c0 0.06 0 0.1 0.02 0.1 l0.02 -0.02 l-0.04 0.1 c-0.06 0.08 -0.1 0.18 -0.1 0.28 l0.02 0.14 l0.02 0.06 l-0.02 0.04 c-0.02 0 -0.04 0.08 -0.04 0.16 l0 0.12 c0 0.06 -0.1 0.24 -0.14 0.24 s-0.06 0.06 -0.06 0.12 l0 0.18 c0 0.04 -0.02 0.1 -0.06 0.14 l-0.02 0.08 c0 0.04 0 0.04 0.02 0.04 s0.04 -0.02 0.06 -0.06 l0.06 -0.08 c0.02 0 0.02 0.04 0.04 0.1 c0 0.06 -0.04 0.12 -0.1 0.14 c-0.04 0.04 -0.08 0.1 -0.08 0.14 l-0.02 0.08 l-0.02 0 c-0.06 0 -0.14 0.24 -0.14 0.48 l0 0.08 c0 0.04 0 0.1 -0.02 0.1 s-0.04 0.02 -0.04 0.06 l0 0.06 c0.02 0 0.04 -0.02 0.06 -0.04 l0.04 -0.04 l-0.04 0.08 l-0.02 0.2 c0 0.04 -0.02 0.08 -0.04 0.1 l-0.02 0.02 l0.08 0.06 c0 0.02 -0.02 0.02 -0.06 0.02 s-0.08 0.02 -0.08 0.04 l0 0.02 c0.04 0.08 0.08 0.22 0.08 0.26 l0 0.02 l-0.02 -0.02 c-0.02 -0.04 -0.04 -0.06 -0.06 -0.06 l-0.04 0.02 l-0.02 0.06 c0 0.02 0.02 0.04 0.08 0.06 l0.08 0.06 c0 0.02 -0.02 0.04 -0.06 0.04 c-0.08 0.04 -0.14 0.14 -0.14 0.2 l0 0.02 l0.04 0.04 l0.04 -0.02 l-0.04 0.06 c-0.02 0.02 -0.02 0.06 -0.02 0.1 l0.02 0.12 l0.04 0.1 c0 0.02 0 0.02 -0.02 0.02 s-0.02 0.02 -0.02 0.04 l0 0.08 c0 0.02 -0.02 0.02 -0.06 0.02 l-0.04 0 l-0.02 0.02 l0.02 0.04 c0.02 0.06 0.06 0.1 0.08 0.1 s0.04 0.02 0.04 0.04 c0 0.04 -0.04 0.04 -0.1 0.04 l-0.02 0 c-0.04 0 -0.06 0.02 -0.06 0.06 l0 0.14 l0.04 -0.08 c0.02 -0.02 0.02 -0.04 0.04 -0.04 l0.02 0 c0 0.02 -0.02 0.08 -0.06 0.14 c-0.04 0.04 -0.06 0.12 -0.06 0.16 l0 0.2 c0 0.04 0.02 0.06 0.04 0.06 l0.02 0.02 l-0.06 0 c-0.06 0 -0.1 0.04 -0.1 0.1 l0.06 0.16 l-0.02 0.1 c-0.02 0.04 -0.02 0.08 -0.02 0.1 c0 0.04 0 0.06 0.02 0.1 l0.04 0.06 l-0.04 0 c-0.02 0 -0.06 0.02 -0.08 0.06 c-0.02 0.02 -0.02 0.06 -0.02 0.1 c0 0.08 0.02 0.18 0.06 0.18 l0.04 -0.02 l-0.04 0.12 l0.02 0.1 c0 0.02 0 0.04 -0.02 0.04 l-0.04 0 l0.02 0.14 c0 0.04 0 0.1 -0.02 0.14 l-0.02 0.06 l0.06 -0.02 l0.02 0.02 l0 0.04 c0 0.04 -0.02 0.1 -0.04 0.1 l-0.02 -0.02 c-0.02 0 -0.02 0.02 -0.04 0.06 l-0.02 0.1 c0 0.04 0 0.06 0.02 0.06 l0.02 -0.02 c0.02 0 0.04 0.04 0.06 0.1 c0 0.08 -0.02 0.16 -0.04 0.18 s-0.04 0.04 -0.04 0.06 l0.04 0.1 l0.1 0.14 c0 0.02 -0.02 0.02 -0.04 0.02 c-0.06 0 -0.1 0.06 -0.1 0.16 l0.04 0.26 c0 0.08 -0.02 0.12 -0.06 0.12 l-0.06 0 l0.08 0.08 c0.06 0.04 0.1 0.08 0.1 0.1 l-0.02 0 c-0.04 0 -0.06 0.06 -0.06 0.12 s-0.02 0.12 -0.04 0.12 l-0.02 0.04 l0.02 0.1 c0.02 0.04 0.02 0.08 0.02 0.12 l-0.02 0.14 c-0.02 0.04 -0.04 0.08 -0.04 0.14 l0.02 0.1 c0.02 0.06 0.04 0.18 0.04 0.26 l0 0.16 l0.02 0.08 l-0.04 0.18 l0.02 0.16 c0 0.02 0 0.06 -0.02 0.06 s-0.04 0.02 -0.04 0.06 l0.02 0.08 c0.02 0.08 0.06 0.14 0.1 0.14 c0.02 0 0.04 0.02 0.06 0.06 c0 0.02 0 0.02 -0.02 0.02 l-0.04 0 l-0.02 0.06 c0 0.06 0.02 0.16 0.06 0.2 l0.02 0.02 l-0.02 0.02 c-0.02 0 -0.04 0.08 -0.04 0.22 c0 0.16 0.02 0.4 0.06 0.58 c0.02 0.1 0.04 0.28 0.04 0.42 l0 0.12 c0 0.12 -0.02 0.14 -0.14 0.18 c-0.1 0.04 -0.24 0.06 -0.32 0.06 s-0.16 -0.02 -0.16 -0.04 c-0.02 -0.02 -0.12 -0.1 -0.26 -0.16 c-0.14 -0.08 -0.24 -0.18 -0.26 -0.22 c-0.02 -0.06 -0.08 -0.1 -0.14 -0.12 s-0.16 -0.08 -0.24 -0.14 c-0.14 -0.1 -0.14 -0.14 -0.2 -0.4 l-0.06 -0.68 c0 -0.24 0 -0.46 -0.02 -0.52 c0 -0.04 0 -0.08 0.04 -0.08 l0.02 -0.02 l-0.04 -0.14 c-0.02 -0.1 -0.04 -0.26 -0.04 -0.4 c0 -0.12 0 -0.22 0.04 -0.22 l0.02 0 l-0.04 -0.08 c-0.02 -0.04 -0.02 -0.06 -0.02 -0.1 s0 -0.06 0.04 -0.1 l0.04 -0.06 c0 -0.02 0 -0.02 -0.02 -0.02 c-0.04 0 -0.06 -0.04 -0.06 -0.22 c0 -0.1 0 -0.14 -0.02 -0.2 l0.02 -0.04 l0.08 0.04 l-0.02 -0.04 c-0.04 -0.04 -0.06 -0.14 -0.06 -0.22 c0 -0.1 0.02 -0.18 0.06 -0.2 l0.04 -0.04 l-0.04 -0.02 c-0.04 -0.02 -0.08 -0.16 -0.08 -0.28 c0 -0.06 0.02 -0.14 0.04 -0.16 s0.02 -0.1 0.02 -0.2 l-0.02 -0.12 l0.02 -0.12 c0 -0.04 -0.02 -0.08 -0.04 -0.1 l-0.02 -0.04 l0.12 0.04 l-0.02 -0.06 c-0.02 -0.02 -0.02 -0.1 -0.02 -0.2 l0 -0.38 l-0.02 -0.24 l0.02 -0.24 c0.02 -0.02 0.04 -0.04 0.06 -0.04 l0.02 0 l-0.04 -0.12 c-0.06 -0.1 -0.08 -0.14 -0.08 -0.18 l0 -0.04 l0.02 -0.02 c0.02 0 0.02 0.02 0.02 0.06 s0.02 0.06 0.06 0.06 l0.04 0 c0.04 0 0.06 -0.02 0.06 -0.04 c0 -0.04 -0.02 -0.08 -0.08 -0.1 c-0.04 -0.02 -0.04 -0.06 -0.04 -0.12 c0.02 -0.04 0.04 -0.06 0.06 -0.06 l0.06 0 l-0.04 -0.06 c-0.02 -0.04 -0.02 -0.1 -0.02 -0.18 c0 -0.14 0.02 -0.34 0.08 -0.36 c0.08 -0.02 0.12 -0.08 0.12 -0.14 l-0.02 -0.04 l-0.02 0 c-0.02 0 -0.04 0.02 -0.04 0.06 l-0.02 0.04 l-0.02 0 c-0.02 0 -0.02 -0.04 -0.02 -0.08 c0 -0.18 0.08 -0.56 0.14 -0.62 c0.04 -0.02 0.06 -0.06 0.06 -0.1 c0 -0.02 -0.02 -0.04 -0.04 -0.04 l-0.04 0.04 l-0.02 -0.02 l0 -0.02 c0 -0.16 0.16 -1.34 0.22 -1.64 c0.04 -0.2 0.08 -0.32 0.1 -0.32 l0 0.06 c0 0.04 0 0.08 0.02 0.08 l0.06 -0.08 l0.02 -0.08 c0 -0.02 0 -0.02 -0.04 -0.02 c-0.04 -0.02 -0.08 -0.04 -0.08 -0.08 c0 -0.02 0.02 -0.04 0.04 -0.04 l0.02 0 c0.02 0 0.04 0 0.04 -0.02 l-0.02 -0.02 l-0.02 -0.08 c0 -0.18 0.1 -0.56 0.14 -0.56 l0.02 0 l-0.04 -0.14 c0 -0.02 0 -0.04 0.04 -0.04 c0.02 0 0.04 -0.02 0.04 -0.04 l-0.02 -0.1 c0 -0.02 0.02 -0.04 0.04 -0.04 l0.02 -0.02 l-0.04 -0.08 l0.12 0.02 l-0.04 -0.14 c0 -0.12 0.08 -0.26 0.16 -0.26 l0 -0.02 l-0.04 -0.1 c-0.04 -0.08 -0.06 -0.14 -0.06 -0.18 c0 -0.06 0.02 -0.08 0.06 -0.08 c0.02 0 0.04 -0.04 0.04 -0.08 l-0.02 -0.12 c0 -0.12 0.08 -0.34 0.12 -0.34 l0.02 -0.02 l-0.02 -0.1 l0.06 0.02 l0.04 0.02 l0 -0.02 l-0.06 -0.2 c0 -0.04 0.02 -0.06 0.04 -0.08 c0.02 -0.04 0.04 -0.1 0.04 -0.14 s0.02 -0.12 0.08 -0.18 c0.02 -0.04 0.04 -0.08 0.04 -0.12 l-0.02 -0.06 c0 -0.06 0.1 -0.16 0.16 -0.16 l0.04 -0.02 l-0.04 -0.02 c-0.02 -0.02 -0.04 -0.06 -0.04 -0.12 c0 -0.16 0.1 -0.46 0.18 -0.46 l0.04 0 l-0.04 -0.08 l0.04 -0.08 c0.02 -0.02 0.02 -0.04 0.02 -0.08 l0 -0.06 c0 -0.08 0.06 -0.14 0.2 -0.16 l0.14 -0.02 c0 -0.02 -0.02 -0.04 -0.06 -0.08 l-0.1 -0.04 l-0.04 0 c-0.02 0 -0.02 0 -0.02 -0.02 l0.08 -0.2 c0.04 -0.08 0.06 -0.18 0.06 -0.2 s0.04 -0.08 0.1 -0.1 s0.1 -0.06 0.1 -0.08 l-0.04 -0.1 c0 -0.2 0.24 -0.74 0.36 -0.74 l0.02 0 c0.02 0 0.04 -0.04 0.04 -0.12 c0 -0.18 0.54 -1.04 0.74 -1.18 l0.16 -0.06 l0.28 0.04 c0.18 0.04 0.34 0.08 0.36 0.1 l0.2 0.08 l0.28 0.14 c0.14 0.12 0.5 0.54 0.54 0.62 c0 0.04 0.04 0.06 0.06 0.06 c0.14 0 0.4 0.56 0.54 1.16 l0.1 0.44 l-0.02 0.06 l-0.04 -0.02 c-0.04 0 -0.06 0 -0.06 0.02 l0 0.02 c0 0.02 0.04 0.04 0.06 0.04 l0.02 0 c0.04 0 0.04 0.02 0.06 0.04 l0.04 0.16 c0 0.04 -0.02 0.04 -0.04 0.04 s-0.04 -0.02 -0.04 -0.04 s-0.02 -0.06 -0.06 -0.06 s-0.06 0.02 -0.06 0.04 s0.04 0.06 0.12 0.1 c0.12 0.06 0.12 0.08 0.14 0.26 c0 0.18 0.02 0.38 0.1 0.86 l0 0.06 c0 0.04 -0.02 0.08 -0.04 0.08 s-0.04 -0.02 -0.06 -0.06 c-0.02 -0.06 -0.06 -0.1 -0.08 -0.1 l0 0.06 c0 0.04 0.06 0.12 0.12 0.16 c0.08 0.06 0.1 0.1 0.1 0.2 l0 0.08 l0.02 0.16 l0.02 0.12 l-0.02 0.06 l0.02 0.06 c0.06 0.06 0.08 0.24 0.08 0.32 c0 0.04 0 0.06 -0.02 0.06 l-0.02 0 l0.04 0.1 c0.02 0.04 0.04 0.1 0.04 0.18 l0 0.08 c0 0.08 0 0.16 0.02 0.18 l-0.06 -0.02 l0.04 0.1 c0.06 0.12 0.14 0.56 0.14 0.8 l0.04 0.26 l0.04 0.16 l-0.04 0.14 l0.04 0.16 c0 0.02 -0.02 0.04 -0.06 0.06 l-0.04 0 c-0.02 0 -0.06 0 -0.06 -0.02 l0 -0.02 l0.1 -0.06 l-0.06 0 c-0.08 0 -0.1 0.02 -0.1 0.1 c0.02 0.08 0.04 0.12 0.08 0.12 l0.06 0 c0.1 0 0.12 0.04 0.14 0.14 l0.02 0.16 c0 0.14 -0.04 0.26 -0.08 0.26 l-0.06 -0.06 l-0.02 0.04 l0 0.02 l0.02 0.02 c0.04 0 0.08 0.04 0.08 0.08 c0.02 0.02 0.04 0.04 0.06 0.04 l0.04 0 c0.02 0 0.02 0 0.02 0.02 l0 0.02 c0 0.04 -0.06 0.06 -0.12 0.06 l-0.1 0 c-0.02 0 -0.02 0 -0.02 0.02 l0 0.04 l0.06 0.14 l0.04 0 l0.02 -0.02 l-0.02 -0.06 c0 -0.02 0.02 -0.04 0.04 -0.04 c0.06 0 0.08 0.02 0.08 0.1 c0.02 0.06 0.04 0.26 0.06 0.46 l0.04 0.32 l-0.02 0.18 c0 0.04 0.02 0.08 0.04 0.12 l0.04 0.04 c0 0.02 0 0.02 -0.02 0.02 l-0.02 0.02 l0.02 0.02 l0.02 0.08 l-0.02 0.1 l0.02 0.08 c0.02 0.02 0.02 0.12 0.02 0.2 c0 0.06 0 0.16 0.02 0.2 l0 0.02 c0 0.02 -0.02 0.04 -0.04 0.04 c-0.04 0 -0.08 0.02 -0.08 0.06 l-0.04 -0.12 c-0.02 -0.1 -0.04 -0.14 -0.06 -0.14 s-0.02 0.02 -0.02 0.06 l0.02 0.18 c0.02 0.18 0.02 0.26 0.06 0.26 l0.04 -0.04 c0.02 -0.04 0.06 -0.06 0.1 -0.06 l0.02 0.02 l-0.04 0.04 c-0.02 0.02 -0.04 0.06 -0.04 0.12 l0.04 0.18 c0.04 0.1 0.08 0.18 0.1 0.18 l0.02 -0.02 c0.02 0 0.02 0.02 0.02 0.06 l-0.04 0.3 l0.04 0.2 c0 0.04 -0.02 0.04 -0.04 0.04 l-0.08 -0.02 l-0.04 -0.02 c-0.04 0 -0.06 0.04 -0.06 0.12 l0.04 0.22 l-0.04 0.12 l0.08 0.32 c0 0.04 -0.04 0.04 -0.08 0.04 c-0.08 0 -0.16 -0.1 -0.16 -0.24 l0 -0.06 c0 -0.06 -0.02 -0.1 -0.02 -0.1 l-0.04 0 l-0.08 -0.04 l0.04 0.08 c0.02 0.04 0.04 0.1 0.04 0.14 l-0.02 0.06 l0.04 0.1 l-0.04 0.18 c0 0.04 0.02 0.06 0.06 0.06 l0.08 -0.02 l0.08 -0.04 l0.06 0.02 c0.02 0 0.04 0 0.04 -0.04 l0 -0.02 l0.04 -0.02 c0.04 0 0.04 -0.06 0.04 -0.1 l0 -0.06 c0 -0.04 0.02 -0.12 0.04 -0.14 l0.04 -0.06 l-0.02 -0.02 c-0.04 0 -0.06 -0.02 -0.08 -0.06 c0 -0.02 0 -0.02 0.02 -0.02 l0.04 0 c0.06 0 0.12 -0.08 0.12 -0.14 l0 -0.02 c-0.02 -0.04 -0.04 -0.06 -0.08 -0.06 c-0.02 0 -0.02 0.02 -0.02 0.04 l0 0.02 c0 0.02 0 0.02 -0.02 0.02 l-0.02 0 c-0.04 -0.02 -0.08 -0.08 -0.1 -0.14 l-0.02 -0.06 l0.04 0 c0.04 0.04 0.08 0.06 0.1 0.06 c0.06 0 0.12 -0.06 0.16 -0.16 c0.04 -0.08 0.06 -0.14 0.06 -0.18 l0 -0.02 c0 -0.02 0.04 -0.06 0.1 -0.06 c0.06 -0.02 0.08 -0.02 0.08 -0.06 l-0.02 -0.08 c-0.02 -0.04 -0.02 -0.08 -0.02 -0.12 c0 -0.08 0.04 -0.12 0.12 -0.12 l0.06 0 l-0.06 -0.04 c-0.06 -0.02 -0.08 -0.02 -0.08 -0.04 l0.02 -0.06 l0.02 -0.12 l0 -0.08 c0 -0.06 0.02 -0.12 0.04 -0.16 s0.04 -0.08 0.04 -0.12 l0 -0.06 c0 -0.1 0.18 -0.32 0.26 -0.32 l0.02 0 l0.02 -0.02 l-0.04 -0.04 l-0.04 -0.08 l0.02 -0.02 l0.02 -0.06 l-0.04 -0.14 l0.02 0.02 c0.04 0.04 0.06 0.06 0.08 0.06 s0.02 -0.02 0.02 -0.04 l-0.1 -0.24 l0.1 0 c0.04 0 0.06 -0.02 0.06 -0.06 l0 -0.06 c0 -0.22 0.08 -0.38 0.18 -0.38 l0.02 0 l0.02 -0.02 l-0.02 -0.02 l-0.04 -0.08 c0 -0.06 0.06 -0.12 0.14 -0.12 c0.04 0 0.06 0 0.06 -0.02 l-0.08 -0.2 l0.06 0 c0.06 0 0.08 -0.02 0.08 -0.08 l-0.04 -0.06 l-0.08 0.04 c-0.02 0 -0.02 -0.02 -0.02 -0.04 l0 -0.06 c0.02 -0.04 0.04 -0.08 0.06 -0.08 l0.04 0 l-0.02 -0.12 c0 -0.08 0.08 -0.24 0.2 -0.48 c0.14 -0.24 0.18 -0.32 0.18 -0.36 l-0.04 -0.06 l0.04 0 c0.04 0 0.06 0.02 0.08 0.06 c0.02 0 0.04 -0.02 0.04 -0.04 c0.02 -0.04 0.06 -0.06 0.08 -0.06 l0.1 0.02 c0.04 0 0.04 -0.02 0.04 -0.04 s-0.02 -0.04 -0.06 -0.08 c-0.08 -0.06 -0.12 -0.1 -0.12 -0.14 l0.06 -0.12 c0.04 -0.04 0.06 -0.08 0.06 -0.12 l-0.02 -0.08 c0 -0.06 0.02 -0.12 0.04 -0.18 c0.06 -0.08 0.12 -0.2 0.14 -0.26 s0.06 -0.12 0.1 -0.12 c0.08 0 0.16 -0.12 0.16 -0.22 l-0.02 -0.08 c0 -0.12 0.18 -0.58 0.26 -0.58 c0.02 0 0.04 -0.06 0.06 -0.14 c0.02 -0.1 0.06 -0.16 0.16 -0.18 l0.08 -0.04 l-0.02 0 c-0.04 0 -0.06 -0.04 -0.06 -0.06 c0 -0.04 0.02 -0.08 0.08 -0.08 c0.02 0 0.04 -0.04 0.04 -0.08 l-0.02 -0.04 l0.02 -0.02 l0.02 0 c0.04 0 0.06 -0.04 0.1 -0.1 l0.06 -0.08 l-0.06 0.02 c-0.02 0 -0.02 -0.02 -0.02 -0.04 s0.02 -0.08 0.06 -0.14 c0.04 -0.04 0.08 -0.06 0.1 -0.06 l0.04 0 l-0.02 -0.04 l-0.02 -0.06 c0 -0.1 0.14 -0.34 0.22 -0.34 l0.04 0 c0.02 0 0.04 -0.04 0.08 -0.1 c0.02 -0.06 0.06 -0.1 0.1 -0.1 l0.02 0 c0.02 0 0.04 0 0.04 -0.02 s0 -0.04 -0.04 -0.04 s-0.06 -0.02 -0.06 -0.06 c0 -0.06 0.06 -0.16 0.16 -0.34 c0.1 -0.16 0.16 -0.24 0.18 -0.24 s0.02 0.02 0.02 0.06 l0.02 0.08 l0.02 -0.12 c0.06 -0.24 0.28 -0.6 0.66 -1.06 c0.5 -0.58 0.5 -0.6 0.76 -0.78 c0.08 -0.06 0.2 -0.08 0.32 -0.08 c0.22 0 0.5 0.08 0.9 0.26 c0.3 0.14 0.5 0.34 0.58 0.6 c0.04 0.06 0.12 0.18 0.18 0.24 c0.22 0.18 0.28 0.32 0.48 1.22 c0.02 0.16 0.04 0.5 0.04 0.78 l-0.02 0.64 l0.02 0.18 l-0.04 0.74 c-0.04 0.52 -0.06 0.6 -0.08 0.6 s-0.02 0 -0.02 0.02 l0.04 0.06 l-0.04 0.08 l0.06 0.1 c0 0.02 0 0.02 -0.02 0.02 s-0.04 0.08 -0.04 0.16 l-0.04 0.4 c0 0.14 -0.02 0.38 -0.04 0.54 c-0.04 0.64 -0.12 1.26 -0.16 1.26 c-0.02 0 -0.02 -0.02 -0.02 -0.08 c0 -0.08 0.02 -0.22 0.06 -0.42 c0 -0.1 0 -0.2 -0.02 -0.22 l-0.02 -0.06 l0.02 -0.04 l0.06 -0.18 l0 -0.04 c0 -0.04 -0.02 -0.06 -0.06 -0.06 l-0.04 -0.02 l0.06 -0.14 c0.04 -0.06 0.06 -0.1 0.06 -0.14 c0 -0.02 -0.02 -0.04 -0.04 -0.04 l-0.06 -0.06 l0.02 -0.02 c0.04 -0.04 0.06 -0.18 0.06 -0.28 c0 -0.04 0 -0.08 -0.02 -0.08 c-0.04 0 -0.12 0.12 -0.12 0.2 l0.04 0.12 l-0.02 0.04 c-0.02 0.02 -0.02 0.04 -0.02 0.1 l0 0.06 l-0.08 0.62 l0.02 0.22 l-0.02 0.06 c-0.02 0.02 -0.04 0.08 -0.04 0.12 l-0.02 0.2 l-0.02 0.1 c0 0.04 0.02 0.04 0.06 0.04 s0.06 0.02 0.06 0.02 l0 0.02 l-0.02 0.04 l-0.06 -0.02 c-0.04 0 -0.06 0.02 -0.06 0.06 s0.02 0.08 0.06 0.12 l0.06 0.04 c0.02 0 0.04 -0.04 0.06 -0.08 c0.02 -0.06 0.04 -0.08 0.06 -0.08 l0.02 0.1 l-0.04 0.32 l0.02 0.14 c0 0.04 -0.02 0.08 -0.04 0.1 l-0.04 0.06 c0 0.02 0 0.04 0.02 0.04 c0 0.02 0 0.02 -0.02 0.02 l-0.14 -0.02 c-0.08 0 -0.1 0.02 -0.1 0.08 s0.02 0.12 0.06 0.18 l0.08 0.08 l0.02 0 l-0.02 -0.08 c0 -0.08 0.02 -0.14 0.04 -0.16 l0.04 -0.02 c0.02 0 0.04 0.02 0.04 0.08 l-0.02 0.14 c-0.02 0.2 -0.04 0.28 -0.1 0.28 l-0.08 -0.02 l-0.1 -0.02 l-0.08 0.02 l-0.02 0.06 c0 0.02 0.02 0.04 0.08 0.08 c0.04 0.04 0.06 0.04 0.06 0.06 l-0.04 0.02 c-0.04 0 -0.08 0.08 -0.08 0.18 l-0.02 0.14 c0 0.06 0.02 0.08 0.04 0.08 l0.06 -0.02 c0.02 0 0.04 0.02 0.04 0.1 l0 0.1 l0.06 -0.08 l0.04 -0.1 c0 -0.04 -0.02 -0.06 -0.06 -0.12 c-0.06 -0.04 -0.08 -0.08 -0.08 -0.1 l0.04 -0.08 c0.04 -0.04 0.06 -0.1 0.06 -0.12 l-0.02 -0.08 c0 -0.04 0.02 -0.06 0.06 -0.06 l0.04 0.02 c0.04 0.04 0.06 0.12 0.06 0.18 s-0.02 0.12 -0.06 0.12 l-0.04 0.02 l0.02 0.02 c0.02 0.02 0.02 0.14 0.02 0.24 c0 0.14 0 0.3 -0.04 0.34 l0 0.08 c0 0.04 0 0.14 -0.02 0.22 s-0.02 0.14 -0.08 0.14 l-0.14 -0.04 c-0.06 0 -0.1 0.02 -0.1 0.06 l0 0.02 c0 0.02 0.02 0.04 0.04 0.04 l0.08 -0.04 l0.02 0.02 c0 0.02 -0.04 0.04 -0.1 0.08 c-0.06 0.02 -0.08 0.04 -0.08 0.06 l0.18 0.06 c0 0.02 -0.04 0.04 -0.08 0.08 c-0.06 0.04 -0.1 0.1 -0.1 0.12 s0.02 0.04 0.06 0.04 l0.04 0 l0.08 -0.02 l0 -0.02 c0 -0.02 0.02 -0.04 0.06 -0.04 s0.08 0.02 0.08 0.04 l-0.02 0.24 c-0.02 0.1 -0.04 0.2 -0.06 0.2 c-0.04 0 -0.06 -0.04 -0.06 -0.08 l0 -0.18 c-0.02 -0.08 -0.02 -0.1 -0.06 -0.1 l-0.04 0 c-0.04 0.02 -0.06 0.02 -0.06 0.06 l0.04 0.04 c0.04 0.06 0.08 0.12 0.08 0.16 c0 0.06 -0.04 0.08 -0.08 0.08 l-0.06 0 c-0.04 0 -0.06 0 -0.06 0.02 l0 0.02 s0.02 0.02 0.06 0.02 s0.06 0.04 0.06 0.08 l0 0.06 c0.02 0 0.04 -0.02 0.06 -0.06 s0.08 -0.08 0.12 -0.08 l0.02 0.02 l0 0.02 c0 0.1 -0.08 0.44 -0.1 0.44 l-0.02 0.04 l0.02 0.08 l0.04 0.28 c0 0.1 -0.02 0.18 -0.04 0.18 s-0.02 0 -0.02 0.02 l0 0.08 c0 0.16 -0.06 0.64 -0.1 0.68 l-0.02 0.02 l0.04 0.04 l0.02 0.06 l-0.02 0.08 l-0.04 0.08 l-0.02 -0.1 c0 -0.04 -0.02 -0.06 -0.04 -0.06 l-0.02 0 l0 0.02 l0.04 0.12 c0.04 0.06 0.06 0.14 0.06 0.26 l-0.02 0.28 c-0.02 0.22 -0.04 0.48 -0.06 0.56 c0 0.12 -0.04 0.16 -0.14 0.16 c-0.08 0.02 -0.12 0.06 -0.12 0.1 c0 0.02 0.04 0.06 0.1 0.08 c0.04 0 0.04 -0.02 0.04 -0.06 l0 -0.04 c0 -0.02 0.02 -0.04 0.04 -0.04 c0.04 0 0.08 0.08 0.08 0.16 c0 0.06 -0.02 0.12 -0.06 0.16 c-0.02 0.02 -0.1 0.04 -0.16 0.04 l-0.04 0 c-0.02 0 -0.04 0 -0.04 0.02 l0.02 0.06 c0.02 0.04 0.06 0.1 0.08 0.1 s0.02 -0.02 0.02 -0.04 l0 -0.02 c0 -0.04 0.02 -0.08 0.08 -0.08 c0.08 0 0.08 0 0.08 0.18 c-0.02 0.08 -0.02 0.2 -0.02 0.22 c0 0.04 -0.02 0.06 -0.06 0.06 l-0.02 0.02 l0.02 0.04 c0.02 0.02 0.04 0.2 0.04 0.46 l0 0.56 l-0.02 0.22 l0.04 0.24 c0.04 0.12 0.06 0.26 0.06 0.34 s-0.02 0.14 -0.04 0.14 z M4.28 3.6999999999999993 l0.04 -0.04 c0 -0.02 0 -0.04 -0.02 -0.04 s-0.04 0.02 -0.04 0.04 s0 0.04 0.02 0.04 z M3.86 4.1 c0.02 0 0.04 0 0.04 -0.02 l-0.04 -0.04 l-0.04 0.02 c0 0.02 0.02 0.04 0.04 0.04 z M3.6 4.140000000000001 c0.02 0 0.04 -0.02 0.06 -0.04 c0 -0.02 0 -0.04 -0.02 -0.04 l-0.04 0.02 c-0.04 0 -0.06 0.02 -0.06 0.04 c0 0 0.02 0.02 0.06 0.02 z M3.54 4.42 l0 -0.02 c-0.02 -0.02 -0.04 -0.02 -0.06 -0.02 l-0.06 0.02 c0 0.02 0.02 0.02 0.06 0.02 l0.06 0 z M3.86 4.66 c-0.02 0 -0.02 -0.02 -0.02 -0.04 s0.02 -0.06 0.04 -0.06 l0 0.06 z M12.96 4.76 c0.02 0 0.04 0 0.04 -0.02 l-0.02 -0.02 l-0.06 0 c0 0.02 0.02 0.04 0.04 0.04 z M1.94 4.800000000000001 l0 -0.02 l-0.02 -0.06 l-0.02 0 l0 0.04 c0.02 0.02 0.02 0.04 0.04 0.04 z M3.84 5 c-0.02 0 -0.04 -0.02 -0.04 -0.04 l0 -0.04 c0 -0.02 0 -0.02 0.02 -0.02 s0.04 0.02 0.04 0.04 l0 0.02 z M10.76 5.16 l0.08 -0.04 c0 -0.02 -0.04 -0.02 -0.08 -0.02 s-0.06 0.02 -0.06 0.04 z M11.86 5.18 c0 -0.02 0 -0.06 -0.02 -0.06 l-0.02 -0.02 l-0.02 0.02 l0.04 0.06 l0.02 0 z M11.8 5.279999999999999 c0 -0.02 0 -0.06 -0.02 -0.08 l-0.02 0 l-0.02 0.02 l0.04 0.06 l0.02 0 z M12.74 5.52 c-0.02 0 -0.04 -0.02 -0.04 -0.04 l0 -0.02 l0.04 -0.02 c0.02 0 0.04 0.02 0.04 0.04 z M12.1 5.619999999999999 l0 -0.02 l-0.02 -0.06 l-0.02 0 l0 0.04 z M11.98 5.68 l0.02 -0.08 l-0.04 -0.02 c-0.02 0 -0.02 0 -0.02 0.02 l0 0.02 c0 0.02 0.02 0.06 0.04 0.06 z M3.04 5.960000000000001 l-0.04 -0.08 l0.04 -0.1 c0.02 -0.02 0.02 -0.06 0.02 -0.08 l-0.02 -0.06 l-0.04 0 l0 0.04 c0 0.02 0 0.02 -0.02 0.02 l-0.04 0 l-0.02 0.08 c0.02 0.1 0.06 0.18 0.12 0.18 z M11.84 5.859999999999999 c0.06 0 0.12 -0.02 0.12 -0.06 s-0.02 -0.08 -0.04 -0.08 s-0.02 0 -0.02 0.02 l0 0.04 c0 0.02 0 0.04 -0.02 0.04 c-0.04 0 -0.08 -0.04 -0.1 -0.1 c-0.04 -0.04 -0.04 -0.06 -0.06 -0.06 s-0.04 0 -0.06 0.04 l-0.04 0.06 c0 0.02 0.02 0.02 0.04 0.04 c0.06 0.04 0.12 0.06 0.18 0.06 z M10.34 5.92 c0.04 0 0.06 -0.02 0.06 -0.02 c0 -0.04 -0.04 -0.06 -0.06 -0.06 c-0.04 0 -0.06 0 -0.06 0.02 l0 0.02 c0 0.02 0.02 0.04 0.06 0.04 z M2.66 5.92 l0.02 -0.02 l0 -0.02 l-0.04 -0.02 l-0.04 0.02 c0 0.02 0.02 0.04 0.06 0.04 z M11.46 5.9399999999999995 l0 -0.02 l-0.02 -0.04 l-0.04 0 l0.02 0.04 l0.02 0.02 l0.02 0 z M11.76 6.0600000000000005 l0.06 -0.04 l0.02 -0.04 c0 -0.02 0 -0.02 -0.04 -0.04 l-0.04 0 c-0.02 0 -0.04 0.02 -0.04 0.04 c0 0.04 0.02 0.08 0.04 0.08 z M11.3 6.18 l0 -0.02 l-0.02 -0.04 l-0.02 0 l0 0.04 z M14.82 6.300000000000001 l0.02 -0.02 l0 -0.02 l-0.04 -0.02 l-0.04 0.02 c0 0.02 0.02 0.04 0.06 0.04 z M6.12 6.42 l0 -0.02 l-0.02 -0.04 l-0.02 0 l0 0.04 z M11.24 6.42 l0 -0.02 l-0.02 -0.04 l-0.02 0 l0 0.04 z M1.4 6.52 c0.02 0 0.02 -0.02 0.02 -0.04 l0.02 -0.06 l-0.02 -0.06 l-0.04 0.02 l0 0.12 z M10 6.619999999999999 l0.04 -0.02 l0.02 -0.06 l-0.02 -0.04 l-0.02 0 l-0.02 0.06 l0 0.06 z M11.08 6.619999999999999 l-0.02 -0.06 c-0.02 -0.02 -0.02 -0.04 -0.04 -0.04 l-0.04 0.02 l0.08 0.08 l0.02 0 z M14.24 6.58 l0.04 -0.02 l-0.02 -0.02 l-0.06 0 l0 0.02 z M6.08 6.720000000000001 c0.02 0 0.04 -0.02 0.04 -0.06 l0 -0.04 l-0.04 -0.08 c-0.02 0 -0.02 0.06 -0.04 0.1 l-0.02 0.06 c0 0.02 0.02 0.02 0.06 0.02 z M3.08 6.779999999999999 l0.02 -0.12 c0 -0.06 0.02 -0.1 0.04 -0.1 l0.02 0 l0 0.02 c0 0.04 -0.02 0.08 -0.04 0.12 z M14.72 6.619999999999999 l0 -0.02 l-0.04 -0.02 l-0.04 0.02 c0 0.02 0.02 0.02 0.06 0.02 l0.02 0 z M2.88 6.720000000000001 l0 -0.04 c0 -0.02 -0.04 -0.06 -0.06 -0.06 l-0.04 0.02 l0.02 0.04 z M14.32 6.68 c0.02 0 0.04 0 0.04 -0.02 l-0.02 -0.02 l-0.06 0 c0 0.02 0.02 0.04 0.04 0.04 z M11.34 6.859999999999999 c0.04 0 0.06 -0.04 0.06 -0.1 c0 -0.04 -0.02 -0.08 -0.04 -0.08 s-0.06 0.04 -0.06 0.08 l0 0.06 c0 0.02 0.02 0.04 0.04 0.04 z M14.74 6.800000000000001 c0 0 0 -0.04 -0.04 -0.08 c0 -0.02 -0.02 -0.02 -0.02 -0.02 l0 0.04 l0.04 0.06 l0.02 0 z M3.04 6.92 c-0.02 0 -0.02 -0.02 -0.02 -0.06 c0 -0.02 0.02 -0.04 0.04 -0.04 l0 0.04 c0 0.04 -0.02 0.06 -0.02 0.06 z M14.74 7.1 l0.02 -0.04 c0 -0.04 0 -0.1 -0.02 -0.14 c0 -0.04 -0.02 -0.06 -0.02 -0.06 s-0.02 0.02 -0.02 0.06 l-0.02 0.06 l0.02 0.08 c0.02 0.02 0.02 0.04 0.04 0.04 z M6.18 7.1 c0 -0.02 0 -0.06 -0.02 -0.08 l-0.02 0 l-0.02 0.02 l0.04 0.06 l0.02 0 z M2.6 7.140000000000001 l0 -0.02 l-0.02 -0.04 c-0.02 0 -0.02 -0.02 -0.02 -0.02 l-0.02 0.02 l0.04 0.06 l0.02 0 z M14.26 7.199999999999999 l-0.02 -0.06 c0 -0.04 -0.02 -0.06 -0.04 -0.06 l-0.02 0 l-0.02 0.04 l0.02 0.04 z M14.62 7.199999999999999 c0.02 0 0.04 -0.02 0.04 -0.04 l0 -0.06 c-0.02 0 -0.04 0.04 -0.04 0.06 l0 0.04 z M5.78 7.24 l0.06 -0.08 l-0.04 -0.04 c-0.02 0.02 -0.02 0.04 -0.02 0.08 l0 0.04 z M2.22 7.34 l0.12 -0.12 c0 -0.02 -0.02 -0.02 -0.04 -0.04 l-0.02 0 c-0.02 0 -0.04 0.04 -0.06 0.08 l-0.02 0.08 l0.02 0 z M2.94 7.300000000000001 c-0.02 0 -0.02 -0.02 -0.02 -0.04 c0 -0.04 0.02 -0.06 0.04 -0.06 l0 0.06 z M11.02 7.4399999999999995 c0.04 0 0.06 -0.06 0.08 -0.14 l0 -0.1 c-0.04 0 -0.1 0.12 -0.1 0.18 z M3.04 7.34 c-0.02 0 -0.02 -0.02 -0.02 -0.06 c0 -0.02 0.02 -0.06 0.04 -0.06 l0.02 0.04 z M6.2 7.380000000000001 c0.04 0 0.06 -0.02 0.06 -0.06 l0 -0.02 c0 -0.02 -0.02 -0.02 -0.02 -0.02 l-0.06 0 l-0.02 0.06 l0 0.02 z M10.76 7.34 c0.04 0 0.06 -0.02 0.06 -0.04 l-0.04 -0.02 l-0.04 0 l-0.06 0.04 c0 0.02 0.04 0.02 0.08 0.02 z M14.64 7.92 l0.06 -0.06 l0.04 -0.1 l-0.04 -0.1 l0.06 -0.18 l-0.04 -0.12 l-0.06 -0.08 c-0.02 0.02 -0.02 0.04 -0.04 0.12 l-0.02 0.1 c0 0.02 0 0.02 0.02 0.02 l0.04 -0.02 l0.02 0.04 l0 0.02 c0 0.02 -0.02 0.04 -0.04 0.06 s-0.04 0.1 -0.04 0.18 c0.02 0.08 0.02 0.12 0.04 0.12 z M10.58 7.4 l0.04 -0.06 c0 -0.02 -0.02 -0.04 -0.04 -0.04 c-0.04 0 -0.04 0.02 -0.04 0.04 z M3 7.5 c-0.02 0 -0.02 -0.02 -0.02 -0.06 c0.02 -0.02 0.02 -0.04 0.04 -0.04 s0.02 0.02 0.02 0.04 z M1.04 7.66 l-0.02 -0.02 c0 -0.02 0 -0.06 0.04 -0.1 l0.04 -0.02 l0.02 0 l-0.02 0.12 z M2.98 7.68 c-0.02 0 -0.04 -0.02 -0.04 -0.04 l0 -0.02 l0.02 -0.06 l0.02 0 l0.02 0.04 c0 0.06 -0.02 0.08 -0.02 0.08 z M11.2 7.68 l0.02 -0.02 c0 -0.02 0 -0.04 -0.02 -0.06 l-0.04 0 z M2.4 7.74 c0.02 0 0.02 -0.02 0.02 -0.04 l0 -0.02 c0 -0.02 -0.04 -0.04 -0.06 -0.04 s-0.02 0 -0.02 0.02 l0 0.02 c0 0.02 0.02 0.06 0.06 0.06 z M14.1 7.92 l0.04 -0.06 l0.02 -0.18 l-0.02 -0.04 c-0.02 0 -0.04 0.04 -0.04 0.1 l0 0.18 z M2.28 7.82 l0.04 -0.02 l-0.02 -0.04 c0 -0.04 -0.02 -0.08 -0.04 -0.08 l-0.02 0.08 c0 0.04 0.02 0.06 0.04 0.06 z M2.92 7.92 c-0.02 0 -0.04 -0.02 -0.04 -0.04 l0 -0.02 c0 -0.02 0.02 -0.04 0.04 -0.04 s0.02 0 0.02 0.02 l0 0.04 z M10.8 7.960000000000001 c0 -0.02 0 -0.06 -0.02 -0.06 l-0.02 -0.02 c-0.02 0 -0.02 0.02 -0.02 0.04 c0.02 0.02 0.02 0.04 0.04 0.04 l0.02 0 z M2.84 8.12 c-0.02 0 -0.02 -0.02 -0.02 -0.06 l0.04 -0.04 c0.02 0 0.02 0.02 0.02 0.04 z M14.64 8.12 c0.04 0 0.06 -0.02 0.06 -0.06 l0 -0.02 l-0.04 -0.02 c-0.02 0 -0.04 0.02 -0.06 0.04 c0 0.04 0.02 0.06 0.04 0.06 z M10.66 8.22 c0.02 0 0.04 -0.04 0.06 -0.06 l0.04 -0.08 l-0.02 -0.04 l-0.08 0.04 c-0.04 0.02 -0.06 0.06 -0.06 0.1 c0 0.02 0.02 0.04 0.06 0.04 z M14.64 8.4 c0.02 0 0.04 -0.02 0.04 -0.04 l-0.02 -0.06 c0 -0.04 -0.02 -0.06 -0.02 -0.06 l-0.02 0 c-0.02 0 -0.02 0.02 -0.04 0.04 l-0.02 0.1 z M10.14 8.4 l0 -0.06 c0 -0.04 0 -0.06 -0.04 -0.06 l-0.08 0.04 l0.04 0.04 z M2.24 8.44 l0 -0.02 l-0.02 -0.06 c-0.02 0 -0.02 0.02 -0.02 0.04 c0.02 0.02 0.02 0.04 0.04 0.04 z M10.02 8.5 l0.04 -0.06 c0 -0.02 -0.02 -0.04 -0.04 -0.04 c-0.04 0 -0.04 0.02 -0.04 0.04 z M10.4 8.54 l0.06 -0.02 l0.04 -0.04 l-0.02 -0.02 c-0.02 0 -0.04 0 -0.06 0.04 z M6.36 8.72 c0.02 0 0.04 -0.04 0.04 -0.12 l0 -0.06 c0 -0.04 0 -0.08 -0.02 -0.08 s-0.02 0.02 -0.04 0.04 l-0.04 0.08 l0.02 0.08 z M14.66 8.66 c0.02 0 0.04 -0.04 0.04 -0.1 l0 -0.04 l-0.02 0 l-0.04 0.02 l-0.02 0.06 c0 0.02 0 0.04 0.02 0.06 l0.02 0 z M14.1 8.62 l0 -0.02 l-0.02 -0.04 l-0.04 0 l0.02 0.04 c0 0.02 0.02 0.02 0.02 0.02 l0.02 0 z M14.04 8.96 l0.04 -0.04 c0.02 -0.02 0.04 -0.04 0.04 -0.06 l-0.02 -0.06 l0.02 -0.02 c0.02 0 0.04 -0.02 0.04 -0.04 c-0.02 -0.04 -0.04 -0.06 -0.06 -0.06 c-0.04 0.02 -0.08 0.06 -0.08 0.16 l0 0.08 c0 0.02 0 0.04 0.02 0.04 z M6.42 8.86 l0 -0.02 l-0.02 -0.04 l-0.02 0 l0 0.04 z M6.52 8.86 l0 -0.02 l-0.02 -0.04 l-0.02 0 l0 0.04 z M8.96 8.86 l0 -0.02 l-0.02 -0.04 l-0.02 0 l0 0.04 z M10.24 9 c0.02 0 0.02 -0.02 0.04 -0.04 l0.02 -0.16 c-0.02 0 -0.04 0.02 -0.06 0.06 c-0.02 0.06 -0.02 0.12 -0.02 0.14 l0.02 0 z M10.82 9.02 l0 -0.04 c0 -0.02 0.02 -0.06 0.04 -0.06 l0 0.06 c0 0.02 -0.02 0.04 -0.04 0.04 z M0.84 9.06 l0 -0.02 l-0.02 -0.04 c0 -0.02 -0.02 -0.02 -0.02 -0.02 l0 0.04 c0.02 0.02 0.02 0.04 0.04 0.04 z M14.08 9.32 c0.02 0 0.02 -0.02 0.02 -0.04 l0 -0.02 c0 -0.02 -0.02 -0.04 -0.04 -0.04 l-0.02 0.04 l0 0.02 c0 0.02 0.02 0.04 0.04 0.04 z M10.44 9.36 l0.04 -0.02 l0 -0.02 c0 -0.04 -0.02 -0.06 -0.04 -0.06 c0 0 -0.02 0.02 -0.02 0.06 l0 0.02 s0 0.02 0.02 0.02 z M14.1 9.4 l-0.02 -0.02 l-0.04 -0.02 s-0.02 0 -0.02 0.02 l0 0.02 l0.08 0 z M6.1 9.44 l0 -0.02 l-0.02 -0.04 s0 -0.02 -0.02 -0.02 l0 0.04 c0.02 0.02 0.02 0.04 0.04 0.04 z M14.08 9.58 c0.02 -0.02 0.02 -0.06 0.02 -0.08 l-0.04 -0.02 l-0.02 0 l-0.02 0.06 l0 0.02 c0 0.02 0.02 0.02 0.04 0.02 l0.02 0 z M9.72 9.6 l0.04 -0.02 l-0.02 -0.02 l-0.06 0 l0 0.02 z M6.5 9.84 c0.02 0 0.04 -0.04 0.04 -0.1 c-0.02 -0.04 -0.04 -0.1 -0.08 -0.12 l-0.02 -0.02 l0 0.04 l0.04 0.04 l-0.02 0.04 l-0.02 0.06 c0 0.02 0.02 0.06 0.06 0.06 z M9.86 9.82 c0.02 0 0.04 -0.02 0.06 -0.04 c0.04 -0.02 0.06 -0.06 0.08 -0.08 l-0.06 0 c-0.04 0 -0.08 0.04 -0.08 0.08 l0 0.04 z M1.96 9.74 c0.02 0 0.04 0 0.04 -0.02 l-0.02 0 c0 -0.02 -0.02 -0.02 -0.02 -0.02 l-0.04 0.02 z M10.44 9.9 c-0.02 0 -0.04 0 -0.08 -0.04 l-0.02 -0.06 l0.06 0.02 l0.04 -0.04 l0.04 -0.02 c0.02 0 0.02 0 0.02 0.02 l0 0.02 c0 0.04 0 0.06 -0.02 0.08 z M10.06 9.94 l0.02 -0.08 c0 -0.04 -0.02 -0.06 -0.02 -0.06 l-0.02 0.02 c-0.02 0.02 -0.02 0.04 -0.02 0.06 c0 0.04 0.02 0.06 0.04 0.06 z M2 9.98 l0 -0.02 c0 -0.02 -0.04 -0.04 -0.08 -0.06 l-0.04 0 l0.04 0.02 c0.02 0.04 0.06 0.06 0.08 0.06 z M9.58 9.98 c0.02 0 0.04 -0.02 0.04 -0.04 l0 -0.02 l-0.08 -0.02 l-0.04 0.02 l0 0.02 z M9.82 9.98 c0.02 0 0.04 0 0.04 -0.02 l-0.14 -0.06 l0 0.04 c0.02 0.02 0.08 0.04 0.1 0.04 z M6.24 10.06 c0 -0.02 0 -0.04 -0.02 -0.06 l-0.04 0 l0.02 0.04 l0.02 0.02 l0.02 0 z M1.88 10.24 c0.04 0 0.06 -0.02 0.06 -0.06 l-0.02 -0.1 c-0.04 -0.04 -0.04 -0.06 -0.06 -0.06 s-0.04 0.02 -0.06 0.06 c-0.02 0.02 -0.02 0.04 -0.02 0.06 s0 0.04 0.04 0.08 c0.02 0.02 0.04 0.02 0.06 0.02 z M9.76 10.16 l0 -0.02 l-0.02 -0.04 c0 -0.02 0 -0.02 -0.02 -0.02 l0 0.04 c0.02 0.02 0.02 0.04 0.04 0.04 z M6.22 10.26 c0.04 0 0.04 -0.02 0.04 -0.06 l-0.06 -0.08 l-0.02 0.08 c0 0.04 0.02 0.06 0.04 0.06 z M10.1 10.46 c-0.04 0 -0.06 0 -0.08 -0.02 l0.08 -0.18 c0.04 -0.06 0.08 -0.1 0.1 -0.1 l0.02 0 c0 0.02 -0.02 0.08 -0.04 0.1 l-0.02 0.1 l0 0.04 c0 0.04 -0.02 0.06 -0.06 0.06 z M9.64 10.42 l0.04 -0.06 c0.04 -0.06 0.04 -0.1 0.04 -0.12 l-0.02 0 c-0.02 0.02 -0.04 0.04 -0.04 0.1 z M14.42 10.36 l-0.02 -0.02 l0.04 -0.08 c0.02 0 0.02 0.04 0.02 0.06 s-0.02 0.04 -0.04 0.04 z M9.26 10.36 l0.02 -0.04 l0 -0.06 c-0.02 0 -0.04 0.04 -0.04 0.06 s0 0.04 0.02 0.04 z M13.5 10.44 l0 -0.02 l-0.02 -0.04 l-0.02 0 l0 0.04 z M0.52 11.18 c0.02 0 0.04 -0.04 0.04 -0.1 l0 -0.18 c0 -0.16 0.02 -0.32 0.04 -0.34 l-0.02 -0.12 c-0.04 0 -0.06 0.1 -0.08 0.24 l-0.02 0.38 c0 0.1 0 0.12 0.04 0.12 z M1.84 10.68 l0.04 -0.02 l0.04 -0.08 l-0.04 -0.06 l-0.08 -0.04 c-0.02 0 -0.04 0 -0.04 0.02 l0 0.02 c0.02 0.02 0.04 0.08 0.04 0.12 z M6.3 10.58 c0.02 -0.02 0.02 -0.06 0.02 -0.08 l-0.04 -0.02 l-0.02 0 l-0.02 0.06 l0 0.02 c0 0.02 0.02 0.02 0.04 0.02 l0.02 0 z M8.44 10.56 l0.04 -0.02 l-0.02 -0.02 l-0.06 0 l0 0.02 z M6.62 11.04 c0.04 0 0.08 -0.14 0.08 -0.24 c0 -0.06 0 -0.08 -0.02 -0.1 c-0.02 0 -0.06 -0.06 -0.06 -0.1 l-0.02 -0.04 s-0.02 0.04 -0.02 0.1 c-0.02 0.08 -0.04 0.16 -0.06 0.18 c-0.02 0 -0.02 0.02 -0.02 0.04 c0 0.04 0.06 0.14 0.12 0.16 z M9.22 10.64 c0 -0.02 0 -0.06 -0.02 -0.06 l-0.02 -0.02 l-0.02 0.02 l0.04 0.06 l0.02 0 z M9.52 10.74 c0.02 0 0.04 -0.02 0.06 -0.04 l0.04 -0.08 c0 -0.02 -0.02 -0.04 -0.04 -0.04 c0 0 -0.04 0 -0.06 0.04 l-0.08 0.04 l-0.04 0 l0.02 0.02 c0.04 0.04 0.06 0.06 0.1 0.06 z M10.06 10.78 l0 -0.04 c0 -0.04 0.02 -0.06 0.02 -0.06 l0.02 0 l0.02 0.02 l-0.02 0.06 z M1.9 10.84 l0.02 -0.02 s0 -0.04 -0.04 -0.06 c-0.02 0 -0.02 0 -0.02 0.04 z M13.9 10.86 c0.02 0 0.04 -0.02 0.04 -0.04 l0 -0.02 c0 -0.02 -0.02 -0.02 -0.04 -0.02 l-0.04 0 l-0.04 0.04 l0.02 0.02 c0.02 0.02 0.04 0.02 0.06 0.02 z M1.76 11 c0.02 0 0.02 -0.02 0.04 -0.06 c0 -0.06 0 -0.14 -0.02 -0.14 s-0.04 0.06 -0.04 0.12 l0 0.06 z M9.28 10.92 c0 -0.02 0 -0.04 -0.04 -0.06 c-0.02 0 -0.02 0 -0.02 0.04 l0.04 0.02 l0.02 0 z M9.54 10.98 l-0.02 -0.02 c0 -0.02 -0.02 -0.02 -0.04 -0.02 c0 0 -0.02 0 -0.02 0.02 l0 0.02 l0.08 0 z M14.22 11.46 c0.06 0 0.16 -0.08 0.22 -0.18 c0.02 -0.04 0.04 -0.1 0.04 -0.14 s-0.02 -0.08 -0.04 -0.08 l-0.08 0.04 l-0.04 -0.02 c-0.02 0 -0.06 0.02 -0.1 0.06 c-0.02 0.04 -0.02 0.06 -0.02 0.1 l0.02 0.04 l0.04 0.02 l-0.04 0.04 c-0.04 0.02 -0.06 0.06 -0.06 0.08 z M13.86 11.14 l0.04 -0.02 l-0.02 -0.02 l-0.04 -0.02 l-0.02 0.02 c0 0.02 0 0.04 0.04 0.04 z M1.76 11.22 l0 -0.02 l-0.02 -0.06 l-0.02 0 l0 0.04 c0.02 0.04 0.02 0.04 0.04 0.04 z M6.26 11.4 c0.06 0 0.1 -0.06 0.12 -0.1 l-0.02 0 l0.02 -0.06 l-0.06 0 l-0.08 -0.04 c-0.04 -0.04 -0.06 -0.04 -0.06 -0.04 c-0.02 0 -0.02 0.04 -0.02 0.1 c0 0.12 0.02 0.14 0.1 0.14 z M13.98 11.28 c0.02 0 0.04 -0.02 0.04 -0.06 c0 -0.02 -0.02 -0.04 -0.04 -0.04 s-0.04 0.02 -0.04 0.04 z M6.68 11.4 l0.02 -0.06 l-0.02 -0.08 l-0.04 -0.08 l-0.02 0.08 c0 0.1 0.02 0.14 0.04 0.14 l0.02 0 z M13.84 11.32 l0.02 -0.02 l0 -0.02 c0 -0.04 -0.02 -0.06 -0.02 -0.06 c-0.02 0 -0.04 0.02 -0.04 0.06 c0 0.02 0 0.04 0.04 0.04 z M5.96 11.32 l0 -0.04 l-0.02 -0.04 l-0.02 0 l0 0.04 z M6.32 11.52 l0.04 -0.02 l0 -0.02 l-0.08 0 l-0.02 0.02 z M8.94 11.62 l0.02 -0.06 l0 -0.04 c-0.02 0 -0.04 0.02 -0.04 0.04 s0 0.06 0.02 0.06 z M9.2 11.62 c0.02 0 0.04 -0.04 0.04 -0.06 l-0.04 -0.04 c-0.02 0 -0.04 0.02 -0.04 0.04 s0 0.06 0.04 0.06 z M6.7 11.92 l0.04 -0.02 l0.04 -0.08 l-0.04 -0.1 l0.04 -0.14 c0 -0.02 -0.02 -0.02 -0.06 -0.02 c-0.06 0 -0.08 0.08 -0.08 0.18 l0.02 0.14 c0.02 0.04 0.02 0.04 0.04 0.04 z M12.64 11.7 l-0.02 -0.04 l0 -0.04 l0.02 0 l0.02 0.06 z M1.68 11.7 l0.02 -0.02 s0 -0.04 -0.02 -0.06 l-0.02 0 c-0.02 0 -0.02 0.02 -0.02 0.04 z M13.7 11.74 l0.06 -0.02 c0.04 -0.02 0.06 -0.04 0.06 -0.08 l-0.04 -0.02 l-0.04 0.04 z M6.04 11.84 l0.02 -0.02 l-0.02 -0.06 c-0.02 -0.06 -0.04 -0.1 -0.06 -0.1 l0 0.1 c0 0.04 0.02 0.08 0.06 0.08 z M6.26 11.84 c0.06 0 0.1 -0.02 0.12 -0.04 l0.02 -0.08 c0 -0.04 -0.04 -0.06 -0.12 -0.06 c-0.04 0 -0.06 0 -0.06 0.02 l0.02 0 c0.06 0.02 0.08 0.06 0.08 0.08 s-0.02 0.06 -0.06 0.06 l-0.04 0.02 l0.04 0 z M0.38 11.94 l0.04 -0.06 l0.02 -0.1 l-0.02 -0.08 l-0.02 -0.02 s-0.02 0.04 -0.02 0.1 l-0.02 0.12 c0 0.04 0 0.04 0.02 0.04 z M9.16 11.84 l-0.02 -0.1 l-0.04 -0.02 z M13.9 11.9 c0.02 0 0.04 -0.04 0.04 -0.08 c0 -0.02 0 -0.04 -0.02 -0.04 l-0.02 0 c-0.02 0.02 -0.02 0.04 -0.02 0.08 z M9.62 11.96 l0.02 -0.12 c0 -0.04 0.02 -0.06 0.04 -0.06 c0 0 0.02 0 0.04 0.04 l0.02 0.04 l-0.04 0.08 z M6.38 11.98 l-0.02 -0.02 l-0.12 0 c0 0.02 0.04 0.02 0.08 0.02 l0.06 0 z M14.36 12.02 l0 -0.02 l-0.02 -0.04 l-0.02 0 l0 0.04 z M8.98 12.16 c0.02 0 0.04 -0.02 0.06 -0.04 l0.04 -0.1 l0 -0.02 l-0.02 0 c-0.04 0 -0.1 0.08 -0.1 0.12 z M9.42 12.32 c-0.04 0 -0.06 -0.02 -0.06 -0.06 s0.02 -0.06 0.06 -0.06 l0.04 0 c0.04 0 0.06 -0.02 0.08 -0.06 c0 -0.06 0.04 -0.1 0.06 -0.1 l0.02 0.02 l-0.04 0.12 c-0.02 0.06 -0.04 0.1 -0.06 0.1 l-0.04 -0.02 l-0.04 -0.04 l-0.02 0.02 l0.02 0.02 c0 0.04 0 0.06 -0.02 0.06 z M6.02 12.120000000000001 c0 -0.02 0 -0.04 -0.02 -0.06 c-0.02 0 -0.02 -0.02 -0.02 -0.02 l-0.02 0.02 l0.04 0.06 l0.02 0 z M13.8 12.14 l0.02 -0.02 l0 -0.02 l-0.06 0 l0 0.02 z M12.82 12.24 l0.04 -0.02 l-0.02 -0.02 l-0.04 -0.02 l-0.02 0.04 z M8.96 12.32 l0.04 -0.02 l0 -0.02 c0 -0.02 0 -0.02 -0.02 -0.02 l-0.04 0 l-0.06 0.04 c0 0.02 0.04 0.02 0.08 0.02 z M13.74 12.440000000000001 c0.04 0 0.1 -0.02 0.14 -0.04 s0.04 -0.02 0.04 -0.04 l-0.14 -0.06 c-0.06 0 -0.14 0.02 -0.14 0.06 l0.02 0.04 c0 0.02 0.02 0.04 0.04 0.04 l0.04 0 z M12.82 12.42 l0.04 -0.04 l-0.02 -0.06 l-0.04 0.06 c0 0.02 0 0.04 0.02 0.04 z M6.3 12.620000000000001 l0.04 -0.02 l0.02 -0.06 l-0.02 -0.08 c-0.02 -0.04 -0.06 -0.06 -0.08 -0.08 c-0.02 0 -0.02 0.02 -0.02 0.06 l0.02 0.1 c0.02 0.06 0.02 0.08 0.04 0.08 z M13.26 12.52 l0.08 -0.02 l0 -0.02 c0 -0.02 -0.04 -0.04 -0.08 -0.04 s-0.08 0.02 -0.08 0.04 l0 0.02 z M13.06 12.54 l0.04 -0.04 c0 -0.02 -0.04 -0.02 -0.08 -0.02 l-0.04 0.02 l0 0.02 c0 0.02 0.02 0.02 0.04 0.02 l0.04 0 z M8.84 12.7 l0.04 -0.04 c0.04 -0.02 0.04 -0.08 0.04 -0.1 s-0.04 -0.04 -0.08 -0.04 c-0.02 0 -0.04 0.02 -0.04 0.06 l0 0.04 c0.02 0.04 0.02 0.08 0.04 0.08 z M13.64 13.04 c0.02 0 0.04 -0.08 0.04 -0.2 c0 -0.16 0 -0.24 -0.02 -0.26 c-0.02 0 -0.04 0.02 -0.06 0.06 c-0.02 0.02 -0.02 0.04 -0.02 0.08 c0 0.02 0 0.06 0.02 0.08 l0.02 0.14 l-0.02 0.08 z M13.8 12.719999999999999 c0.04 0 0.04 -0.04 0.04 -0.06 s-0.02 -0.04 -0.04 -0.04 l-0.04 0.04 c0 0.02 0.02 0.06 0.04 0.06 z M13.3 12.8 l0 -0.02 l-0.04 -0.02 l-0.08 0.02 c0 0.02 0.02 0.02 0.06 0.02 l0.06 0 z M8.72 13.04 l0.06 -0.1 c0.04 -0.06 0.06 -0.12 0.06 -0.14 l0 -0.02 c-0.02 0 -0.06 0.06 -0.08 0.14 z M14.22 13.36 l-0.02 -0.06 c0 -0.04 0.02 -0.1 0.04 -0.12 l0 -0.02 c0 -0.02 -0.02 -0.04 -0.06 -0.06 l-0.04 -0.04 c0 -0.02 0 -0.02 0.02 -0.02 s0.04 -0.02 0.04 -0.04 l-0.04 -0.08 c-0.02 -0.06 -0.02 -0.1 -0.04 -0.1 c-0.02 0.02 -0.02 0.06 -0.04 0.14 l-0.02 0.16 c0 0.06 0.02 0.1 0.06 0.16 l0.08 0.08 l0.02 0 z M6.5 13 c0.02 0 0.02 -0.04 0.02 -0.08 c-0.02 -0.04 -0.04 -0.06 -0.06 -0.06 l-0.02 0.06 c0 0.04 0.02 0.08 0.06 0.08 z M6.82 13.32 l0.04 -0.02 c0.02 -0.02 0.04 -0.08 0.04 -0.12 l0 -0.06 c-0.04 -0.12 -0.06 -0.18 -0.1 -0.18 c-0.02 0 -0.04 0.04 -0.04 0.1 c0 0.2 0.02 0.28 0.06 0.28 z M6.34 13.14 c0.04 0 0.04 -0.04 0.04 -0.08 c-0.02 -0.02 -0.04 -0.04 -0.06 -0.04 l-0.02 0 l-0.02 0.08 c0.02 0.02 0.04 0.04 0.06 0.04 z M6.38 13.46 c0.02 0 0.04 -0.02 0.06 -0.08 c0.02 -0.04 0.06 -0.1 0.1 -0.1 l0.02 -0.04 l-0.02 -0.08 c-0.02 -0.04 -0.04 -0.08 -0.06 -0.08 l-0.02 0 l-0.02 0.04 l0.06 0.1 l-0.08 -0.02 c-0.06 0 -0.1 0.06 -0.1 0.12 l0.02 0.06 z M13.28 13.2 l0.04 -0.06 c0 -0.02 0 -0.04 -0.02 -0.04 l-0.04 0.04 z M1.94 13.18 l-0.02 0 l-0.04 -0.06 l0.02 -0.02 l0.02 0.02 c0.02 0 0.02 0.04 0.02 0.06 z M8.88 13.18 l0 -0.02 c0 -0.02 0 -0.04 -0.02 -0.04 c0 -0.02 -0.02 -0.02 -0.02 -0.02 l0 0.04 c0.02 0.02 0.02 0.04 0.04 0.04 z M13.62 13.18 l0.06 -0.02 c0 -0.02 -0.06 -0.04 -0.1 -0.04 c-0.02 0 -0.02 0 -0.02 0.02 s0.02 0.04 0.06 0.04 z M8.68 13.24 c0.02 0 0.04 -0.02 0.04 -0.06 l-0.04 -0.04 c-0.02 0 -0.04 0.02 -0.04 0.04 c0 0.04 0.02 0.06 0.04 0.06 z M6.18 13.34 c0.04 0 0.08 -0.02 0.08 -0.06 c-0.02 -0.02 -0.04 -0.02 -0.08 -0.02 s-0.08 0.02 -0.1 0.04 c0 0.02 0.04 0.04 0.1 0.04 z M1.46 13.379999999999999 c0.02 0 0.02 -0.02 0.02 -0.02 l0 -0.02 c0 -0.04 -0.02 -0.06 -0.04 -0.06 c0 0 -0.02 0.02 -0.02 0.06 l0 0.02 z M13.54 13.379999999999999 c0.02 0 0.04 -0.02 0.04 -0.04 c0 -0.04 -0.02 -0.06 -0.04 -0.06 s-0.04 0.02 -0.04 0.06 z M12.94 13.34 l0.02 -0.02 l0 -0.02 l-0.04 -0.02 l-0.04 0.02 c0 0.02 0.02 0.04 0.06 0.04 z M13.28 13.379999999999999 c0.04 0 0.06 -0.02 0.06 -0.02 l0 -0.02 l-0.12 0 l-0.02 0.02 z M1.6 13.48 c0.02 0 0.04 -0.02 0.04 -0.06 c0 -0.02 -0.02 -0.04 -0.04 -0.04 s-0.04 0.02 -0.04 0.04 z M14.14 13.42 l0 -0.02 l-0.04 -0.02 c-0.02 0 -0.04 0 -0.06 0.02 l-0.02 0.02 l0.12 0 z M0.2 13.58 l0.04 -0.06 c0 -0.02 0 -0.04 -0.02 -0.04 l-0.04 0.04 z M6.58 13.559999999999999 c0 -0.02 0 -0.04 -0.02 -0.06 l-0.02 -0.02 l-0.02 0.02 l0.04 0.06 l0.02 0 z M8.56 13.6 l0 -0.02 l-0.02 -0.04 l-0.04 0 l0.02 0.04 l0.02 0.02 l0.02 0 z M8.88 13.76 c0.02 0 0.04 -0.04 0.06 -0.1 l0.04 -0.06 l-0.04 -0.02 c-0.02 0 -0.04 0.04 -0.06 0.08 l0 0.1 z M14.22 13.84 l0 -0.06 c0 -0.04 0.02 -0.1 0.04 -0.12 l0.02 0.06 l-0.02 0.06 c-0.02 0.04 -0.02 0.06 -0.04 0.06 z M8.56 13.719999999999999 c0.02 0 0.04 0 0.04 -0.02 l-0.02 -0.02 l-0.06 0 c0 0.02 0.02 0.04 0.04 0.04 z M6.56 13.8 l-0.02 -0.08 c-0.02 0 -0.02 0.02 -0.02 0.04 c0.02 0.02 0.02 0.04 0.04 0.04 z M13.22 13.86 c0.02 0 0.04 -0.02 0.06 -0.04 c0 -0.04 -0.04 -0.06 -0.08 -0.06 c-0.02 0 -0.04 0.02 -0.04 0.04 l0 0.02 c0 0.02 0.02 0.04 0.06 0.04 z M12.86 13.84 l0 -0.02 l-0.02 -0.04 l-0.04 0 l0.02 0.04 l0.02 0.02 l0.02 0 z M12.68 13.9 l-0.02 -0.1 l-0.04 -0.02 z M13.5 13.92 l0.02 -0.08 c0 -0.04 -0.02 -0.06 -0.02 -0.06 l-0.02 0 l-0.02 0.06 l0 0.02 c0 0.04 0.02 0.06 0.04 0.06 z M1.44 13.96 l0.02 -0.08 c0 -0.04 -0.02 -0.08 -0.06 -0.1 l-0.02 0 l0 0.08 c0.02 0.06 0.04 0.1 0.06 0.1 z M8.44 14 c0.02 0 0.04 -0.02 0.04 -0.04 l0 -0.06 c-0.02 0 -0.04 0.04 -0.04 0.06 l0 0.04 z M8.88 14.18 l-0.02 -0.04 c0 -0.04 0 -0.12 0.02 -0.16 s0.02 -0.06 0.04 -0.06 l0.02 0.06 l-0.02 0.12 c-0.02 0.04 -0.02 0.08 -0.04 0.08 z M13.7 14.1 l-0.02 -0.08 c-0.04 -0.02 -0.06 -0.06 -0.1 -0.06 c-0.02 0 -0.02 0 -0.02 0.02 l0 0.02 c0.02 0.04 0.08 0.1 0.14 0.1 z M6.16 14.1 c0.02 0 0.06 -0.02 0.06 -0.06 l0 -0.04 c0 -0.02 0 -0.02 -0.02 -0.02 s-0.04 0 -0.06 0.04 l-0.02 0.06 z M8.44 14.14 l0.02 -0.02 l0 -0.02 c0 -0.02 -0.02 -0.04 -0.04 -0.04 l-0.02 0.04 l0 0.02 z M12.68 14.14 l0 -0.04 c0 -0.02 -0.04 -0.04 -0.06 -0.04 l-0.04 0.02 l0.02 0.02 z M13.44 14.34 c0.02 0 0.04 -0.04 0.04 -0.08 l0 -0.04 c0 -0.04 0 -0.04 -0.02 -0.06 c-0.02 0 -0.04 0.02 -0.06 0.08 c0 0.06 0 0.1 0.04 0.1 z M12.6 14.379999999999999 l0.04 -0.02 l0.02 -0.06 l-0.02 -0.04 l-0.02 0 c-0.02 0 -0.02 0.04 -0.02 0.06 l0 0.06 z M1.38 14.54 c0.04 0 0.04 -0.04 0.04 -0.06 c-0.02 -0.02 -0.02 -0.04 -0.04 -0.04 s-0.02 0.02 -0.04 0.04 c0 0.02 0.02 0.06 0.04 0.06 z M13.42 14.58 c0.04 0 0.04 -0.02 0.04 -0.04 l-0.04 -0.06 l-0.04 0.06 c0 0.02 0.02 0.04 0.04 0.04 z M13.94 14.620000000000001 l0 -0.02 l-0.02 -0.06 c-0.02 0 -0.02 0.02 -0.02 0.04 c0.02 0.04 0.04 0.04 0.04 0.04 z M13.16 14.66 c0 -0.02 0 -0.04 -0.04 -0.06 l0 -0.02 c-0.02 0 -0.02 0.02 -0.02 0.04 c0.02 0.02 0.02 0.04 0.04 0.04 l0.02 0 z M13.88 16.36 l0.02 -0.1 c0 -0.06 0.02 -0.1 0.06 -0.1 l0.02 0 l-0.04 -0.04 c-0.02 0 -0.02 -0.02 -0.02 -0.06 c0 -0.02 0 -0.06 0.04 -0.12 s0.06 -0.1 0.06 -0.14 l-0.02 -0.08 c-0.02 -0.04 -0.04 -0.16 -0.04 -0.26 l0.02 -0.12 c0 -0.04 -0.02 -0.06 -0.06 -0.08 s-0.04 -0.04 -0.04 -0.06 l0.02 -0.04 l0.02 -0.12 c0 -0.04 0 -0.1 0.02 -0.14 l0.02 -0.04 c0 -0.04 -0.02 -0.06 -0.04 -0.1 l-0.04 -0.02 l-0.02 0 l0.02 0.02 c0 0.02 -0.02 0.12 -0.06 0.18 l-0.02 0.16 c0 0.04 0 0.08 0.02 0.1 l0.02 0.08 l-0.02 0.06 c0 0.02 0.02 0.04 0.06 0.06 c0.02 0.02 0.04 0.02 0.04 0.04 l-0.02 0 c-0.02 0 -0.04 0.04 -0.04 0.1 l0.02 0.14 c0 0.14 0 0.22 -0.04 0.22 c-0.02 -0.02 -0.04 -0.06 -0.04 -0.12 l0 -0.02 c-0.02 0 -0.02 0.02 -0.04 0.06 l-0.02 0.08 c0 0.04 0.02 0.1 0.04 0.14 l0.04 0.1 l-0.02 0.04 c0 0.02 0.02 0.08 0.08 0.18 z M1.72 14.86 c0.02 0 0.02 -0.02 0.04 -0.04 c0 -0.02 0 -0.04 -0.02 -0.04 l-0.04 0.04 c0 0.02 0 0.04 0.02 0.04 z M13.4 15.36 c0.02 0 0.08 -0.04 0.12 -0.1 l0.02 -0.06 l-0.08 -0.22 c0 -0.02 0.02 -0.04 0.04 -0.06 c0.04 -0.02 0.06 -0.06 0.06 -0.08 c0 -0.04 -0.04 -0.06 -0.1 -0.06 c-0.04 0 -0.06 0.06 -0.06 0.14 s-0.02 0.14 -0.04 0.14 s-0.02 0.02 -0.02 0.04 l0 0.06 c0 0.02 0 0.04 -0.02 0.04 l-0.02 0.02 l0.02 0.08 c0.02 0.04 0.04 0.06 0.08 0.06 z M6.72 14.96 c0.02 0 0.04 -0.04 0.04 -0.08 c0 -0.06 0 -0.08 -0.02 -0.1 l-0.08 0.14 c0 0.02 0.02 0.04 0.06 0.04 z M8.62 15.1 c-0.02 0 -0.02 -0.02 -0.02 -0.04 l0 -0.02 c0.02 -0.04 0.04 -0.06 0.06 -0.06 l0.02 0 l0.02 0.04 c0 0.04 -0.04 0.08 -0.08 0.08 z M12.76 15.16 c0.02 0 0.04 -0.02 0.04 -0.04 l0 -0.02 c0 -0.02 -0.02 -0.04 -0.04 -0.04 l-0.04 0.04 c0 0.04 0.02 0.06 0.04 0.06 z M13.44 15.18 l-0.02 0 l-0.02 -0.02 l-0.02 -0.04 l0.04 0 c0.02 0.02 0.02 0.04 0.02 0.06 z M13.1 15.24 c0.02 0 0.02 -0.02 0.02 -0.06 c-0.02 -0.04 -0.04 -0.06 -0.06 -0.06 l-0.02 0.02 l-0.02 0.06 c0.02 0.02 0.04 0.04 0.08 0.04 z M6.38 15.34 l0.02 -0.02 l-0.02 -0.06 l-0.02 0 l0 0.04 z M0.16 15.42 c0 0 0 -0.04 -0.04 -0.08 c0 -0.02 -0.02 -0.02 -0.02 -0.02 l0.02 0.04 c0 0.04 0.02 0.06 0.02 0.06 l0.02 0 z M13.34 16.1 c0.02 0 0.04 0 0.04 -0.02 l-0.04 -0.14 c0 -0.08 0.06 -0.16 0.14 -0.16 c0.02 0 0.02 0 0.02 -0.02 l-0.04 -0.02 c-0.04 -0.02 -0.06 -0.04 -0.06 -0.06 l0.04 -0.02 c0.02 -0.02 0.04 -0.06 0.04 -0.1 l0 -0.04 c-0.02 -0.04 -0.02 -0.06 -0.04 -0.06 s-0.04 0.04 -0.08 0.12 c-0.06 0.14 -0.08 0.26 -0.08 0.34 c0 0.04 0 0.08 0.02 0.1 l0 0.02 c0 0.02 -0.02 0.02 -0.04 0.04 l-0.04 0.02 l0.12 0 z M12.98 15.92 c0.02 0 0.04 0 0.04 -0.02 l-0.02 -0.02 c-0.02 -0.04 -0.06 -0.06 -0.08 -0.06 c-0.04 0 -0.04 0.02 -0.04 0.06 c0.02 0.02 0.06 0.04 0.1 0.04 z M13.26 16.4 c0.02 0 0.04 -0.04 0.04 -0.08 l0 -0.1 c-0.02 0 -0.04 0.02 -0.06 0.06 l-0.02 0.08 c0 0.02 0 0.04 0.04 0.04 z M13.84 16.78 c0.02 0 0.02 -0.02 0.02 -0.06 c0 -0.06 -0.02 -0.12 -0.04 -0.2 l-0.06 -0.2 c-0.02 0 -0.02 0.02 -0.04 0.06 l-0.02 0.08 c0 0.1 0.04 0.22 0.08 0.3 c0 0.02 0.04 0.02 0.06 0.02 z M12.7 16.48 l0.04 -0.02 c0.02 0 0.02 -0.02 0.02 -0.04 s0 -0.04 -0.02 -0.04 c-0.02 -0.04 -0.02 -0.04 -0.04 -0.04 l-0.04 0.02 l-0.02 0.06 c0 0.04 0.02 0.06 0.06 0.06 z M1.38 16.44 l0 -0.02 l-0.02 -0.06 l-0.02 0 l0 0.04 c0.02 0.04 0.04 0.04 0.04 0.04 z M12.98 16.44 c0 -0.02 0 -0.06 -0.02 -0.08 l-0.02 0 l-0.02 0.02 l0.02 0.02 c0 0.04 0.02 0.04 0.04 0.04 z M13.42 16.64 l0.04 -0.04 c0 -0.04 -0.02 -0.06 -0.04 -0.06 c-0.04 0 -0.04 0.02 -0.04 0.06 z M13.7 16.88 l0.04 -0.04 c0 -0.04 0 -0.06 -0.02 -0.06 l-0.04 0.06 c0 0.02 0 0.04 0.02 0.04 z M1.82 17.16 l-0.04 -0.06 c-0.02 -0.06 -0.02 -0.14 -0.02 -0.18 c0.02 -0.02 0.02 -0.04 0.04 -0.04 l0.02 0.04 l0 0.24 z M13.76 17.14 c0.04 0 0.1 -0.08 0.1 -0.16 c0 -0.02 0 -0.04 -0.02 -0.06 c0 -0.02 0 -0.02 -0.02 -0.02 c0 0 -0.02 0.02 -0.02 0.08 s0 0.08 -0.02 0.08 l-0.06 -0.06 c-0.02 -0.04 -0.04 -0.06 -0.06 -0.06 l0 0.06 c0.02 0.06 0.04 0.12 0.08 0.14 l0.02 0 z M13.36 17.14 l0.06 -0.04 c0.02 -0.02 0.04 -0.04 0.04 -0.06 l0 -0.02 l-0.04 0 c-0.04 0 -0.08 0.04 -0.08 0.08 z M6.88 17.06 l-0.02 -0.02 c0 -0.02 -0.02 -0.02 -0.02 -0.02 l-0.04 0.02 c0 0.02 0.02 0.02 0.04 0.02 l0.04 0 z M13.22 17.1 c0 -0.02 0 -0.04 -0.02 -0.06 c-0.02 0 -0.02 -0.02 -0.02 -0.02 l-0.02 0.02 l0.04 0.06 l0.02 0 z M13.24 17.3 c0 -0.02 0 -0.06 -0.04 -0.1 c0 -0.02 -0.02 -0.02 -0.02 -0.02 l0 0.06 l0.04 0.06 l0.02 0 z M13.1 17.259999999999998 l0.04 -0.02 l-0.02 -0.02 l-0.06 0 l0 0.02 z M13.76 17.34 c0.04 0 0.06 -0.02 0.06 -0.02 l0 -0.02 c-0.02 -0.04 -0.08 -0.06 -0.1 -0.06 c-0.04 0 -0.08 0.02 -0.08 0.04 c0 0.04 0.06 0.06 0.12 0.06 z M13.8 17.64 l0.04 -0.02 l0 -0.02 c0 -0.02 -0.04 -0.06 -0.08 -0.1 c-0.04 -0.02 -0.04 -0.04 -0.06 -0.04 l0.02 0.08 c0.02 0.06 0.06 0.1 0.08 0.1 z M13.7 17.78 c0 -0.02 0 -0.06 -0.02 -0.08 l-0.02 0 l-0.02 0.02 l0.02 0.02 c0 0.04 0.02 0.04 0.04 0.04 z M13.72 18.18 c0.02 0 0.02 -0.04 0.02 -0.08 c-0.02 -0.04 -0.06 -0.08 -0.08 -0.08 s-0.02 0.02 -0.02 0.04 l0 0.04 c0.02 0.04 0.04 0.08 0.08 0.08 z M13.68 18.6 c0.02 -0.02 0.04 -0.06 0.04 -0.1 l-0.02 -0.04 l-0.02 0 c-0.04 0.02 -0.06 0.06 -0.06 0.1 c0 0.02 0.02 0.04 0.06 0.04 z M13.64 18.7 l0.04 -0.02 l0 -0.02 l-0.08 0 l-0.02 0.02 c0 0.02 0.02 0.02 0.06 0.02 z M13.6 19.32 c0.02 0 0.04 -0.04 0.08 -0.12 l0.06 -0.12 l-0.1 -0.02 l-0.02 -0.02 l-0.02 0.02 c-0.04 0 -0.04 0.04 -0.04 0.12 c0 0.1 0.02 0.14 0.04 0.14 z M13.66 19.8 c0.02 0 0.04 -0.04 0.06 -0.1 l0.02 -0.06 l-0.02 -0.04 c-0.02 0 -0.06 0.06 -0.08 0.1 c0 0.06 0 0.1 0.02 0.1 z M18.5 20 l-0.04 0 c-0.08 0 -0.24 -0.04 -0.4 -0.08 c-0.54 -0.18 -1.12 -0.6 -1.3 -0.94 c-0.04 -0.06 -0.14 -0.16 -0.24 -0.22 c-0.12 -0.06 -0.42 -0.42 -0.52 -0.62 l-0.1 -0.16 c-0.32 -0.38 -0.54 -0.94 -0.58 -1.52 c0 -0.18 -0.04 -0.36 -0.06 -0.38 l-0.02 -0.06 l0.06 -0.12 l-0.04 -0.12 l-0.02 -0.2 c0.02 -0.02 0.04 -0.24 0.06 -0.48 c0 -0.26 0.04 -0.5 0.06 -0.56 l0.04 -0.12 l-0.02 -0.08 l0.04 -0.32 c0.04 -0.12 0.04 -0.2 0.04 -0.26 c0 -0.1 -0.02 -0.14 -0.08 -0.14 s-0.26 -0.26 -0.3 -0.42 c-0.02 -0.06 -0.06 -0.08 -0.08 -0.08 c-0.08 0 -0.18 -0.28 -0.18 -0.4 l0 -0.08 c0 -0.04 -0.04 -0.16 -0.08 -0.28 l-0.08 -0.24 c0 -0.04 0.04 -0.06 0.08 -0.08 c0.08 -0.04 0.28 -0.08 0.48 -0.08 c0.6 -0.06 0.72 -0.1 0.72 -0.2 c0 -0.04 0.02 -0.06 0.04 -0.06 l0.02 0 l0.04 -0.02 l-0.02 -0.06 c0 -0.06 0.02 -0.1 0.06 -0.1 c0.02 0 0.04 -0.02 0.04 -0.04 l-0.02 -0.04 c-0.02 -0.02 -0.02 -0.06 -0.02 -0.1 c0 -0.08 0.02 -0.18 0.06 -0.18 l0.02 0 c0.06 0 0.12 -0.12 0.12 -0.22 l-0.02 -0.08 l0.04 0 c0.04 0 0.06 -0.02 0.06 -0.04 l0 -0.04 c0 -0.2 0.12 -0.88 0.18 -0.92 l0.02 -0.06 l0 -0.02 c0 -0.06 0.04 -0.22 0.16 -0.54 c0.06 -0.12 0.08 -0.22 0.08 -0.24 c0 -0.04 0.2 -0.58 0.24 -0.62 c0.04 -0.02 0.08 -0.14 0.1 -0.26 c0.02 -0.14 0.1 -0.4 0.18 -0.58 l0.12 -0.36 c0 -0.1 0.22 -0.68 0.3 -0.8 c0.02 -0.06 0.06 -0.16 0.06 -0.2 c0 -0.06 0 -0.08 -0.08 -0.08 l-0.14 0.02 c-0.12 0 -0.22 0 -0.24 -0.04 c0 -0.02 0.06 -0.04 0.14 -0.04 s0.16 -0.02 0.18 -0.06 c0 -0.02 0.04 -0.04 0.1 -0.04 l0.04 0 c0.02 0 0.04 -0.02 0.04 -0.04 s-0.02 -0.02 -0.04 -0.02 c-0.06 0 -0.16 0.02 -0.32 0.08 c-0.2 0.08 -0.44 0.16 -0.52 0.18 c-0.1 0.04 -0.14 0.06 -0.14 0.08 s0.02 0.02 0.1 0.02 l0.24 -0.02 l0.08 0.02 c0 0.02 -0.12 0.08 -0.26 0.14 c-0.12 0.04 -0.2 0.08 -0.24 0.08 c-0.02 0 -0.04 -0.02 -0.04 -0.04 l-0.02 -0.06 c0 -0.02 0.02 -0.04 0.04 -0.06 l0.04 -0.04 l0 -0.02 l-0.06 0.02 c-0.36 0.14 -0.54 0.24 -0.54 0.3 l0 0.04 c0 0.02 0 0.02 -0.02 0.02 l-0.04 0 c-0.04 0 -0.22 0.06 -0.4 0.16 c-0.16 0.1 -0.34 0.18 -0.38 0.18 c-0.1 0 -0.44 -0.26 -0.48 -0.38 c-0.02 -0.06 -0.08 -0.16 -0.14 -0.24 s-0.12 -0.22 -0.14 -0.34 s-0.06 -0.22 -0.1 -0.24 c-0.06 -0.04 -0.1 -0.14 -0.1 -0.24 c0 -0.08 0.02 -0.16 0.06 -0.22 c0.16 -0.18 0.58 -0.42 0.96 -0.52 c0.16 -0.06 0.32 -0.12 0.32 -0.14 c0.02 -0.02 0.12 -0.06 0.24 -0.08 s0.28 -0.08 0.32 -0.12 c0.06 -0.06 0.2 -0.1 0.3 -0.1 c0.18 0 0.26 -0.02 0.26 -0.08 l-0.02 -0.06 s0.02 -0.02 0.06 -0.02 l0.02 0 c0.06 0 0.16 -0.02 0.22 -0.06 c0.2 -0.1 0.62 -0.22 0.78 -0.22 l0.04 0 c0.04 0 0.06 0 0.08 -0.04 c0 -0.02 0.08 -0.04 0.16 -0.04 c0.12 0 0.14 -0.04 0.18 -0.22 c0.02 -0.12 0.04 -0.18 0.1 -0.18 s0.16 0.04 0.28 0.12 s0.24 0.12 0.34 0.12 c0.04 0 0.08 -0.02 0.1 -0.04 s0.44 -0.12 0.84 -0.18 c0.04 -0.02 0.16 -0.04 0.26 -0.06 l0.4 -0.06 c0.14 0 0.26 -0.02 0.28 -0.04 l0.06 -0.02 l0.12 0.04 l0.08 0.02 c0.02 0 0.02 0 0.02 -0.02 l0 -0.02 c0 -0.1 0.64 -0.24 1.1 -0.26 c0.2 0 0.36 -0.02 0.36 -0.04 c0 -0.06 0.44 -0.14 0.9 -0.16 c0.26 -0.02 0.52 -0.04 0.54 -0.06 c0.04 -0.04 0.1 -0.06 0.14 -0.06 c0.04 -0.02 0.7 -0.02 1.14 -0.02 l0.38 0 c0.04 0 0.06 0.02 0.06 0.02 c0 0.04 -0.06 0.08 -0.16 0.08 c-0.12 0 -0.18 0.04 -0.18 0.08 c0 0.02 0 0.04 0.04 0.06 l0.02 0 c0.02 0 0.02 -0.02 0.04 -0.04 l0.02 -0.04 c0.02 0 0.02 0 0.02 0.04 c0.02 0.02 0.04 0.04 0.06 0.04 l0.12 -0.02 c0.12 0 0.26 0.06 0.28 0.12 c0 0.04 0.04 0.08 0.08 0.08 c0.02 0.02 0.04 0.04 0.04 0.06 l0 0.04 c0 0.06 -0.1 0.1 -0.3 0.12 c-0.16 0.02 -0.28 0.06 -0.28 0.08 s0.04 0.02 0.06 0.02 l0.16 -0.02 c0.16 0 0.36 0.06 0.38 0.1 c0 0.04 -0.04 0.08 -0.12 0.08 c-0.06 0.02 -0.1 0.04 -0.1 0.08 c0 0.02 0.06 0.06 0.14 0.08 l-0.12 0 c-0.12 0 -0.28 -0.04 -0.36 -0.06 l-0.08 -0.02 l0.06 0.06 c0.04 0.04 0.08 0.08 0.08 0.1 l-0.32 0.12 c-0.08 0.04 -0.12 0.06 -0.12 0.08 l0.04 0 c0.08 0 0.12 0.04 0.12 0.08 s-0.04 0.08 -0.12 0.08 c-0.28 0.02 -0.64 0.04 -0.7 0.08 l-0.02 0 c-0.02 0 -0.04 -0.02 -0.04 -0.06 l0 -0.02 c0 -0.02 0 -0.02 -0.02 -0.02 l-0.04 0 c-0.02 0.02 -0.04 0.04 -0.04 0.06 l0 0.02 c0 0.02 -0.02 0.04 -0.06 0.04 l-0.04 0 c-0.12 0 -0.28 0.06 -0.28 0.12 s-0.16 0.1 -0.46 0.16 l-0.82 0.16 c-0.18 0.04 -0.48 0.08 -0.64 0.1 l-0.24 0.02 c-0.08 0 -0.1 -0.02 -0.14 -0.08 c-0.04 -0.04 -0.06 -0.08 -0.08 -0.08 l-0.02 0 c-0.02 0 -0.08 0 -0.14 -0.04 l-0.08 -0.04 c0 0.02 0.06 0.08 0.14 0.14 l0.1 0.08 l-0.18 0.1 l-0.04 -0.02 c0 -0.02 0.02 -0.06 0.06 -0.06 l0 -0.02 s-0.04 -0.02 -0.1 -0.02 c-0.08 0 -0.1 0 -0.1 0.02 s0 0.02 0.04 0.04 l0.02 0.02 c0 0.02 0 0.02 -0.02 0.02 l-0.12 -0.02 l-0.28 0 l-0.04 0.04 c0 0.04 0.06 0.06 0.1 0.06 l0.08 -0.02 l-0.04 0.06 c-0.06 0.06 -0.66 0.2 -0.9 0.2 c-0.12 0 -0.26 0.08 -0.26 0.14 l0 0.02 c0 0.02 0.06 0.02 0.12 0.02 l0.16 -0.02 l0.04 0.02 c0 0.02 -0.14 0.06 -0.34 0.12 c-0.12 0.04 -0.2 0.06 -0.2 0.1 l0.04 0.06 l-0.04 0.06 c-0.08 0.08 -0.1 0.16 -0.1 0.22 c0 0.04 0 0.06 0.04 0.1 l0.06 0.06 c0 0.02 -0.04 0.02 -0.08 0.02 c-0.08 0 -0.16 0.16 -0.3 0.58 c0 0.04 -0.08 0.22 -0.14 0.4 l-0.42 1.14 c-0.04 0.08 -0.08 0.2 -0.08 0.24 l0 0.02 c0 0.08 -0.06 0.28 -0.14 0.48 c-0.1 0.24 -0.18 0.48 -0.2 0.56 s-0.06 0.14 -0.08 0.14 s-0.02 0 -0.02 0.02 l0 0.04 c0 0.02 -0.04 0.16 -0.1 0.3 c-0.06 0.12 -0.1 0.24 -0.1 0.28 l0 0.02 c0 0.02 -0.04 0.2 -0.12 0.38 c-0.12 0.32 -0.2 0.62 -0.2 0.74 c0 0.04 0 0.08 0.02 0.08 l0.02 0 l0.02 -0.04 c0 -0.04 0.02 -0.04 0.06 -0.04 l0.04 0.02 l0.08 -0.04 c0.02 -0.02 0.04 -0.04 0.06 -0.04 l0.02 0.02 l0.08 -0.04 c0.06 -0.02 0.18 -0.06 0.3 -0.08 c0.12 0 0.32 -0.06 0.48 -0.12 c0.12 -0.04 0.18 -0.06 0.22 -0.06 s0.06 0.02 0.08 0.06 c0.02 0.02 0.04 0.04 0.06 0.04 l0 -0.02 c0 -0.06 0.28 -0.2 0.54 -0.24 l0.12 -0.02 l0.04 0.02 l-0.06 0.08 l-0.02 0.06 c0 0.02 0 0.02 0.04 0.02 c0.06 0 0.08 -0.02 0.08 -0.04 l0 -0.04 c0 -0.08 0.1 -0.14 0.2 -0.14 l0.1 0 c0.06 0 0.12 -0.02 0.14 -0.04 c0.06 -0.08 0.54 -0.2 0.92 -0.22 c0.1 0 0.22 -0.02 0.24 -0.04 c0.16 -0.12 1.42 -0.36 1.96 -0.36 c0.14 0 0.24 -0.02 0.24 -0.04 c0.02 -0.04 0.08 -0.06 0.12 -0.06 c0.06 0 0.1 0.02 0.1 0.06 c0 0.02 0.04 0.02 0.08 0.02 l0.2 -0.02 l0.04 0.02 l0 0.04 c0 0.02 0.02 0.04 0.04 0.04 s0.04 -0.02 0.04 -0.04 l0 -0.02 c0 -0.02 0.02 -0.04 0.06 -0.06 l0.04 0 c0.02 0 0.04 0.02 0.04 0.1 c0 0.1 0.02 0.12 0.08 0.12 c0.04 0 0.08 -0.02 0.08 -0.04 c0.02 -0.04 0.04 -0.06 0.06 -0.06 c0.04 0 0.1 0.06 0.14 0.14 l0.06 0.12 c0 0.04 -0.04 0.08 -0.08 0.14 s-0.06 0.08 -0.06 0.1 s0.02 0.04 0.04 0.06 c0.04 0.04 0.08 0.06 0.08 0.1 l0 0.04 c0 0.04 0 0.06 -0.02 0.06 l-0.04 -0.02 c-0.02 -0.02 -0.06 -0.04 -0.1 -0.04 l-0.02 0 c-0.02 0.02 -0.04 0.04 -0.04 0.06 s0.04 0.06 0.1 0.06 s0.08 0 0.08 0.02 l-0.02 0.04 c-0.04 0.04 -0.22 0.08 -0.36 0.08 c-0.08 0 -0.14 0 -0.14 -0.04 l0 -0.04 l-0.04 0.04 l-0.06 0.04 c-0.04 0 -0.06 -0.02 -0.12 -0.06 l-0.08 -0.06 l0.08 0.12 l-0.08 0.04 l0.04 0.06 c0 0.02 -0.02 0.02 -0.06 0.02 s-0.08 -0.04 -0.1 -0.1 l0 -0.08 l0.08 0.02 c0 -0.02 -0.06 -0.06 -0.14 -0.1 l-0.1 -0.02 l0.04 0.04 c0.02 0.06 0.04 0.1 0.04 0.14 c0 0.06 -0.02 0.1 -0.08 0.1 c-0.02 0 -0.1 0.06 -0.16 0.12 c-0.04 0.04 -0.1 0.06 -0.14 0.06 l-0.08 0 l0.04 0.1 c0 0.06 -0.06 0.08 -0.16 0.08 l-0.26 -0.04 l-0.04 0.02 l0.04 0.06 c0 0.02 -0.02 0.02 -0.06 0.02 l-0.16 0 c-0.14 0 -0.2 0.02 -0.22 0.08 l0 0.06 c0.02 0 0.04 -0.02 0.06 -0.04 l0.06 -0.04 l0.04 0.04 l0.02 0.04 c0 0.04 -0.08 0.04 -0.26 0.08 l-0.14 0.02 l0.04 -0.06 c0 -0.02 -0.04 -0.04 -0.14 -0.06 l-0.1 -0.02 c-0.1 0 -0.16 0.04 -0.16 0.1 c0 0.04 0 0.06 0.02 0.08 l0.02 0.04 c0 0.02 0 0.04 -0.02 0.04 s-0.06 -0.04 -0.1 -0.08 c0 -0.02 -0.02 -0.04 -0.04 -0.04 c-0.04 0 -0.08 0.02 -0.16 0.06 c-0.1 0.06 -0.28 0.14 -0.4 0.16 c-0.1 0.04 -0.16 0.06 -0.16 0.08 l0.06 0.06 c0 0.02 0 0.02 -0.02 0.02 l-0.26 -0.04 c-0.06 0 -0.1 0.02 -0.14 0.08 c-0.04 0.08 -0.1 0.12 -0.14 0.12 l-0.02 -0.02 l0.04 -0.12 l-0.04 -0.02 l-0.08 0.02 c-0.12 0.04 -0.18 0.06 -0.18 0.1 l0.06 0.1 c0 0.02 -0.02 0.04 -0.04 0.04 s-0.06 -0.02 -0.06 -0.06 c-0.02 -0.02 -0.06 -0.04 -0.1 -0.04 c-0.02 0 -0.04 0.02 -0.04 0.04 l0 0.04 c0 0.02 -0.04 0.04 -0.1 0.06 l-0.04 0 c-0.04 0 -0.06 -0.02 -0.06 -0.04 l0.02 -0.02 c0 -0.02 -0.02 -0.02 -0.04 -0.02 c-0.04 0 -0.1 0 -0.2 0.04 l-0.08 0.02 c0 0.02 0.02 0.02 0.06 0.02 l0.08 0.02 l0 0.02 c-0.02 0.02 -0.16 0.04 -0.3 0.04 l-0.22 0 l0.02 0.02 c0.04 0.02 0.06 0.02 0.06 0.04 s-0.04 0.04 -0.14 0.04 l-0.06 0 c-0.1 0 -0.16 0 -0.16 0.02 l0 0.02 c0 0.04 -0.04 0.06 -0.08 0.08 c-0.16 0.08 -1.08 0.28 -1.2 0.28 c-0.04 0 -0.06 0.02 -0.06 0.02 l0 0.02 c0 0.04 0.08 0.06 0.16 0.06 s0.14 -0.02 0.14 -0.04 s0.08 -0.04 0.2 -0.04 c0.14 0 0.2 0.02 0.2 0.04 s-0.1 0.06 -0.3 0.1 c-0.36 0.06 -0.84 0.2 -0.9 0.24 c-0.02 0.02 -0.08 0.04 -0.12 0.04 c-0.08 0 -0.18 0.28 -0.18 0.44 l0 0.1 c0 0.04 -0.02 0.06 -0.04 0.08 c-0.04 0.02 -0.06 0.12 -0.08 0.22 c0 0.1 -0.02 0.24 -0.04 0.3 l-0.02 0.14 l0 0.08 c0 0.04 -0.02 0.08 -0.04 0.1 c-0.04 0.04 -0.04 0.12 -0.04 0.16 l-0.02 0.44 c-0.1 0.5 -0.1 0.54 -0.12 0.8 l0 0.3 c0 0.32 0.02 0.62 0.06 0.78 c0.06 0.22 0.22 0.36 0.46 0.46 c0.14 0.06 0.76 0.1 1.16 0.1 c0.2 0 0.34 -0.02 0.34 -0.04 s0.12 -0.06 0.24 -0.1 l0.2 -0.04 c0.04 0 0.08 0 0.1 0.04 c0.04 0.02 0.04 0.04 0.06 0.04 l-0.02 -0.04 c0 -0.06 0.02 -0.1 0.08 -0.12 l0.04 0 c0.04 0 0.06 0 0.06 0.02 c0.02 0.02 0.06 0.04 0.1 0.04 s0.06 -0.02 0.06 -0.04 c0 -0.06 0.18 -0.14 0.28 -0.14 l0.08 0.02 l0.04 -0.04 c0 -0.02 0.06 -0.06 0.14 -0.06 c0.06 0 0.12 0 0.14 -0.02 c0.02 -0.04 0.08 -0.04 0.14 -0.06 c0.1 0 0.28 -0.06 0.46 -0.18 l0.06 -0.02 c0.04 0 0.08 0.02 0.12 0.04 l0.06 0.02 l0 -0.02 c0 -0.04 0.04 -0.08 0.12 -0.1 s0.16 -0.06 0.2 -0.1 c0.02 -0.02 0.08 -0.04 0.12 -0.04 l0.06 0 c0.1 0 0.16 -0.02 0.18 -0.08 c0.04 -0.06 0.08 -0.1 0.12 -0.1 s0.1 0.04 0.14 0.08 s0.06 0.08 0.08 0.08 l0 -0.08 c0.02 -0.12 0.06 -0.18 0.12 -0.18 c0.04 0 0.08 0.04 0.1 0.12 l0.04 0.08 l0.04 -0.08 c0.04 -0.1 0.1 -0.12 0.26 -0.12 s0.22 -0.04 0.26 -0.12 s0.12 -0.14 0.18 -0.16 s0.26 -0.08 0.42 -0.16 c0.2 -0.08 0.28 -0.12 0.32 -0.12 s0.04 0.02 0.04 0.06 l0 0.02 c0 0.02 0 0.02 -0.02 0.02 l-0.02 0 c-0.04 0 -0.08 0.02 -0.08 0.06 l0 0.04 c0 0.02 0 0.04 0.04 0.04 l0.18 -0.06 l0.12 -0.02 c0.06 0 0.1 0.02 0.16 0.08 c0.1 0.08 0.14 0.1 0.14 0.16 l-0.06 0.14 c-0.02 0.04 -0.02 0.08 -0.02 0.12 s0 0.08 0.02 0.1 l0.02 0.08 l-0.02 0.02 l-0.04 0.02 l0.02 0.04 l0.06 0.02 l0.08 -0.02 c0.02 -0.02 0.06 -0.04 0.1 -0.04 l0.02 0 c0 0.04 -0.06 0.06 -0.14 0.12 c-0.08 0.04 -0.12 0.06 -0.12 0.08 s0 0.02 0.04 0.04 l0.08 0.04 c0 0.02 -0.02 0.04 -0.08 0.08 s-0.14 0.08 -0.18 0.08 s-0.1 0.06 -0.14 0.12 c-0.02 0.04 -0.06 0.06 -0.08 0.06 l-0.02 0 s-0.08 0.04 -0.16 0.12 c-0.08 0.06 -0.16 0.12 -0.18 0.12 c-0.16 0 -0.54 0.12 -0.54 0.16 l0.08 0.04 c0.04 0 0.08 0.06 0.1 0.1 l0.02 0.06 c0 0.02 -0.02 0.04 -0.04 0.04 l-0.36 -0.06 c-0.06 0 -0.12 0.08 -0.12 0.12 l0.02 0.06 c0 0.06 -0.32 0.26 -0.42 0.26 c-0.04 0 -0.16 0.04 -0.24 0.1 s-0.16 0.1 -0.18 0.1 l-0.3 0.04 c-0.2 0.02 -0.28 0.06 -0.34 0.16 c-0.04 0.06 -0.06 0.08 -0.08 0.08 s-0.02 0 -0.04 -0.04 l-0.02 -0.1 l0 -0.04 c0 -0.02 0 -0.04 -0.02 -0.04 l-0.04 0.02 c-0.06 0.02 -0.12 0.02 -0.16 0.02 s-0.12 0.06 -0.18 0.14 l-0.08 0.08 l0 -0.02 c0 -0.06 -0.02 -0.1 -0.08 -0.1 c-0.04 0 -0.06 -0.02 -0.06 -0.04 l0 -0.02 c0 -0.02 -0.02 -0.04 -0.04 -0.04 s-0.02 0 -0.02 0.02 l0.02 0.1 c0 0.1 -0.1 0.24 -0.18 0.24 c-0.02 0 -0.1 0.06 -0.16 0.12 s-0.1 0.08 -0.12 0.08 c-0.04 0 -0.06 -0.04 -0.08 -0.14 s-0.02 -0.16 -0.06 -0.16 l-0.06 0.1 l-0.08 0.1 l-0.12 0 l-0.02 0.02 l0.04 0.08 c0 0.06 -0.12 0.1 -0.26 0.1 l-0.06 0 c-0.1 -0.02 -0.2 -0.06 -0.24 -0.1 l-0.04 -0.02 l0 0.08 c0 0.04 0 0.06 -0.02 0.06 c-0.04 0 -0.06 -0.02 -0.06 -0.04 s-0.04 -0.02 -0.08 -0.02 c-0.08 0 -0.22 0.02 -0.32 0.08 z M22.96 3.039999999999999 l0.04 -0.02 l-0.02 -0.02 l-0.06 0 l0 0.02 z M21.34 3.3599999999999994 l0.04 -0.02 l-0.02 -0.02 c0 -0.02 -0.02 -0.02 -0.04 -0.02 c0 0 -0.02 0 -0.02 0.02 l0 0.02 z M25.46 3.6000000000000014 l0.02 -0.02 l0.02 -0.06 l0 -0.04 c0 -0.04 -0.06 -0.06 -0.1 -0.08 c-0.06 0 -0.12 0.02 -0.16 0.06 l-0.04 0.04 l0.1 0 c0.06 0 0.12 0.04 0.12 0.06 z M20.52 3.5 c0.06 0 0.08 0 0.08 -0.02 l-0.12 -0.06 l-0.02 0.02 c-0.02 0 -0.02 0 -0.02 0.02 s0.04 0.04 0.08 0.04 z M20.12 3.6000000000000014 c0.02 0 0.04 -0.02 0.04 -0.04 c-0.02 -0.04 -0.02 -0.06 -0.04 -0.06 s-0.04 0.02 -0.04 0.06 l0 0.02 z M24.28 3.6000000000000014 l0 -0.02 l-0.04 -0.02 c-0.02 0 -0.04 0 -0.06 0.02 l-0.02 0.02 l0.12 0 z M24.96 3.6799999999999997 l0 -0.02 c0 -0.02 -0.02 -0.04 -0.06 -0.06 c-0.04 0 -0.06 0 -0.1 -0.02 c-0.02 0 -0.04 0 -0.04 0.02 c0 0.04 0.12 0.08 0.18 0.08 l0.02 0 z M25.04 3.8200000000000003 c0.06 0 0.14 -0.02 0.16 -0.06 l0.04 -0.04 c0.02 0 0.04 0 0.04 0.04 l0.02 0.04 l0.02 0 l0 -0.02 c0 -0.04 -0.1 -0.18 -0.18 -0.18 c-0.1 0 -0.18 0.08 -0.18 0.16 l0 0.02 c0 0.02 0.04 0.04 0.08 0.04 z M19.82 3.66 c0.02 0 0.04 0 0.04 -0.02 l-0.02 -0.02 l-0.06 0 l0 0.02 z M23.82 3.6999999999999993 l0.06 -0.02 c0.02 -0.02 0.04 -0.02 0.04 -0.04 l0 -0.02 l-0.02 0 c-0.02 0 -0.04 0 -0.06 0.04 z M25.5 3.8200000000000003 c0.04 0 0.06 -0.02 0.06 -0.02 l0 -0.02 l-0.1 -0.08 l-0.02 -0.02 c-0.02 0 -0.04 0.02 -0.04 0.06 c0 0.06 0.02 0.08 0.1 0.08 z M24.68 3.8599999999999994 c0.02 0 0.06 -0.02 0.06 -0.04 l0 -0.04 l-0.12 0.06 c0 0.02 0.02 0.02 0.06 0.02 z M24.28 3.960000000000001 c0 -0.02 0 -0.06 -0.02 -0.08 l-0.02 0 l-0.02 0.02 l0.04 0.06 l0.02 0 z M23.740000000000002 4.02 c0.04 0 0.04 -0.02 0.04 -0.04 c0 -0.04 -0.02 -0.06 -0.04 -0.06 l-0.04 0.06 c0 0.02 0.02 0.04 0.04 0.04 z M24.119999999999997 3.960000000000001 l0 -0.02 l-0.04 -0.02 c-0.02 0 -0.04 0 -0.06 0.02 l-0.02 0.02 l0.12 0 z M22.8 4.02 l0 -0.02 c0 -0.02 -0.02 -0.04 -0.06 -0.06 l-0.04 -0.02 l0.02 0.04 c0.02 0.04 0.06 0.06 0.08 0.06 z M24.8 4.119999999999999 c0.08 -0.02 0.14 -0.04 0.14 -0.06 l0.02 -0.04 l0.02 0.04 l0.08 0.04 c0.06 0 0.12 -0.04 0.12 -0.1 l0 -0.02 c-0.02 -0.04 -0.04 -0.04 -0.08 -0.04 l-0.04 0 c-0.1 0.04 -0.16 0.06 -0.38 0.08 c-0.04 0 -0.06 0.02 -0.06 0.04 s0.08 0.06 0.18 0.06 z M22.32 4.08 l0.02 -0.02 l0 -0.02 l-0.04 -0.02 l-0.04 0.02 c0 0.02 0.02 0.04 0.06 0.04 z M23.9 4.26 c0.14 0 0.3 -0.06 0.34 -0.12 c0.02 -0.02 0.02 -0.04 0.02 -0.06 c0 -0.04 -0.02 -0.04 -0.06 -0.04 l-0.04 0 c-0.04 0 -0.08 0 -0.12 0.02 l-0.16 0.04 l-0.04 0 c-0.04 0 -0.08 0.02 -0.1 0.06 l-0.02 0.04 c0 0.02 0.02 0.02 0.08 0.04 z M17.259999999999998 4.18 c0.02 0 0.06 -0.02 0.1 -0.06 c0.02 -0.02 0.04 -0.02 0.04 -0.04 l-0.06 0 c-0.04 0 -0.08 0.02 -0.1 0.04 l0 0.02 c0 0.02 0 0.04 0.02 0.04 z M22.3 4.279999999999999 l0 -0.06 c0 -0.02 -0.04 -0.04 -0.06 -0.04 l-0.04 0.02 l0.02 0.02 c0.04 0.04 0.06 0.06 0.08 0.06 z M23.46 4.359999999999999 c0.06 0 0.12 -0.02 0.16 -0.06 l0.02 -0.02 c0 -0.06 -0.16 -0.1 -0.34 -0.1 c-0.1 0 -0.14 0 -0.14 0.02 l0.08 0.08 c0.06 0.04 0.14 0.08 0.22 0.08 z M23.060000000000002 4.42 l0.18 -0.02 c0.02 -0.02 0.02 -0.04 0.02 -0.06 s-0.02 -0.04 -0.04 -0.04 l-0.04 0.02 c-0.04 0 -0.08 0 -0.12 -0.04 c-0.02 -0.02 -0.06 -0.06 -0.1 -0.06 l-0.02 0.02 l0.04 0.08 l-0.02 0.02 l-0.04 0.02 l0 0.02 c0 0.02 0.06 0.04 0.14 0.04 z M21.58 4.380000000000001 l0.02 -0.02 l0 -0.02 l-0.08 0 c0 0.02 0.02 0.04 0.06 0.04 z M21.2 4.48 c0.02 0 0.04 -0.02 0.06 -0.04 c0 -0.04 0 -0.06 -0.02 -0.06 s-0.04 0.02 -0.04 0.06 l0 0.04 z M21.06 4.48 l0 -0.02 l-0.04 -0.02 l-0.04 0.02 c0 0.02 0.02 0.02 0.06 0.02 l0.02 0 z M20.68 4.58 l0 -0.02 l-0.04 -0.02 c-0.02 0 -0.04 0 -0.06 0.02 l-0.02 0.02 l0.12 0 z M22.06 4.74 l0 -0.02 c0 -0.02 -0.02 -0.02 -0.04 -0.02 l-0.06 0 l-0.02 0.02 c0 0.02 0.02 0.02 0.06 0.02 l0.06 0 z M20.38 5.1 c0.04 0 0.1 -0.02 0.12 -0.08 c0 -0.06 0.02 -0.12 0.04 -0.14 l0.04 -0.02 l-0.04 -0.02 c-0.08 0 -0.22 0.16 -0.22 0.22 l0 0.02 c0 0.02 0.02 0.02 0.06 0.02 z M22.64 4.960000000000001 c-0.08 0 -0.14 -0.02 -0.14 -0.02 c0 -0.02 0.04 -0.04 0.12 -0.06 l0.08 0 l0.04 0.02 l0 0.02 c0 0.02 -0.04 0.04 -0.1 0.04 z M21.32 5.199999999999999 c-0.06 0 -0.08 -0.02 -0.1 -0.04 c0 -0.04 0.04 -0.04 0.1 -0.04 l0.26 0 c0 0.02 -0.02 0.02 -0.06 0.04 c-0.08 0.02 -0.14 0.04 -0.2 0.04 z M20.5 5.380000000000001 l-0.04 0 c-0.04 0 -0.1 -0.02 -0.12 -0.04 l-0.04 -0.06 c0 -0.02 0.04 -0.04 0.08 -0.04 l0.04 0 l0.1 0.04 l0.04 0.06 c0 0.02 -0.02 0.02 -0.06 0.04 z M16.6 6.4399999999999995 l-0.08 0 l0 -0.02 c0 -0.02 0.02 -0.02 0.04 -0.02 c0 0 0.02 0 0.02 0.02 z M19.3 7.119999999999999 c-0.02 0 -0.04 -0.02 -0.04 -0.04 c0 -0.06 0.08 -0.16 0.12 -0.16 c0.02 0 0.04 0.02 0.04 0.04 l-0.02 0.06 c-0.02 0.06 -0.06 0.1 -0.1 0.1 z M19 8.14 l-0.02 -0.1 c0 -0.04 0.02 -0.08 0.06 -0.08 l0.04 0 c0.02 0 0.02 0.02 0.02 0.04 l-0.04 0.08 c-0.02 0.04 -0.04 0.06 -0.06 0.06 z M18.9 8.42 l-0.02 -0.04 l0.02 -0.08 c0.02 -0.04 0.04 -0.08 0.06 -0.08 l0.02 0.06 c0 0.06 -0.04 0.14 -0.08 0.14 z M18.7 8.94 l0 -0.02 c0 -0.1 0.1 -0.4 0.16 -0.4 l0.02 0.02 c0 0.06 -0.04 0.18 -0.12 0.32 c-0.02 0.06 -0.04 0.08 -0.06 0.08 z M18.66 9.16 l-0.02 0 c-0.02 0 -0.04 0 -0.04 -0.02 s0 -0.06 0.02 -0.08 l0.04 -0.02 l0.02 0.04 l0 0.02 z M18.32 10.16 c-0.02 0 -0.04 -0.04 -0.04 -0.1 l0 -0.04 c0 -0.04 0.02 -0.06 0.04 -0.06 s0.04 0.02 0.04 0.06 l0 0.06 c0 0.06 -0.02 0.08 -0.04 0.08 z M17.7 10.44 c0.02 0 0.02 -0.02 0.04 -0.08 l0 -0.24 c-0.02 -0.06 -0.04 -0.1 -0.08 -0.1 c-0.02 0 -0.04 0.02 -0.08 0.1 l-0.02 0.06 c0 0.04 0.02 0.04 0.08 0.04 l0.06 0 l-0.02 0.04 l-0.08 0.04 l-0.06 -0.02 c0 0.02 0.02 0.04 0.06 0.08 c0.06 0.06 0.08 0.08 0.1 0.08 z M24.68 10.26 l-0.02 0 c-0.02 0 -0.02 -0.02 -0.04 -0.04 c0 -0.04 0 -0.04 0.02 -0.04 l0.02 0 c0.02 0.02 0.02 0.06 0.02 0.08 z M17.58 10.78 c0.02 0 0.02 -0.02 0.02 -0.04 c-0.02 -0.04 -0.04 -0.06 -0.08 -0.06 c-0.02 0 -0.02 0 -0.02 0.02 l0.02 0.04 z M18.04 11 c-0.02 0 -0.02 -0.02 -0.02 -0.04 l0 -0.04 c0.02 -0.02 0.02 -0.1 0.02 -0.14 c0.02 -0.06 0.04 -0.1 0.06 -0.1 s0.02 0.04 0.02 0.1 l0 0.06 c-0.02 0.08 -0.06 0.16 -0.08 0.16 z M21.08 10.84 l0.04 -0.02 l-0.02 -0.02 l-0.04 -0.02 l-0.02 0.04 z M25.1 10.88 l-0.02 0 c-0.04 0 -0.06 0 -0.06 -0.02 l0.04 -0.02 l0.04 0.02 l0 0.02 z M24.36 10.98 c0 -0.02 0 -0.06 -0.02 -0.08 l-0.02 0 l-0.02 0.02 l0.04 0.06 l0.02 0 z M24.18 11.04 c0.02 0 0.06 -0.02 0.06 -0.04 l0 -0.04 c0 -0.02 0 -0.02 -0.02 -0.02 c-0.04 0 -0.06 0.02 -0.08 0.06 c0 0.02 0 0.04 0.04 0.04 z M20.66 11 l0.04 -0.02 l-0.02 -0.02 c0 -0.02 -0.02 -0.02 -0.04 -0.02 c0 0 -0.02 0 -0.02 0.02 l0 0.02 z M24.619999999999997 11.2 c0.04 0 0.08 -0.02 0.08 -0.06 l0 -0.02 c0 -0.04 -0.04 -0.08 -0.06 -0.08 s-0.04 0.04 -0.08 0.08 l-0.02 0.04 c0 0.04 0.02 0.04 0.08 0.04 z M17.38 11.24 l0.04 -0.02 l0.02 -0.06 l0 -0.02 c0 -0.02 0 -0.02 -0.02 -0.02 l-0.04 0 c-0.02 0.02 -0.02 0.06 -0.02 0.08 z M23.619999999999997 11.36 c0.02 0 0.02 0 0.02 -0.02 l-0.06 -0.04 l-0.14 -0.04 c0 0.02 0.02 0.02 0.04 0.04 z M23.14 11.34 l0.06 -0.02 c0.02 -0.02 0.04 -0.02 0.04 -0.04 l0 -0.02 l-0.02 0 c-0.02 0 -0.04 0.02 -0.06 0.04 z M22.740000000000002 11.44 l0.08 -0.02 c0.04 -0.02 0.06 -0.04 0.06 -0.08 l-0.04 -0.02 l-0.04 0.04 z M22.56 11.66 l0.26 -0.04 c0.18 -0.06 0.22 -0.08 0.22 -0.12 l0 -0.04 c-0.02 -0.06 -0.02 -0.08 -0.04 -0.08 l-0.06 0.08 c-0.04 0.06 -0.14 0.1 -0.26 0.1 s-0.2 0.02 -0.2 0.06 c0.02 0.02 0.02 0.04 0.08 0.04 z M22.64 11.46 l0.04 -0.02 l0 -0.02 l-0.04 -0.02 l-0.04 0.02 l0 0.02 z M18.28 11.56 l0.04 -0.02 l0 -0.02 l-0.08 0 l0 0.02 z M22.38 11.7 l0.02 -0.04 l-0.04 -0.04 c-0.02 0 -0.02 0.02 -0.02 0.04 c0.02 0.02 0.02 0.04 0.04 0.04 z M21.84 11.76 l0 -0.02 l-0.06 -0.06 l-0.04 0 l0.02 0.02 c0.02 0.04 0.06 0.06 0.08 0.06 z M22.06 11.78 l0.14 -0.04 c0 -0.02 -0.06 -0.02 -0.16 -0.02 c-0.08 0 -0.14 0.02 -0.14 0.04 s0.04 0.02 0.1 0.02 l0.06 0 z M23.759999999999998 11.8 l-0.02 0 l-0.04 -0.06 l0.02 -0.02 s0.02 0 0.02 0.02 c0.02 0.02 0.02 0.04 0.02 0.06 z M21.82 11.9 l0 -0.02 l-0.02 -0.04 s0 -0.02 -0.02 -0.02 l0 0.06 l0.02 0.02 l0.02 0 z M22.98 11.96 c-0.02 0 -0.02 0 -0.02 -0.02 l0 -0.02 c0 -0.02 0.06 -0.04 0.12 -0.04 l0.1 0 z M21.28 11.98 l0.04 -0.02 l0 -0.02 c-0.04 -0.02 -0.1 -0.04 -0.14 -0.04 l-0.04 0 l0.02 0.02 c0.02 0.04 0.08 0.06 0.12 0.06 z M20.7 12.120000000000001 c0.04 0 0.06 -0.02 0.06 -0.04 c-0.02 -0.04 -0.08 -0.06 -0.12 -0.06 s-0.08 0.02 -0.08 0.04 l0.02 0.02 c0.02 0.02 0.08 0.04 0.12 0.04 z M21.32 12.18 l0.04 -0.06 l0 -0.04 c-0.02 0 -0.04 0.02 -0.06 0.04 c0 0.04 0 0.06 0.02 0.06 z M20.439999999999998 12.24 c0.02 0 0.04 -0.04 0.04 -0.06 c-0.02 -0.02 -0.04 -0.06 -0.08 -0.06 c-0.02 0 -0.04 0.04 -0.04 0.06 c0.02 0.02 0.04 0.06 0.08 0.06 z M19.96 12.280000000000001 c0.06 0 0.12 -0.02 0.14 -0.04 c0 -0.04 -0.02 -0.06 -0.06 -0.06 s-0.08 0.02 -0.12 0.06 l-0.04 0.04 l0.08 0 z M20.3 12.219999999999999 l0 -0.02 l-0.04 -0.02 c-0.02 0 -0.04 0 -0.06 0.02 l-0.02 0.02 l0.12 0 z M21.06 12.280000000000001 c0.06 0 0.08 0 0.08 -0.02 l-0.02 -0.02 l-0.12 0 l-0.02 0.02 z M21.62 12.4 l-0.04 0 c-0.04 0 -0.06 0 -0.08 -0.02 c0 -0.02 0.04 -0.04 0.1 -0.04 s0.1 0 0.1 0.02 z M19.9 12.379999999999999 l-0.02 -0.02 l-0.04 -0.02 s-0.02 0 -0.02 0.02 l0 0.02 l0.08 0 z M21.06 12.54 c-0.04 0 -0.08 -0.02 -0.1 -0.04 c0 -0.04 0.02 -0.06 0.04 -0.06 s0.08 0.02 0.1 0.06 l0 0.02 z M21.36 12.6 l-0.04 -0.02 l0.02 -0.04 l0.04 0.02 l0.02 0.02 z M19.72 12.6 c0.04 0 0.06 -0.02 0.06 -0.02 l0 -0.02 l-0.04 -0.02 l-0.08 0.04 z M19.28 13.2 l-0.04 0 c-0.02 0 -0.04 -0.02 -0.04 -0.04 s0.04 -0.04 0.1 -0.04 s0.1 -0.02 0.1 -0.04 l-0.02 -0.04 c0 -0.04 0.08 -0.06 0.18 -0.06 l0.18 0.02 c0.04 0 0.06 -0.02 0.06 -0.04 c0.02 -0.04 0.02 -0.04 0.04 -0.04 l0.02 0.02 c0 0.02 0.02 0.04 0.04 0.04 l0.08 -0.02 c0.04 0 0.08 0 0.08 0.02 s-0.18 0.06 -0.36 0.1 s-0.38 0.1 -0.42 0.12 z M18.78 13.32 c-0.04 0 -0.08 -0.02 -0.1 -0.06 l-0.02 -0.02 c0 -0.02 0.02 -0.02 0.06 -0.02 s0.08 0.02 0.08 0.04 l0 0.02 c0 0.02 0 0.04 -0.02 0.04 z M17.52 13.58 c0.06 0 0.1 -0.04 0.14 -0.08 l0.04 -0.08 c0 -0.02 0 -0.02 -0.02 -0.02 l-0.04 0 l-0.26 0.04 l-0.1 0.04 l0.08 0.04 z M17.18 13.58 l0.04 -0.02 l0 -0.02 l-0.04 -0.02 l-0.04 0.02 c0 0.02 0.02 0.04 0.04 0.04 z M16.68 13.879999999999999 l0 -0.02 c0 -0.02 -0.02 -0.02 -0.04 -0.02 l-0.08 0.02 c0 0.02 0.02 0.02 0.06 0.02 l0.06 0 z M16.66 13.98 l0 -0.02 l-0.04 -0.02 l-0.04 0.02 c0 0.02 0.02 0.02 0.06 0.02 l0.02 0 z M16.46 14.48 l0.02 -0.06 l0 -0.02 l-0.02 -0.04 l-0.04 0.02 c-0.02 0.02 -0.02 0.06 -0.02 0.08 s0.02 0.02 0.04 0.02 l0.02 0 z M17.06 14.5 c-0.02 0 -0.04 -0.02 -0.04 -0.04 c0 -0.04 0 -0.06 0.04 -0.06 c0.02 0 0.04 0.02 0.04 0.06 z M17.02 14.82 c-0.04 0 -0.06 -0.02 -0.08 -0.06 l0.04 -0.08 l0.02 0 c0.02 0 0.04 0.02 0.04 0.06 l0 0.04 c0 0.02 0 0.04 -0.02 0.04 z M16.78 16.2 c-0.04 0 -0.06 -0.04 -0.06 -0.1 c0 -0.08 0.02 -0.16 0.04 -0.2 c0 -0.04 0 -0.06 0.02 -0.06 l0.02 0.06 l0.02 0.16 c0 0.08 -0.02 0.14 -0.04 0.14 z M16.66 16.66 l-0.02 0 l0 -0.04 c0 -0.1 0.04 -0.36 0.08 -0.36 s0.04 0.04 0.04 0.12 c0 0.06 0 0.14 -0.04 0.2 z M24.42 17.240000000000002 c-0.04 0 -0.08 -0.02 -0.08 -0.04 l0 -0.02 c0 -0.02 0.06 -0.04 0.12 -0.04 s0.1 0 0.1 0.02 l-0.02 0.04 c-0.04 0.02 -0.08 0.04 -0.12 0.04 z M23.119999999999997 18.06 c0.02 0 0.04 -0.02 0.06 -0.04 l0.08 -0.02 l0.06 0 c0.1 0 0.32 -0.08 0.32 -0.14 l0 -0.02 l0.02 -0.02 l0.02 0.02 l0.04 0 c0.04 0 0.1 -0.02 0.12 -0.04 c0.06 -0.04 0.16 -0.1 0.24 -0.1 c0.1 -0.02 0.12 -0.04 0.12 -0.1 l0 -0.06 c-0.02 -0.08 -0.04 -0.1 -0.08 -0.1 l-0.04 0 c-0.04 0 -0.1 0 -0.12 -0.04 l-0.02 -0.04 c0 -0.02 0.06 -0.04 0.2 -0.1 l0.04 -0.04 l-0.02 -0.02 l-0.06 0 c-0.08 0 -0.24 0.12 -0.26 0.24 c-0.02 0.06 -0.04 0.1 -0.08 0.1 l-0.06 0 l-0.1 0.02 l-0.02 0.04 l0.06 0 c0.06 0 0.08 0.02 0.08 0.04 c0 0.04 -0.04 0.1 -0.14 0.14 s-0.18 0.1 -0.18 0.12 c-0.02 0.04 -0.08 0.06 -0.14 0.06 l-0.04 0 c-0.06 0 -0.1 0.02 -0.1 0.06 l0 0.04 z M23.84 17.66 c-0.04 0 -0.04 0 -0.04 -0.02 l0.02 -0.06 c0.02 -0.04 0.08 -0.08 0.12 -0.08 c0.06 0 0.12 0.02 0.14 0.04 l0 0.02 c0 0.06 -0.12 0.1 -0.24 0.1 z M23.92 17.6 l0.04 -0.02 l0 -0.02 l-0.08 0 c0 0.02 0.02 0.04 0.04 0.04 z M16.74 17.86 c-0.02 0 -0.04 -0.04 -0.04 -0.1 l-0.02 -0.08 l0.02 -0.02 c0.04 0 0.06 0.04 0.06 0.1 s-0.02 0.1 -0.02 0.1 z M23.08 17.84 c0.02 0 0.02 -0.02 0.02 -0.06 l0 -0.12 l-0.04 0 l-0.06 0.02 c-0.02 0.02 -0.04 0.04 -0.04 0.06 l0.04 0.06 z M19.64 18.06 c0.02 0 0.02 -0.02 0.04 -0.04 l0 -0.06 c-0.02 0 -0.04 0.02 -0.06 0.06 c0 0.02 0 0.04 0.02 0.04 z M23.880000000000003 18.36 c-0.02 0 -0.04 0 -0.04 -0.02 l0.02 -0.1 l-0.04 -0.14 c0 -0.02 0.02 -0.04 0.08 -0.04 s0.1 0.04 0.1 0.06 l-0.06 0.02 l-0.04 0 c-0.02 0 -0.02 0 -0.02 0.02 l0 0.02 c0 0.02 0.02 0.04 0.06 0.04 l0.24 -0.04 l-0.06 0.06 c-0.08 0.08 -0.18 0.12 -0.24 0.12 z M22.88 18.22 c0.02 0 0.04 -0.02 0.04 -0.04 l0 -0.02 c0 -0.04 -0.02 -0.04 -0.04 -0.06 c-0.02 0 -0.02 -0.02 -0.02 -0.02 c-0.02 0 -0.02 0 -0.02 0.02 l0 0.04 c0.02 0.06 0.02 0.08 0.04 0.08 z M22.7 18.18 l0.02 -0.02 l0 -0.02 l-0.04 -0.02 l-0.04 0.02 c0 0.02 0.02 0.04 0.06 0.04 z M21.8 18.36 l0 -0.02 l-0.02 -0.04 c0 -0.02 -0.02 -0.02 -0.02 -0.02 l-0.02 0.02 l0.04 0.06 l0.02 0 z M21.46 18.44 c0.04 0 0.06 -0.04 0.08 -0.06 c0 -0.02 -0.02 -0.06 -0.04 -0.06 s-0.06 0.04 -0.06 0.06 l0 0.02 c0 0.02 0 0.04 0.02 0.04 z M23.380000000000003 18.54 c-0.04 0 -0.08 -0.04 -0.1 -0.08 l0 -0.02 c0 -0.04 0.08 -0.08 0.18 -0.08 c0.04 0 0.1 0.02 0.12 0.04 l0.04 0.02 l0.02 -0.04 l0.08 -0.06 c0.02 0 0.04 0.02 0.06 0.06 c0 0.04 -0.3 0.16 -0.4 0.16 z M21.86 18.48 l0.08 -0.02 l-0.02 0 c0 -0.02 -0.02 -0.02 -0.04 -0.02 l-0.06 0 l-0.02 0.02 c0 0.02 0.02 0.02 0.06 0.02 z M21.08 18.54 l0.04 -0.02 l0 -0.02 l-0.04 -0.02 l-0.04 0.02 l0 0.02 z M22.58 18.6 c0.06 -0.02 0.1 -0.04 0.1 -0.06 s-0.02 -0.02 -0.04 -0.02 l-0.08 0 c-0.08 0.02 -0.12 0.04 -0.12 0.06 s0.04 0.02 0.08 0.02 l0.06 0 z M20.86 18.8 c0.08 0 0.16 -0.02 0.22 -0.06 l0.04 -0.04 l0.04 0.04 l0.02 0.04 c0.02 0 0.02 -0.02 0.02 -0.06 l0 -0.02 c0 -0.04 -0.04 -0.06 -0.08 -0.06 c-0.06 0 -0.1 0.02 -0.12 0.04 c0 0.04 -0.06 0.06 -0.12 0.06 l-0.08 0.02 l0 0.02 c0 0.02 0.04 0.02 0.06 0.02 z M22.4 18.68 l0 -0.02 l-0.04 -0.02 l-0.04 0.02 c0 0.02 0.02 0.02 0.04 0.02 l0.04 0 z M21.96 18.94 c0.1 0 0.38 -0.06 0.42 -0.1 l0 -0.02 s-0.02 -0.02 -0.06 -0.02 s-0.06 -0.02 -0.06 -0.04 l0 -0.02 c0 -0.02 -0.06 -0.06 -0.16 -0.06 s-0.2 0.04 -0.2 0.06 l0 0.02 c0 0.02 0.02 0.02 0.06 0.02 l0.2 -0.02 l-0.1 0.06 c-0.08 0.04 -0.14 0.08 -0.14 0.1 z M21.66 18.94 l0.04 -0.02 l0 -0.02 c0 -0.04 -0.04 -0.06 -0.1 -0.06 c-0.02 0 -0.04 0 -0.04 0.02 l0.02 0.04 z M21.46 19.06 c0.02 0 0.02 -0.04 0.02 -0.08 l0 -0.02 c0 -0.04 -0.02 -0.06 -0.06 -0.06 c-0.02 0 -0.04 0 -0.04 0.02 l0.02 0.06 z M21.32 19.04 c0 -0.02 0 -0.06 -0.02 -0.08 l-0.02 0 c-0.02 0 -0.02 0.02 -0.02 0.04 c0.02 0.02 0.02 0.04 0.04 0.04 l0.02 0 z M21.18 19.06 l0.04 -0.02 l-0.02 -0.02 c0 -0.02 -0.02 -0.02 -0.04 -0.02 c0 0 -0.02 0 -0.02 0.02 l0 0.02 z M20.92 19.08 c0 -0.02 0 -0.04 -0.02 -0.06 c-0.02 0 -0.02 -0.02 -0.02 -0.02 c-0.02 0 -0.02 0.02 -0.02 0.06 l0.04 0.02 l0.02 0 z M21.64 19.1 c0.04 0 0.06 -0.02 0.06 -0.04 l-0.04 -0.04 l-0.04 0.02 c-0.04 0 -0.08 0.04 -0.08 0.04 c0.02 0.02 0.04 0.02 0.1 0.02 z M19.6 19.1 l0.02 -0.02 l0 -0.02 l-0.08 0 c0 0.02 0.02 0.04 0.06 0.04 z M20.6 19.3 c0.02 0 0.04 -0.02 0.04 -0.04 l0 -0.02 c0 -0.02 -0.02 -0.04 -0.04 -0.04 s-0.04 0.02 -0.04 0.06 c0.02 0.02 0.02 0.04 0.04 0.04 z M20.18 19.46 c0.06 0 0.08 0 0.08 -0.02 l-0.08 -0.06 c-0.04 -0.04 -0.1 -0.06 -0.14 -0.06 c0 0 -0.02 0 -0.02 0.02 l-0.02 0.04 c0 0.04 0.08 0.08 0.18 0.08 z M18.38 19.52 c0.02 0 0.04 -0.02 0.04 -0.06 l0 -0.02 s-0.02 -0.02 -0.06 -0.02 l-0.04 0.02 l0 0.02 c0.02 0.04 0.06 0.06 0.06 0.06 z M18.66 19.46 l0.04 -0.02 l-0.02 0 c0 -0.02 -0.02 -0.02 -0.04 -0.02 c0 0 -0.02 0 -0.02 0.02 z M19.34 19.52 c0.02 0 0.04 0 0.04 -0.02 l-0.04 -0.04 l-0.04 0.02 l0 0.02 z M20.02 19.56 l-0.02 -0.02 c0 -0.02 -0.02 -0.02 -0.04 -0.02 c0 0 -0.02 0 -0.02 0.02 l0 0.02 l0.08 0 z M20.5 19.62 c-0.02 0 -0.04 -0.02 -0.04 -0.04 l0.08 0 l0 0.02 z M19.32 19.72 c0.08 0 0.14 -0.02 0.14 -0.06 l0 -0.04 l-0.1 0.02 l-0.1 -0.02 l-0.04 -0.02 l-0.02 0.04 c0 0.06 0.04 0.08 0.12 0.08 z M18.939999999999998 19.72 l0.06 -0.02 c0.02 -0.02 0.04 -0.04 0.04 -0.06 l0 -0.02 l-0.02 0 c-0.02 0 -0.04 0.02 -0.06 0.04 z M19.46 19.86 l-0.02 -0.02 l-0.12 0 l-0.02 0.02 l0.16 0 z"></path></g></svg>