<svg width="320" height="62.767683998199956" viewBox="0 0 320 62.767683998199956" class="css-1j8o68f"><defs id="SvgjsDefs1179"></defs><g id="SvgjsG1180" featurekey="symbolFeature-0" transform="matrix(1.1095576286315918,0,0,1.1095576286315918,-5.477885859776809,-16.90522031836801)" fill="#111111"><g xmlns="http://www.w3.org/2000/svg"><path d="M83.421,15.236H16.579c-2.572,0-4.676,2.104-4.676,4.676v43.586h76.193V19.912C88.097,17.34,85.992,15.236,83.421,15.236z    M84.823,60.224H15.177V19.912c0-0.76,0.643-1.403,1.403-1.403h66.841c0.76,0,1.403,0.642,1.403,1.403V60.224z"></path><path d="M61.486,65.799l-0.808,2.237H39.322l-0.808-2.237H4.937c0,0.639,0,1.498,0,2.441c0,1.962,2.329,3.566,5.175,3.566h79.776   c2.846,0,5.175-1.605,5.175-3.566c0-0.943,0-1.801,0-2.441H61.486z"></path><path d="M48.491,37.565c-0.058-0.19-0.272-0.217-0.272-0.217l-5.09-0.454c0,0-0.509-0.019-0.667,0.302   c-0.224,0.454-0.362,0.961-0.362,1.502c0,1.82,1.476,3.297,3.297,3.297c1.82,0,3.297-1.476,3.297-3.297   C48.693,38.3,48.6,37.925,48.491,37.565z"></path><path d="M57.579,38.697c0-0.541-0.137-1.048-0.361-1.502c-0.158-0.32-0.667-0.302-0.667-0.302l-5.09,0.454   c0,0-0.214,0.027-0.271,0.217c-0.11,0.361-0.202,0.735-0.202,1.133c0,1.82,1.476,3.297,3.296,3.297S57.579,40.518,57.579,38.697z"></path><path d="M50.318,43.057c-0.385-0.431-1.01-0.43-1.395,0.002c-0.385,0.432-0.698,0.782-0.698,0.782   c-0.115,0.162-0.184,0.366-0.184,0.589c0,0.524,0.38,0.948,0.848,0.948c0.313,0,0.585-0.19,0.732-0.472   c0.147,0.282,0.419,0.471,0.732,0.472c0.468,0,0.848-0.424,0.848-0.948c0-0.224-0.07-0.43-0.187-0.592L50.318,43.057z"></path><path d="M17.101,21.079v36.575h64.944V21.079H17.101z M31.039,35.279c0.231-0.614,0.705-1.063,1.27-1.285   c-0.28-0.539-0.341-1.19-0.11-1.804c0.432-1.149,1.713-1.73,2.862-1.299c1.02,0.383,1.591,1.435,1.405,2.47l1.297,0.487   c-0.25,0.976-0.397,1.992-0.397,3.046c0,0.399,0.022,0.793,0.06,1.182l-2.388-0.897c-0.535,0.92-1.669,1.349-2.699,0.962   C31.19,37.709,30.608,36.428,31.039,35.279z M67.008,38.141c-1.03,0.387-2.164-0.042-2.699-0.962l-2.388,0.897   c0.037-0.389,0.06-0.783,0.06-1.182c0-1.053-0.147-2.07-0.397-3.046l1.297-0.487c-0.185-1.035,0.386-2.087,1.405-2.47   c1.149-0.431,2.43,0.15,2.862,1.299c0.23,0.614,0.169,1.264-0.11,1.804c0.566,0.222,1.04,0.671,1.27,1.285   C68.738,36.428,68.156,37.709,67.008,38.141z M35.061,50.081c-1.149,0.432-2.43-0.15-2.862-1.299   c-0.23-0.614-0.169-1.264,0.11-1.804c-0.566-0.222-1.04-0.671-1.27-1.285c-0.432-1.149,0.15-2.43,1.299-2.862   c1.03-0.387,2.164,0.042,2.699,0.962l3.656-1.373c0.648,1.279,1.512,2.426,2.547,3.398l-4.775,1.793   C36.652,48.646,36.081,49.698,35.061,50.081z M54.775,46.175c0.092,0.148,0.279,0.229,0.442,0.229c0.087,0,0.235-0.023,0.315-0.073   l0.289-0.106v2.591c0,0.608-0.695,1.025-1.303,1.024h-0.404c-0.223,0-0.404-0.266-0.404-0.641c0-0.376-0.304-0.641-0.68-0.641   c-0.375,0-0.68,0.304-0.68,0.68c0,0.375-0.434,0.679-0.97,0.679c-0.536,0-0.97-0.305-0.97-0.68c0-0.376-0.348-0.68-0.777-0.68   c-0.429,0-0.777,0.303-0.777,0.678c0,0.375-0.434,0.677-0.97,0.677s-0.97-0.309-0.97-0.684c0-0.376-0.304-0.689-0.68-0.689   s-0.68,0.285-0.68,0.66c0,0.375-0.195,0.641-0.436,0.641c-0.241,0-0.436,0-0.436,0c-0.608,0-1.177-0.417-1.177-1.025v-2.626   l0.249,0.142c0.08,0.049,0.19,0.073,0.277,0.073c0.162,0,0.321-0.081,0.413-0.229c0.142-0.228,0.072-0.527-0.155-0.669   l-0.911-0.568c-0.014-0.009-0.03-0.014-0.044-0.022c-2.215-1.837-3.78-4.667-3.78-7.845c0-5.539,4.508-10.029,10.047-10.03   c5.539,0,10.015,4.49,10.015,10.029c0,3.236-1.462,6.112-3.924,7.946l-0.778,0.489C54.688,45.649,54.634,45.948,54.775,46.175z    M68.162,45.693c-0.231,0.614-0.704,1.064-1.27,1.285c0.28,0.54,0.341,1.19,0.11,1.804c-0.432,1.149-1.713,1.731-2.862,1.299   c-1.03-0.386-1.602-1.456-1.399-2.5l-4.727-1.775c1.033-0.973,1.895-2.121,2.541-3.401l3.624,1.361   c0.541-0.901,1.664-1.318,2.684-0.935C68.012,43.262,68.593,44.543,68.162,45.693z"></path></g></g><g id="SvgjsG1181" featurekey="nameFeature-0" transform="matrix(0.7965588569641113,0,0,0.7965588569641113,118.69364243664408,8.343770037871673)" fill="#111111"><path d="M16.44 25.8 c-0.4 -0.04 -0.8 -0.08 -1.2 -0.08 c-0.64 -0.04 -4.16 -0.24 -5.16 2.56 c-0.24 0.68 -0.24 1.24 -0.24 1.96 l0 9.76 l-8.2 0 l0 -20.72 l7.92 0 l0 1.8 c0.4 -0.36 0.68 -0.6 1.12 -0.88 c1.84 -1.28 3.6 -1.36 5.76 -1.36 l0 6.96 z M39.879999999999995 40 l-8.12 0 l0 -1.6 c-0.32 0.24 -0.72 0.56 -1.52 0.96 c-0.88 0.44 -2.76 1.12 -5.36 1.12 c-0.52 0 -1.92 0 -3.32 -0.52 c-2.68 -1.04 -4.12 -3.36 -4.12 -6.16 c0 -1.12 0.24 -3.6 2.84 -5.36 c1.72 -1.16 3.92 -1.44 5.92 -1.72 c1.16 -0.16 2.4 -0.32 3.56 -0.56 c0.52 -0.12 1.08 -0.24 1.6 -0.4 c0 -0.08 0 -0.64 -0.12 -0.96 c-0.24 -0.84 -0.84 -1.44 -2.68 -1.44 c-0.6 0 -1 0.08 -1.2 0.12 c-1.28 0.32 -1.4 1.4 -1.52 1.84 l-7.72 0.2 c0.08 -0.44 0.2 -0.84 0.28 -1.24 c0.2 -0.8 0.64 -2.24 2.28 -3.52 s4.16 -2.16 8.64 -2.16 c3.24 0 7.64 0.52 9.24 3.88 c0.44 0.92 0.6 1.76 0.6 3.68 l0 11.28 c0 1.52 0.2 1.84 0.72 2.56 z M31.32 30.36 c-1.04 0.36 -2.08 0.68 -3.12 0.96 c-0.88 0.2 -2.12 0.48 -2.76 1.28 c-0.08 0.12 -0.36 0.48 -0.36 0.96 c0 0.64 0.52 1.6 2.04 1.6 c0.72 0 1.36 -0.24 2 -0.56 c2.32 -1.24 2.2 -3.28 2.2 -4.24 z M64.72 40 l-8.24 0 l0 -11.32 c0 -0.48 0 -0.92 -0.12 -1.4 c-0.2 -0.72 -0.8 -1.72 -2.68 -1.72 c-3.04 0 -3 2.52 -3 3.4 l0 11.04 l-8.2 0 l0 -20.72 l7.76 0 l0 2.76 c0.52 -0.76 0.6 -0.84 1 -1.24 c1.52 -1.52 3.72 -2.08 5.84 -2.08 c0.76 0 3.32 0.04 5.28 1.72 c1.08 0.88 1.76 2.24 2.08 3.6 c0.16 0.68 0.28 1.4 0.28 2.88 l0 13.08 z M87.60000000000001 33.08 c0 1.2 -0.24 2.28 -0.84 3.36 c-2.36 4.28 -7.88 4.36 -9 4.36 c-3.08 0 -6.24 -0.88 -8.84 -2.52 c-0.8 -0.48 -1.52 -1.08 -2.28 -1.64 l4.64 -4.2 c0.4 0.36 0.76 0.68 1.16 1 c0.68 0.48 2.72 1.76 5.24 1.76 c0.2 0 0.84 0 1.36 -0.24 c0.6 -0.28 0.8 -0.8 0.8 -1.08 c0 -0.24 -0.12 -0.44 -0.16 -0.48 c-0.52 -0.8 -1.44 -0.72 -3 -1 c-0.48 -0.08 -2.44 -0.48 -4.08 -1.04 c-1.92 -0.64 -3.4 -1.4 -4.32 -3.36 c-0.36 -0.8 -0.56 -1.6 -0.56 -2.48 c0 -1.8 0.84 -3.16 1.2 -3.68 c1.2 -1.68 3.56 -3.4 8.2 -3.4 c2.48 0 5.64 0.52 7.88 1.68 c0.76 0.4 1.32 0.8 2 1.32 l-4.44 4.04 c-0.6 -0.4 -2.8 -2 -5.32 -2 c-0.16 0 -0.72 0 -1.16 0.2 c-0.48 0.24 -0.6 0.68 -0.6 0.88 c0 0.52 0.44 0.76 0.56 0.8 c0.36 0.2 1.16 0.36 2.16 0.6 c3.04 0.76 4.8 1.04 6.12 1.72 c1.04 0.52 3.28 2.12 3.28 5.4 z M113.32000000000002 29.68 c0 1.12 -0.2 4.68 -2.68 7.44 c-1.44 1.6 -4.52 3.68 -9.68 3.68 c-1.2 0 -4.92 -0.04 -7.96 -2.44 c-1.52 -1.2 -3.84 -3.84 -3.84 -8.56 c0 -2.88 0.88 -5.72 2.84 -7.84 c1.4 -1.52 4.36 -3.6 9.4 -3.56 c1.08 0 5.36 0.12 8.44 2.8 c2.32 2.04 3.48 5.4 3.48 8.48 z M105.00000000000001 29.48 c0 -3.12 -1 -4.56 -2.48 -5.08 c-0.6 -0.2 -1.12 -0.2 -1.36 -0.2 c-1.44 0.04 -2.24 0.76 -2.6 1.16 c-0.64 0.68 -1.2 2.08 -1.2 4.2 c0 2.04 0.52 3.44 1.04 4.16 c0.32 0.44 0.76 0.8 1.24 1 c0.24 0.12 0.84 0.28 1.56 0.28 c0.96 0 1.84 -0.28 2.48 -0.92 c0.72 -0.72 1.32 -2.28 1.32 -4.6 z M152.40000000000003 40 l-8.24 0 l0 -10.84 c0 -0.8 0.24 -3.6 -2.88 -3.6 c-0.64 0 -2.36 0.16 -2.88 2 c-0.12 0.48 -0.12 0.88 -0.12 1.4 l0 11.04 l-8.24 0 l0 -11.2 c0 -0.48 0 -0.8 -0.12 -1.28 c-0.48 -1.76 -2.12 -1.96 -2.76 -1.96 c-0.56 0 -2.28 0.2 -2.84 1.92 c-0.08 0.24 -0.2 0.64 -0.2 1.28 l0 11.24 l-8.28 0 l0 -20.72 l7.96 0 l0 2.96 c0.48 -0.84 0.8 -1.24 1.12 -1.56 c0.84 -0.8 2.56 -1.88 5.4 -1.88 c0.72 0 4.16 0 6.16 2.24 c0.32 0.32 0.6 0.8 1.04 1.6 c0.36 -0.84 0.8 -1.28 1.08 -1.56 c0.96 -1 2.68 -2.32 6.04 -2.28 c0.52 0 1.48 -0.04 2.72 0.32 c1.04 0.28 3.64 1.16 4.64 4.2 c0.4 1.2 0.4 2.32 0.4 3.6 l0 13.08 z M188.24 19.28 l-6.2 20.72 l-8.2 0 l-2.72 -12.68 l-2.52 12.68 l-8.2 0 l-6.24 -20.72 l8.4 0 l2.56 13.24 l2.52 -13.24 l7.08 0 l2.64 13.2 l2.44 -13.2 l8.44 0 z M211.56 40 l-8.12 0 l0 -1.6 c-0.32 0.24 -0.72 0.56 -1.52 0.96 c-0.88 0.44 -2.76 1.12 -5.36 1.12 c-0.52 0 -1.92 0 -3.32 -0.52 c-2.68 -1.04 -4.12 -3.36 -4.12 -6.16 c0 -1.12 0.24 -3.6 2.84 -5.36 c1.72 -1.16 3.92 -1.44 5.92 -1.72 c1.16 -0.16 2.4 -0.32 3.56 -0.56 c0.52 -0.12 1.08 -0.24 1.6 -0.4 c0 -0.08 0 -0.64 -0.12 -0.96 c-0.24 -0.84 -0.84 -1.44 -2.68 -1.44 c-0.6 0 -1 0.08 -1.2 0.12 c-1.28 0.32 -1.4 1.4 -1.52 1.84 l-7.72 0.2 c0.08 -0.44 0.2 -0.84 0.28 -1.24 c0.2 -0.8 0.64 -2.24 2.28 -3.52 s4.16 -2.16 8.64 -2.16 c3.24 0 7.64 0.52 9.24 3.88 c0.44 0.92 0.6 1.76 0.6 3.68 l0 11.28 c0 1.52 0.2 1.84 0.72 2.56 z M203 30.36 c-1.04 0.36 -2.08 0.68 -3.12 0.96 c-0.88 0.2 -2.12 0.48 -2.76 1.28 c-0.08 0.12 -0.36 0.48 -0.36 0.96 c0 0.64 0.52 1.6 2.04 1.6 c0.72 0 1.36 -0.24 2 -0.56 c2.32 -1.24 2.2 -3.28 2.2 -4.24 z M228.96 25.8 c-0.4 -0.04 -0.8 -0.08 -1.2 -0.08 c-0.64 -0.04 -4.16 -0.24 -5.16 2.56 c-0.24 0.68 -0.24 1.24 -0.24 1.96 l0 9.76 l-8.2 0 l0 -20.72 l7.92 0 l0 1.8 c0.4 -0.36 0.68 -0.6 1.12 -0.88 c1.84 -1.28 3.6 -1.36 5.76 -1.36 l0 6.96 z M252.72000000000003 31.119999999999997 l-14.44 0 s0 0.96 0.2 1.6 c0.28 0.8 1.08 2.32 3.28 2.28 c1.28 0 1.96 -0.44 2.36 -0.8 c0.84 -0.68 1.24 -1.6 1.4 -1.88 l6.76 2.84 c-0.2 0.32 -0.44 0.76 -1 1.4 c-1.44 1.68 -3.08 2.6 -3.8 2.96 c-1 0.48 -3.16 1.32 -6.12 1.32 c-1.72 0 -3.36 -0.24 -4.92 -0.88 c-4.28 -1.76 -6.56 -5.92 -6.56 -10.44 c0 -4.28 1.96 -6.92 3.16 -8.08 c2.96 -2.84 7.08 -3.04 8.24 -3.04 c1.4 0 5.64 0.2 8.64 3.44 c1 1.08 1.76 2.44 2.2 3.84 c0.56 1.8 0.6 3.56 0.6 5.44 z M244.36 26.759999999999998 c-0.04 -0.24 -0.04 -0.64 -0.2 -1.16 c-0.56 -1.72 -2.08 -1.96 -2.72 -1.96 c-0.64 0.04 -1.04 0.2 -1.28 0.32 c-1.52 0.68 -1.72 2.36 -1.8 2.8 l6 0 z"></path></g></svg>