<svg width="350" height="188.431122307284" viewBox="0 0 350 188.431122307284" class="css-1j8o68f"><defs id="SvgjsDefs1851"></defs><g id="SvgjsG1852" featurekey="1p4tPl-0" transform="matrix(4.918863773345947,0,0,4.918863773345947,96.38140758652041,-20.680746167869646)" fill="#111111"><g xmlns="http://www.w3.org/2000/svg" data-name="Layer 24"><path d="M19,7a2.77,2.77,0,0,0-4.4-1L6.88,13,4,14.18A3,3,0,0,0,2.39,18.1l1.16,2.79a3,3,0,0,0,2.78,1.85,3.16,3.16,0,0,0,.79-.12l1.62,3.91a1.88,1.88,0,0,0,1.73,1.16,1.82,1.82,0,0,0,.72-.15l1.62-.67a1.88,1.88,0,0,0,1-2.45l-1.33-3.2,8.2-.41A2.76,2.76,0,0,0,23.11,17ZM5.4,20.12,4.24,17.33A1,1,0,0,1,4.78,16l2.1-.86,1,2.32,1,2.32-1.51.62h0l-.58.24A1,1,0,0,1,5.4,20.12Zm6.53,4.95-1.39.58L9,21.89l1.35-.56h.05Zm9.27-6.61a.73.73,0,0,1-.6.35l-9.84.49-.6-1.45L8.61,14.12l7.3-6.61a.77.77,0,0,1,.68-.18.75.75,0,0,1,.53.45l4.14,10A.77.77,0,0,1,21.2,18.46ZM24.5,12A1,1,0,0,1,24.11,10l3.7-1.53a1,1,0,1,1,.76,1.85l-3.69,1.53A1.08,1.08,0,0,1,24.5,12Zm5.33,2.65a1,1,0,0,1-1,1h0l-4-.18a1,1,0,0,1-.95-1,1,1,0,0,1,1-.95l4,.17A1,1,0,0,1,29.83,14.62ZM21.54,8.85a1,1,0,0,1,0-1.41l2.83-2.83A1,1,0,1,1,25.78,6L23,8.85a1,1,0,0,1-1.41,0Z"></path></g></g><g id="SvgjsG1853" featurekey="dYASrj-0" transform="matrix(3.6716468334198,0,0,3.6716468334198,-2.6983963009510306,113.97012270970274)" fill="#111111"><path d="M3.8 13 c0 1.48 5.22 0.1 5.22 4 c0 2.3 -1.96 3.28 -4.16 3.28 c-2.04 0 -3.88 -0.92 -4.12 -3.04 c-0.04 -0.34 0.16 -0.52 0.48 -0.52 l1.96 0 c0.3 0 0.4 0.16 0.54 0.42 c0.16 0.34 0.54 0.54 1.14 0.54 c0.84 0 1.16 -0.28 1.16 -0.68 c0 -1.44 -5.22 -0.12 -5.22 -4 c0 -2.26 1.96 -3.28 4.06 -3.28 c1.86 0 3.68 0.92 3.92 3.04 c0.04 0.34 -0.16 0.52 -0.48 0.52 l-1.96 0 c-0.3 0 -0.4 -0.16 -0.54 -0.44 c-0.14 -0.32 -0.48 -0.52 -0.94 -0.52 c-0.74 0 -1.06 0.28 -1.06 0.68 z M20.12 16.2 c0.34 0 0.54 0.22 0.42 0.56 c-0.62 2.08 -2.58 3.52 -4.92 3.52 c-3.04 0 -5.3 -2.3 -5.3 -5.28 s2.26 -5.28 5.3 -5.28 c2.34 0 4.3 1.44 4.92 3.52 c0.12 0.34 -0.08 0.56 -0.42 0.56 l-2.2 0 c-0.26 0 -0.44 -0.12 -0.6 -0.34 c-0.36 -0.5 -0.98 -0.78 -1.7 -0.78 c-1.3 0 -2.3 0.94 -2.3 2.32 s1 2.32 2.3 2.32 c0.72 0 1.34 -0.28 1.7 -0.76 c0.16 -0.24 0.32 -0.36 0.6 -0.36 l2.2 0 z M26.22 9.72 c2.2 0 4.16 1.28 4.16 3.98 l0 5.8 c0 0.32 -0.18 0.5 -0.5 0.5 l-1.92 0 c-0.32 0 -0.5 -0.18 -0.5 -0.5 l0 -0.28561 c-0.5362 0.6276 -1.3234 1.0656 -2.58 1.0656 c-1.76 0 -3.3 -1.04 -3.3 -3.12 s1.54 -3.12 3.3 -3.12 c1.2566 0 2.0438 0.3546 2.58 0.76262 l0 -0.9026 c0 -0.98 -0.4 -1.42 -1.24 -1.42 c-0.62 0 -1 0.24 -1.16 0.58 c-0.12 0.28 -0.22 0.44 -0.52 0.44 l-1.96 0 c-0.32 0 -0.52 -0.18 -0.5 -0.52 c0.26 -2.16 2.1 -3.26 4.14 -3.26 z M25.94 18.16 c0.98 0 1.52 -0.42 1.52 -1 c0 -0.62 -0.54 -1 -1.52 -1 c-0.92 0 -1.36 0.42 -1.36 1 s0.44 1 1.36 1 z M37.92 9.72 c1.86 0 3.2 1.44 3.2 3.94 l0 5.84 c0 0.32 -0.18 0.5 -0.5 0.5 l-2 0 c-0.32 0 -0.5 -0.18 -0.5 -0.5 l0 -5.58 c0 -1 -0.58 -1.44 -1.34 -1.44 c-0.9 0 -1.46 0.5 -1.46 1.68 l0 5.34 c0 0.32 -0.18 0.5 -0.5 0.5 l-2 0 c-0.32 0 -0.5 -0.18 -0.5 -0.5 l0 -9 c0 -0.32 0.18 -0.5 0.5 -0.5 l2 0 c0.32 0 0.5 0.18 0.5 0.5 l0 0.4134 c0.47 -0.695 1.3214 -1.1934 2.6 -1.1934 z M53.36 9.72 c1.96 0 3.1 1.2402 3.1 3.5402 l0 6.24 c0 0.32 -0.18 0.5 -0.5 0.5 l-2 0 c-0.32 0 -0.5 -0.18 -0.5 -0.5 l0 -5.98 c0 -0.8 -0.48 -1.04 -1.04 -1.04 c-0.6 0 -1.16 0.3 -1.16 1.28 l0 5.74 c0 0.32 -0.18 0.5 -0.5 0.5 l-2 0 c-0.32 0 -0.5 -0.18 -0.5 -0.5 l0 -5.98 c0 -0.8 -0.48 -1.04 -1.04 -1.04 c-0.6 0 -1.16 0.3 -1.16 1.28 l0 5.74 c0 0.32 -0.18 0.5 -0.5 0.5 l-2 0 c-0.32 0 -0.5 -0.18 -0.5 -0.5 l0 -9 c0 -0.32 0.18 -0.5 0.5 -0.5 l2 0 c0.32 0 0.5 0.18 0.5 0.5 l0 0.40801 c0.4584 -0.6922 1.2552 -1.188 2.3 -1.188 c1.0098 0 1.8154 0.4082 2.3188 1.1904 c0.6482 -0.6936 1.4812 -1.1906 2.6812 -1.1906 z M63.26 9.72 c2.92 0 5.04 2.26 5.04 5.28 c0 0.26 -0.02 0.5 -0.04 0.74 c-0.04 0.32 -0.24 0.46 -0.54 0.46 l-2.44 0 l-4.2388 0 c0.3634 1.1882 1.2966 1.66 2.3388 1.66 c0.56 0 1.12 -0.2 1.48 -0.5 c0.2 -0.16 0.36 -0.26 0.62 -0.26 l1.92 -0.02 c0.36 0 0.56 0.24 0.4 0.56 c-0.78 1.74 -2.42 2.64 -4.46 2.64 c-3.32 0 -5.44 -2.3 -5.44 -5.28 s2.2 -5.28 5.36 -5.28 z M61.0286 13.92 l4.285 0 c-0.3092 -1.138 -1.1914 -1.54 -2.0736 -1.54 c-1.1244 0 -1.9024 0.5426 -2.2114 1.54 z M70.56 20 c-0.32 0 -0.5 -0.18 -0.5 -0.5 l0 -2.2 c0 -0.32 0.18 -0.5 0.5 -0.5 l2.2 0 c0.32 0 0.5 0.18 0.5 0.5 l0 2.2 c0 0.32 -0.18 0.5 -0.5 0.5 l-2.2 0 z M79.69999999999999 9.72 c2.2 0 4.16 1.28 4.16 3.98 l0 5.8 c0 0.32 -0.18 0.5 -0.5 0.5 l-1.92 0 c-0.32 0 -0.5 -0.18 -0.5 -0.5 l0 -0.28561 c-0.5362 0.6276 -1.3234 1.0656 -2.58 1.0656 c-1.76 0 -3.3 -1.04 -3.3 -3.12 s1.54 -3.12 3.3 -3.12 c1.2566 0 2.0438 0.3546 2.58 0.76262 l0 -0.9026 c0 -0.98 -0.4 -1.42 -1.24 -1.42 c-0.62 0 -1 0.24 -1.16 0.58 c-0.12 0.28 -0.22 0.44 -0.52 0.44 l-1.96 0 c-0.32 0 -0.52 -0.18 -0.5 -0.52 c0.26 -2.16 2.1 -3.26 4.14 -3.26 z M79.41999999999999 18.16 c0.98 0 1.52 -0.42 1.52 -1 c0 -0.62 -0.54 -1 -1.52 -1 c-0.92 0 -1.36 0.42 -1.36 1 s0.44 1 1.36 1 z M95.55999999999999 6 c0.32 0 0.5 0.18 0.5 0.5 l0 13 c0 0.32 -0.18 0.5 -0.5 0.5 l-2 0 c-0.32 0 -0.5 -0.18 -0.5 -0.5 l0 -0.434 c-0.6686 0.7624 -1.6416 1.214 -2.9798 1.214 c-2.62 0 -4.78 -2.3 -4.78 -5.28 s2.16 -5.28 4.78 -5.28 c1.3382 0 2.3112 0.4516 2.9798 1.214 l0 -4.434 c0 -0.32 0.18 -0.5 0.5 -0.5 l2 0 z M90.67999999999999 17.44 c1.38 0 2.38 -0.94 2.38 -2.44 s-1 -2.44 -2.38 -2.44 s-2.38 0.94 -2.38 2.44 s1 2.44 2.38 2.44 z"></path></g></svg>