<svg width="350" height="130" viewBox="0 0 350 130" class="css-1j8o68f"><defs id="SvgjsDefs1124"></defs><g id="SvgjsG1125" featurekey="HdFLvg-0" transform="matrix(0.18571428954601288,0,0,0.18571428954601288,0,0)" fill="#1a2c5b"><g xmlns="http://www.w3.org/2000/svg" transform="matrix(1,0,0,1,-3691.38,-3368.64)"><g transform="matrix(0.35,0,0,0.35,3691.38,3368.64)"><rect x="0" y="0" width="2000" height="2000" style="" fill="none"></rect><g transform="matrix(1.21218,1.21218,-2.02031,2.02031,3731.08,-11528.9)"><path d="M3989.94,3981.64C4021.17,3981.64 4061.6,3981.64 4092.82,3981.64C4107.91,3981.64 4122.38,3978.05 4133.05,3971.64C4143.72,3965.24 4149.72,3956.56 4149.72,3947.51L4149.72,3605.78C4149.72,3596.72 4143.72,3588.04 4133.05,3581.64C4122.38,3575.24 4107.91,3571.64 4092.82,3571.64C4061.6,3571.64 4021.17,3571.64 3989.94,3571.64C3974.85,3571.64 3960.38,3575.24 3949.71,3581.64C3939.04,3588.04 3933.05,3596.72 3933.05,3605.78C3933.05,3679.65 3933.05,3873.64 3933.05,3947.51C3933.05,3956.56 3939.04,3965.24 3949.71,3971.64C3960.38,3978.05 3974.85,3981.64 3989.94,3981.64ZM3989.94,3971.64C3979.27,3971.64 3969.04,3969.1 3961.5,3964.57C3953.95,3960.05 3949.72,3953.91 3949.72,3947.51C3949.72,3873.64 3949.72,3679.65 3949.72,3605.78C3949.72,3599.38 3953.95,3593.24 3961.5,3588.71C3969.04,3584.19 3979.27,3581.64 3989.94,3581.64C4021.17,3581.64 4061.6,3581.64 4092.82,3581.64C4103.49,3581.64 4113.72,3584.19 4121.27,3588.71C4128.81,3593.24 4133.05,3599.38 4133.05,3605.78L4133.05,3947.51C4133.05,3953.91 4128.81,3960.05 4121.27,3964.57C4113.72,3969.1 4103.49,3971.64 4092.82,3971.64L3989.94,3971.64Z"></path></g><g transform="matrix(1.61624,1.61624,-1.61624,1.61624,332.912,-11396.6)"><path d="M4077.63,3523.64C4077.63,3511.91 4068.11,3502.39 4056.38,3502.39L4026.38,3502.39C4014.65,3502.39 4005.13,3511.91 4005.13,3523.64L4005.13,3723.64C4005.13,3735.37 4014.65,3744.89 4026.38,3744.89C4026.38,3744.89 4056.38,3744.89 4056.38,3744.89C4068.11,3744.89 4077.63,3735.37 4077.63,3723.64C4077.63,3723.64 4077.63,3523.64 4077.63,3523.64ZM4065.13,3523.64L4065.13,3723.64C4065.13,3728.47 4061.21,3732.39 4056.38,3732.39L4026.38,3732.39C4021.55,3732.39 4017.63,3728.47 4017.63,3723.64C4017.63,3723.64 4017.63,3523.64 4017.63,3523.64C4017.63,3518.81 4021.55,3514.89 4026.38,3514.89L4056.38,3514.89C4061.21,3514.89 4065.13,3518.81 4065.13,3523.64Z"></path></g><g transform="matrix(1.61624,1.61624,-1.61624,1.61624,332.912,-11396.6)"><path d="M4077.63,3783.64C4077.63,3771.91 4068.11,3762.39 4056.38,3762.39L4026.38,3762.39C4014.65,3762.39 4005.13,3771.91 4005.13,3783.64L4005.13,3813.64C4005.13,3825.37 4014.65,3834.89 4026.38,3834.89C4026.38,3834.89 4056.38,3834.89 4056.38,3834.89C4068.11,3834.89 4077.63,3825.37 4077.63,3813.64L4077.63,3783.64ZM4065.13,3783.64L4065.13,3813.64C4065.13,3818.47 4061.21,3822.39 4056.38,3822.39L4026.38,3822.39C4021.55,3822.39 4017.63,3818.47 4017.63,3813.64C4017.63,3813.64 4017.63,3783.64 4017.63,3783.64C4017.63,3778.81 4021.55,3774.89 4026.38,3774.89C4026.38,3774.89 4056.38,3774.89 4056.38,3774.89C4061.21,3774.89 4065.13,3778.81 4065.13,3783.64Z"></path></g><g transform="matrix(0.378149,0.378149,-0.378149,0.378149,633.447,-1689.93)"><path d="M4098.1,3783.64C4098.1,3760.62 4079.4,3741.93 4056.38,3741.93C4056.38,3741.93 4026.38,3741.93 4026.38,3741.93C4003.36,3741.93 3984.67,3760.62 3984.67,3783.64L3984.67,3813.64C3984.67,3836.66 4003.36,3855.36 4026.38,3855.36C4026.38,3855.36 4056.38,3855.36 4056.38,3855.36C4079.4,3855.36 4098.1,3836.66 4098.1,3813.64C4098.1,3813.64 4098.1,3783.64 4098.1,3783.64ZM4038.1,3801.93L4044.67,3801.93L4044.67,3795.36L4038.1,3795.36L4038.1,3801.93Z"></path></g><g transform="matrix(1.61624,1.61624,-1.61624,1.61624,478.374,-11542.1)"><path d="M4011.38,3514.89L4071.38,3514.89C4074.83,3514.89 4077.63,3512.09 4077.63,3508.64C4077.63,3505.19 4074.83,3502.39 4071.38,3502.39L4011.38,3502.39C4007.93,3502.39 4005.13,3505.19 4005.13,3508.64C4005.13,3512.09 4007.93,3514.89 4011.38,3514.89Z"></path></g><g transform="matrix(1.61624,1.61624,-1.61624,1.61624,429.887,-11493.6)"><path d="M4011.38,3514.89L4071.38,3514.89C4074.83,3514.89 4077.63,3512.09 4077.63,3508.64C4077.63,3505.19 4074.83,3502.39 4071.38,3502.39L4011.38,3502.39C4007.93,3502.39 4005.13,3505.19 4005.13,3508.64C4005.13,3512.09 4007.93,3514.89 4011.38,3514.89Z"></path></g><g transform="matrix(1.61624,1.61624,-1.61624,1.61624,381.399,-11445.1)"><path d="M4011.38,3514.89L4071.38,3514.89C4074.83,3514.89 4077.63,3512.09 4077.63,3508.64C4077.63,3505.19 4074.83,3502.39 4071.38,3502.39L4011.38,3502.39C4007.93,3502.39 4005.13,3505.19 4005.13,3508.64C4005.13,3512.09 4007.93,3514.89 4011.38,3514.89Z"></path></g><g transform="matrix(0.171424,0.171424,-1.61624,1.61624,6147.78,-5368.76)"><path d="M4011.38,3514.89L4071.38,3514.89C4103.9,3514.89 4130.31,3512.09 4130.31,3508.64C4130.31,3505.19 4103.9,3502.39 4071.38,3502.39L4011.38,3502.39C3978.86,3502.39 3952.45,3505.19 3952.45,3508.64C3952.45,3512.09 3978.86,3514.89 4011.38,3514.89Z"></path></g><g transform="matrix(0.171424,0.171424,-1.61624,1.61624,6049.45,-5270.43)"><path d="M4011.38,3514.89L4071.38,3514.89C4103.9,3514.89 4130.31,3512.09 4130.31,3508.64C4130.31,3505.19 4103.9,3502.39 4071.38,3502.39L4011.38,3502.39C3978.86,3502.39 3952.45,3505.19 3952.45,3508.64C3952.45,3512.09 3978.86,3514.89 4011.38,3514.89Z"></path></g></g></g></g><g id="SvgjsG1126" featurekey="VomJeJ-0" transform="matrix(1.7283096313476562,0,0,1.7283096313476562,149.30867615732967,42.874525050118166)" fill="#1a2c5b"><path d="M0.4 19.32 q0.02 -0.52 0.27 -1.14 t0.59 -0.98 q1.6 0.84 2.78 0.84 q0.56 0 0.86 -0.19 t0.3 -0.51 q0 -0.6 -0.92 -0.9 l-1.1 -0.42 q-2.5 -0.92 -2.5 -3 q0 -1.52 1.05 -2.41 t2.83 -0.89 q0.88 0 1.94 0.25 t1.74 0.59 q0.04 0.56 -0.22 1.23 t-0.64 0.95 q-1.68 -0.76 -2.8 -0.76 q-0.4 0 -0.61 0.18 t-0.21 0.46 q0 0.48 0.76 0.76 l1.24 0.44 q2.66 0.94 2.66 3.22 q0 1.5 -1.1 2.38 t-3.14 0.88 t-3.78 -0.98 z M15.04 14.440000000000001 l0 -0.26 q0 -1.12 -0.24 -1.63 t-0.9 -0.51 q-0.7 0 -0.98 0.69 t-0.28 2.29 q0 0.8 0.11 1.34 t0.32 0.87 t0.53 0.48 t0.76 0.15 q0.46 0 1.02 -0.2 t1.2 -0.64 q0.18 0.1 0.37 0.29 t0.35 0.43 t0.28 0.51 t0.18 0.51 q-0.66 0.7 -1.72 1.12 t-2.16 0.42 q-2.14 0 -3.28 -1.4 t-1.14 -3.98 q0 -1.32 0.37 -2.3 t0.98 -1.62 t1.4 -0.96 t1.65 -0.32 q0.88 0 1.61 0.24 t1.26 0.68 t0.82 1.05 t0.29 1.35 q0 0.84 -0.49 1.18 t-1.21 0.34 q-0.6 0 -1.1 -0.12 z M28.08 13.4 l0 4.1 q0 1.34 0.5 1.98 q-0.76 0.68 -1.84 0.68 q-1.04 0 -1.42 -0.48 t-0.38 -1.46 l0 -4.26 q0 -0.68 -0.18 -1 t-0.7 -0.32 q-0.3 0 -0.68 0.16 t-0.78 0.52 l0 6.68 q-0.66 0.12 -1.52 0.12 t-1.52 -0.12 l0 -14.58 l0.14 -0.14 l1.2 0 q0.96 0 1.33 0.42 t0.37 1.46 l0 3.78 q1.34 -1.1 2.68 -1.1 t2.07 0.97 t0.73 2.59 z M39.019999999999996 13.4 l0 4.1 q0 1.32 0.48 1.98 q-0.76 0.68 -1.82 0.68 q-1.04 0 -1.42 -0.48 t-0.38 -1.46 l0 -4.26 q0 -0.68 -0.18 -1 t-0.7 -0.32 q-0.3 0 -0.68 0.16 t-0.78 0.52 l0 6.68 q-0.34 0.06 -0.74 0.09 t-0.82 0.03 t-0.82 -0.03 t-0.74 -0.09 l0 -9.98 l0.14 -0.14 l1.18 0 q1.22 0 1.64 1.2 q1.4 -1.24 2.78 -1.24 q1.4 0 2.13 0.97 t0.73 2.59 z M49.14 16.02 l-5.22 0 q0.04 0.9 0.46 1.4 t1.38 0.5 q0.48 0 1.11 -0.14 t1.45 -0.46 q0.66 0.68 0.82 1.84 q-1.6 1.14 -3.92 1.14 q-1.26 0 -2.11 -0.4 t-1.38 -1.12 t-0.75 -1.7 t-0.22 -2.14 q0 -1.12 0.27 -2.07 t0.82 -1.65 t1.4 -1.1 t1.99 -0.4 q0.96 0 1.73 0.32 t1.31 0.88 t0.83 1.34 t0.29 1.7 q0 1.22 -0.26 2.06 z M43.9 13.86 l2.64 0 l0 -0.22 q0 -0.74 -0.33 -1.22 t-0.99 -0.48 q-0.64 0 -0.95 0.45 t-0.37 1.47 z M55.199999999999996 17.72 l0.54 0 q0.24 0.66 0.24 1.32 t-0.06 0.86 q-1.2 0.2 -2.14 0.2 q-1.36 0 -1.93 -0.67 t-0.57 -2.11 l0 -11.9 l0.12 -0.14 l1.22 0 q0.94 0 1.32 0.42 t0.38 1.46 l0 9.62 q0 0.94 0.88 0.94 z M61.25999999999999 17.72 l0.54 0 q0.24 0.66 0.24 1.32 t-0.06 0.86 q-1.2 0.2 -2.14 0.2 q-1.36 0 -1.93 -0.67 t-0.57 -2.11 l0 -11.9 l0.12 -0.14 l1.22 0 q0.94 0 1.32 0.42 t0.38 1.46 l0 9.62 q0 0.94 0.88 0.94 z M69.19999999999999 10 q0.12 0.56 0.12 1.12 t-0.12 1.1 l-2.38 -0.04 l0 4.6 q0 0.94 0.88 0.94 l1.12 0 q0.26 0.72 0.26 1.32 t-0.08 0.86 q-1.48 0.2 -2.72 0.2 q-2.52 0 -2.52 -2.78 l0 -5.12 l-1.56 0.02 q-0.14 -0.5 -0.14 -1.09 t0.14 -1.13 l1.56 0.04 l0 -1.16 q0 -1.02 0.39 -1.45 t1.31 -0.43 l1.22 0 l0.14 0.14 l0 2.9 z M78.5 16.02 l-5.22 0 q0.04 0.9 0.46 1.4 t1.38 0.5 q0.48 0 1.11 -0.14 t1.45 -0.46 q0.66 0.68 0.82 1.84 q-1.6 1.14 -3.92 1.14 q-1.26 0 -2.11 -0.4 t-1.38 -1.12 t-0.75 -1.7 t-0.22 -2.14 q0 -1.12 0.27 -2.07 t0.82 -1.65 t1.4 -1.1 t1.99 -0.4 q0.96 0 1.73 0.32 t1.31 0.88 t0.83 1.34 t0.29 1.7 q0 1.22 -0.26 2.06 z M73.25999999999999 13.86 l2.64 0 l0 -0.22 q0 -0.74 -0.33 -1.22 t-0.99 -0.48 q-0.64 0 -0.95 0.45 t-0.37 1.47 z M79.86 19.32 q0.02 -0.52 0.27 -1.14 t0.59 -0.98 q1.6 0.84 2.78 0.84 q0.56 0 0.86 -0.19 t0.3 -0.51 q0 -0.6 -0.92 -0.9 l-1.1 -0.42 q-2.5 -0.92 -2.5 -3 q0 -1.52 1.05 -2.41 t2.83 -0.89 q0.88 0 1.94 0.25 t1.74 0.59 q0.04 0.56 -0.22 1.23 t-0.64 0.95 q-1.68 -0.76 -2.8 -0.76 q-0.4 0 -0.61 0.18 t-0.21 0.46 q0 0.48 0.76 0.76 l1.24 0.44 q2.66 0.94 2.66 3.22 q0 1.5 -1.1 2.38 t-3.14 0.88 t-3.78 -0.98 z M95.36 10 q0.12 0.56 0.12 1.12 t-0.12 1.1 l-2.38 -0.04 l0 4.6 q0 0.94 0.88 0.94 l1.12 0 q0.26 0.72 0.26 1.32 t-0.08 0.86 q-1.48 0.2 -2.72 0.2 q-2.52 0 -2.52 -2.78 l0 -5.12 l-1.56 0.02 q-0.14 -0.5 -0.14 -1.09 t0.14 -1.13 l1.56 0.04 l0 -1.16 q0 -1.02 0.39 -1.45 t1.31 -0.43 l1.22 0 l0.14 0.14 l0 2.9 z M105.58 17.36 q0 1.36 -0.41 2.01 t-1.57 0.65 l-5.96 0 q-0.38 -0.36 -0.73 -0.91 t-0.35 -0.99 q-0.02 -0.78 0.57 -1.65 t1.73 -1.91 l2.16 -1.96 q1.06 -0.96 1.06 -1.9 q0 -0.62 -0.37 -1.02 t-1.03 -0.4 q-0.64 0 -1.1 0.51 t-0.66 1.25 q-0.3 0 -0.63 -0.06 t-0.64 -0.18 t-0.56 -0.29 t-0.39 -0.39 q0.2 -0.74 0.6 -1.36 t0.96 -1.07 t1.29 -0.7 t1.61 -0.25 q0.86 0 1.61 0.29 t1.3 0.82 t0.86 1.28 t0.31 1.65 q-0.02 1.18 -0.62 2.1 t-1.76 1.88 l-1.44 1.2 q-1.38 1.18 -1.62 1.62 q0.86 -0.1 1.61 -0.16 t1.43 -0.06 l2.74 0 z M115.43999999999998 7.039999999999999 q0.22 0.6 0.22 1.28 q0 1.3 -1.32 1.3 l-3.44 0 l0 0.54 l-0.08 0.94 l-0.06 0.34 q0.5 -0.12 1.08 -0.12 q2.04 0 3.16 1.16 t1.12 3.1 q0 1.12 -0.39 2 t-1.06 1.48 t-1.58 0.92 t-1.93 0.32 q-2.48 0 -4 -1.38 q0.04 -0.24 0.16 -0.53 t0.29 -0.57 t0.38 -0.53 t0.43 -0.41 q0.68 0.48 1.3 0.69 t1.14 0.21 q0.98 0 1.53 -0.59 t0.55 -1.49 q0 -0.96 -0.57 -1.48 t-1.39 -0.52 q-0.42 0 -0.87 0.15 t-0.89 0.47 q-0.4 -0.1 -0.86 -0.41 t-0.7 -0.67 l0.36 -6.04 l0.16 -0.16 l7.26 0 z"></path></g></svg>