<svg width="219.36923076923077" height="81.00000000000001" viewBox="0 0 219.36923076923077 81.00000000000001" class="css-1j8o68f"><defs id="SvgjsDefs1433"></defs><g id="SvgjsG1434" featurekey="0LeO0L-0" transform="matrix(5.804366588592529,0,0,5.804366588592529,4.364767533105217,-35.08739572292282)" fill="#ffb400"><path d="M4.7266 6.045 c1.5495 0 2.5879 0.49806 3.1152 1.4941 c0.36458 0.75521 0.54688 1.4941 0.54688 2.2168 l-0.019531 0 c-1.0612 0.091143 -1.7871 0.13672 -2.1777 0.13672 c0 -0.51433 -0.1595 -0.94727 -0.47852 -1.2988 c-0.29948 -0.16927 -0.57617 -0.25391 -0.83008 -0.25391 l-0.39063 0 c-0.66406 0 -1.0677 0.25716 -1.2109 0.77148 c-0.032549 0.14974 -0.048828 0.26692 -0.048828 0.35156 l0 0.20508 c0 0.72917 0.38411 1.2565 1.1523 1.582 c0.065107 0.058594 0.59896 0.30273 1.6016 0.73242 c0.53386 0.24739 1.0286 0.55338 1.4844 0.91796 l0 0.019531 l-2.4512 0 l0 0.27344 l3.2324 0 l0 0.39063 l0.41016 0 l0 4.2383 l-0.80078 0 l0 2.1777 l-6.2109 0 l0 -2.1777 l-1.4648 0 l0 -1.4648 l0.83008 0 l0 -0.50781 l-0.83008 0 l0 -0.3418 l2.8418 0 l0 2.3145 l2.9102 0 l0 -3.4863 l-2.1777 0 l0 -1.1426 l-2.7051 0 l0 -0.27344 l1.3086 0 l0 -0.019531 c-1.1458 -0.76172 -1.7188 -1.8392 -1.7188 -3.2324 l0 -0.18555 c0 -1.1653 0.35808 -2.0508 1.0742 -2.6563 c0.65104 -0.52083 1.6536 -0.78125 3.0078 -0.78125 z M8.252 12.9199 l0.98633 0 l0 0.27344 l-0.98633 0 l0 -0.27344 z M-0.75198 15.849599999999999 l0.9375 0 l0 0.50781 l-0.9375 0 l0 -0.50781 z M5.5078 15.849599999999999 l0.29296 -0.0000095367 c0.032549 0.0065136 0.048828 0.022793 0.048828 0.048838 l0 0.068359 l-0.25391 0 l0 0.087891 l0.22461 0 l0 0.068359 c0 0.032549 -0.013018 0.048828 -0.039063 0.048828 l-0.18555 0 l0 0.097656 l0.25391 0 l0 0.068359 c0 0.026045 -0.016279 0.039063 -0.048828 0.039063 l-0.29297 0 c-0.032549 0 -0.048828 -0.013018 -0.048828 -0.039063 l0 -0.43945 c0.0065136 -0.032549 0.022793 -0.048828 0.048838 -0.048828 z M5.3906 16.543 l0.087871 0.0000095367 c0.013018 0 0.068359 0.058594 0.16602 0.17578 c0.045576 -0.11719 0.081387 -0.17578 0.10743 -0.17578 l0.068359 0 c0.032549 0 0.048828 0.013018 0.048828 0.039063 c-0.13672 0.15625 -0.20508 0.31901 -0.20508 0.48828 l-0.068359 0 c-0.032549 0 -0.055332 -0.091143 -0.06835 -0.27344 c-0.091143 -0.1237 -0.13672 -0.20834 -0.13672 -0.25392 z M5.3222 17.2266 l0.087881 -0.0000095367 c0.039063 0 0.078125 0.10091 0.11719 0.30273 l0.048828 0 c0.039063 -0.20183 0.074873 -0.30273 0.10742 -0.30273 l0.097656 0 c0.026045 0.0065136 0.039063 0.022793 0.039063 0.048838 l0 0.42969 c0 0.032549 -0.013018 0.048828 -0.039063 0.048828 l-0.068359 0 l0 -0.29297 l-0.029297 0 l-0.087891 0.29297 l-0.068359 0 c-0.032549 0 -0.071611 -0.097656 -0.11719 -0.29297 l-0.019531 0 l0 0.29297 l-0.068359 0 c-0.032549 0 -0.048828 -0.016279 -0.048828 -0.048828 l0 -0.42969 c0.0065136 -0.032549 0.022793 -0.048828 0.048838 -0.048828 z M7.9979 17.9395 l0.23438 0 c0.1237 0 0.18555 0.061846 0.18555 0.18555 c-0.032549 0 -0.048828 0.013018 -0.048828 0.039063 c0.045576 0.058594 0.068359 0.11394 0.068359 0.16602 c-0.039063 0.091143 -0.1237 0.13672 -0.25391 0.13672 l-0.13672 0 c-0.032549 0 -0.048828 -0.016279 -0.048828 -0.048828 l0 -0.47852 z M8.1347 18.0566 l0 0.087891 l0.097656 0 c0.026045 0 0.039063 -0.016279 0.039063 -0.048828 l0 -0.039063 l-0.13672 0 z M8.1347 18.2324 l0 0.11719 l0.11719 0 c0.032549 0 0.048828 -0.016279 0.048828 -0.048828 l0 -0.019531 c0 -0.032549 -0.016279 -0.048828 -0.048828 -0.048828 l-0.11719 0 z M7.9979 18.623 l0.097656 0 c0.032549 0 0.10091 0.10742 0.20508 0.32227 l0.019531 0 l0 -0.32227 l0.11719 0 l0 0.47852 c0 0.032549 -0.016279 0.048828 -0.048828 0.048828 l-0.048828 0 c-0.013018 0 -0.087891 -0.097656 -0.22461 -0.29297 l0 0.24414 c0 0.032549 -0.016279 0.048828 -0.048828 0.048828 l-0.019531 0 c-0.032549 0 -0.048828 -0.016279 -0.048828 -0.048828 l0 -0.47852 z"></path></g><g id="SvgjsG1435" featurekey="pulpyG-0" transform="matrix(2.487581491470337,0,0,2.487581491470337,81.50745129116703,9.318301327717004)" fill="#f6f6f6"><path d="M1.32 20 l-0.51996 -2.7 l3.12 0 c0.22666 0 0.34 -0.1 0.34 -0.3 l0 -2.64 c0 -0.2 -0.04 -0.32 -0.12 -0.36 s-0.22 -0.06 -0.42 -0.06 l-1.5 0 c-0.21334 0 -0.41668 -0.01666 -0.61002 -0.05 s-0.36668 -0.11 -0.52002 -0.23 s-0.27334 -0.28666 -0.36 -0.5 s-0.13 -0.5 -0.13 -0.86 l0 -4.92 c0 -0.57334 0.15666 -1.03 0.47 -1.37 s0.81 -0.51 1.49 -0.51 l4 0 l0.5 2.7 l-3.28 0 c-0.24 0 -0.36 0.10666 -0.36 0.32 l0 2.64 c0 0.14666 0.03666 0.24666 0.11 0.3 s0.18334 0.08 0.33 0.08 l1.82 0 c0.46666 0 0.82332 0.11 1.07 0.33 s0.37 0.60334 0.37 1.15 l0 4.78 c0 0.8 -0.16334 1.3667 -0.49 1.7 s-0.90332 0.5 -1.73 0.5 l-3.58 0 z M11.2 8.04 l0 5.7 l1.44 0 c0.12 0 0.19666 -0.02334 0.23 -0.07 s0.05 -0.12332 0.05 -0.22998 l0 -5.12 c0 -0.18666 -0.08666 -0.28 -0.26 -0.28 l-1.46 0 z M14.02 5.5 c0.57334 0 1.0033 0.15998 1.29 0.47998 s0.43 0.74666 0.43 1.28 l0 6.94 c0 0.28 -0.03 0.53666 -0.09 0.77 s-0.17 0.43668 -0.33 0.61002 s-0.37334 0.31 -0.64 0.41 s-0.6 0.15 -1 0.15 l-2.48 0 l0 3.86 l-2.88 0 l0 -14.5 l5.7 0 z M16.880000000000003 5.5 l2.98 0 l0 11.8 l2.92 0 l-0.5 2.7 l-5.4 0 l0 -14.5 z M23.680000000000003 5.5 l2.9 0 l0 14.5 l-2.9 0 l0 -14.5 z M33.5 5.5 l0.72 2.7 l-1.94 0 l0 11.8 l-2.96 0 l0 -11.8 l-1.94 0 l0.76 -2.7 l5.36 0 z M40.18 5.5 l2.94 0 l-2.68 14.5 l-3.02 0 l-2.68 -14.5 l2.94 0 l0.26 1.86 l0.98 7.5 l1 -7.54 z M43.92 5.5 l2.9 0 l0 14.5 l-2.9 0 l0 -14.5 z M50.9 8.04 l0 9.42 l1.36 0 c0.12 0 0.19666 -0.02334 0.23 -0.07 s0.05 -0.12332 0.05 -0.22998 l0 -8.84 c0 -0.18666 -0.08666 -0.28 -0.26 -0.28 l-1.38 0 z M55.42 17.759999999999998 c0 0.8 -0.16666 1.3733 -0.5 1.72 s-0.92 0.52 -1.76 0.52 l-5.14 0 l0 -14.5 l5.68 0 c0.57334 0 1.0033 0.16 1.29 0.48 s0.43 0.74666 0.43 1.28 l0 10.5 z"></path></g></svg>