<svg width="200" height="267.75047030532613" viewBox="0 0 200 267.75047030532613" class="css-1j8o68f"><defs id="SvgjsDefs1193"><linearGradient id="SvgjsLinearGradient1198"><stop id="SvgjsStop1199" stop-color="#fe8dc6" offset="0"></stop><stop id="SvgjsStop1200" stop-color="#fed1c7" offset="1"></stop></linearGradient></defs><g id="SvgjsG1194" featurekey="symbolFeature-0" transform="matrix(1.5825328826904297,0,0,1.5825328826904297,20.233346079207053,-12.660262659978926)" fill="url(#SvgjsLinearGradient1198)"><path xmlns="http://www.w3.org/2000/svg" d="M49.831,14.185c-11.014,0-19.939,7.899-19.939,17.645s2.393,43.563,20.334,43.563c17.546,0,19.539-33.818,19.539-43.563  S60.841,14.185,49.831,14.185z M49.703,38.537c-8.658,0-15.674-4.655-15.674-10.398c0-5.739,7.016-10.396,15.674-10.396  s15.678,4.657,15.678,10.396C65.381,33.882,58.36,38.537,49.703,38.537z"></path><rect xmlns="http://www.w3.org/2000/svg" x="38.169" y="10.956" width="1.392" height="6.886"></rect><path xmlns="http://www.w3.org/2000/svg" d="M40.891,10.042c0,1.125-0.913,2.039-2.041,2.039c-1.129,0-2.041-0.914-2.041-2.039C36.81,8.913,37.722,8,38.851,8  C39.979,8,40.891,8.913,40.891,10.042z"></path><path xmlns="http://www.w3.org/2000/svg" d="M31.988,33.898c-2.725,0-4.955,2.034-5.31,4.662c-0.332,0.294-0.656,0.604-0.963,0.947  c-3.261,3.657-4.672,9.706-4.025,17.112c-2.639,1.149-4.781,6.55-0.225,9.728c-0.37-1.668,0.414-5.089,2.825-5.459  c1.671-0.466,4.36,0.927,4.36,4.265c1.998-2.003,2.627-8.841-1.412-8.95c-0.475-5.302,0.271-9.674,2.079-12.281  c0.79,0.455,1.694,0.735,2.67,0.735c2.968,0,5.379-2.407,5.379-5.378C37.367,36.307,34.956,33.898,31.988,33.898z"></path><path xmlns="http://www.w3.org/2000/svg" d="M79.642,58.062c-0.135-10.955-3.369-17.285-7.252-20.211c-0.629-2.273-2.688-3.952-5.158-3.952  c-2.977,0-5.384,2.409-5.384,5.38c0,2.971,2.407,5.378,5.384,5.378c1.179,0,2.26-0.391,3.146-1.035  c1.818,2.248,3.479,6.458,3.684,13.647c-4.865-0.204-5.679,7.021-1.008,9.547c-0.392-3.283,0.854-5.373,2.803-5.649  c2.686,0.092,2.591,4.517,2.411,5.935C83.041,64.24,82.937,59.44,79.642,58.062z"></path><path xmlns="http://www.w3.org/2000/svg" d="M37.37,28.908c2.084-1.392,6.401-1.89,8.813-0.808c0.504,0.226,0.818,0.069,0.695-0.469  c-1.414-6.17-9.97-5.037-10.282,0.934C36.567,29.116,36.911,29.214,37.37,28.908z"></path><path xmlns="http://www.w3.org/2000/svg" d="M52.7,28.204c2.279-1.041,6.619-0.842,8.826,0.612c0.461,0.304,0.796,0.2,0.761-0.351  c-0.407-6.319-9.036-6.565-10.297-0.723C51.874,28.282,52.197,28.433,52.7,28.204z"></path><ellipse xmlns="http://www.w3.org/2000/svg" cx="50" cy="89.5" rx="14" ry="2.5"></ellipse></g><g id="SvgjsG1195" featurekey="nameFeature-0" transform="matrix(2.6080219745635986,0,0,2.6080219745635986,0.003393789293464057,121.59691572826962)" fill="#ffffff"><path d="M12.04 26.119999999999997 c1.2267 0.50668 2.32 1.1533 3.28 1.94 s1.76 1.68 2.4 2.68 s1.1133 2.0867 1.42 3.26 s0.42 2.3733 0.34 3.6 l-12.04 -4.84 l0 -0.04 c-1.2 -0.48 -2.28 -1.12 -3.24 -1.92 s-1.7667 -1.7 -2.42 -2.7 s-1.1333 -2.08 -1.44 -3.24 s-0.40668 -2.3667 -0.3 -3.62 z M18.88 27.08 c-0.8 -1.44 -1.7733 -2.6667 -2.92 -3.68 s-2.2667 -1.8533 -3.36 -2.52 c-1.28 -0.77332 -2.5867 -1.4266 -3.92 -1.96 l10.2 0 l0 8.16 z M0 31.4 c0.77332 1.44 1.7267 2.6933 2.86 3.76 s2.2333 1.96 3.3 2.68 c1.2533 0.85332 2.5333 1.56 3.84 2.12 l-10 0 l0 -8.56 z M44.56 40 l-7.12 0 l0 -21.08 l7.12 0 l0 21.08 z M30.44 39.2 c-0.93332 -0.24 -1.82 -0.66 -2.66 -1.26 s-1.58 -1.3267 -2.22 -2.18 s-1.1467 -1.8133 -1.52 -2.88 s-0.56 -2.1867 -0.56 -3.36 l0 -10.64 l7.32 0 l0 11.2 l0 9.2 c-0.08 0 -0.2 -0.02668 -0.36 -0.08 z M64.44 19.36 c1.1467 0 2.2334 0.22672 3.26 0.68004 s1.92 1.0666 2.68 1.84 s1.36 1.68 1.8 2.72 s0.66 2.16 0.66 3.36 s-0.22 2.32 -0.66 3.36 s-1.04 1.9533 -1.8 2.74 s-1.6533 1.4067 -2.68 1.86 s-2.1134 0.68 -3.26 0.68 l-1.24 0 c0.4 -0.34668 0.76 -0.80668 1.08 -1.38 s0.6 -1.2333 0.84 -1.98 s0.42668 -1.5667 0.56 -2.46 s0.2 -1.8333 0.2 -2.82 c0 -0.96 -0.06668 -1.8867 -0.2 -2.78 s-0.32 -1.7133 -0.56 -2.46 s-0.52 -1.4067 -0.84 -1.98 s-0.68 -1.0333 -1.08 -1.38 l1.24 0 z M57.44 36.6 c-1.1733 0 -2.2666 -0.22676 -3.28 -0.68008 s-1.9 -1.0733 -2.66 -1.86 s-1.36 -1.7 -1.8 -2.74 s-0.66 -2.16 -0.66 -3.36 s0.22 -2.32 0.66 -3.36 s1.04 -1.9467 1.8 -2.72 s1.6467 -1.3866 2.66 -1.84 s2.1066 -0.68 3.28 -0.68 l1.4 0 c-0.77332 0.69332 -1.4066 1.8133 -1.9 3.36 s-0.74 3.2934 -0.74 5.24 c0 1.9733 0.24668 3.7333 0.74 5.28 s1.1266 2.6667 1.9 3.36 l-1.4 0 z M66.03999999999999 41.44 c1.28 0.29332 2.4467 0.75992 3.5 1.3999 s1.9733 1.4 2.76 2.28 s1.42 1.8733 1.9 2.98 s0.77332 2.2734 0.88 3.5 l-14.76 -3.4 c-1.28 -0.29332 -2.4533 -0.76 -3.52 -1.4 s-1.9934 -1.4 -2.78 -2.28 s-1.42 -1.8667 -1.9 -2.96 s-0.77332 -2.2666 -0.88 -3.52 l14.76 3.4 l0.04 0 z M52 47 c0.42668 0.88 0.92676 1.6867 1.5001 2.42 s1.1866 1.3933 1.84 1.98 s1.3266 1.1067 2.02 1.56 s1.36 0.85332 2 1.2 c1.52 0.8 3.0933 1.4267 4.72 1.88 l-12.08 0 l0 -9.04 z M76.16 13.760000000000002 c0.50668 0.8 0.64676 1.6532 0.42008 2.5599 s-0.72668 1.6134 -1.5 2.12 c-0.82668 0.50668 -1.7 0.64668 -2.62 0.42 s-1.6333 -0.74 -2.14 -1.54 c-0.37332 -0.58668 -0.76 -1.0067 -1.16 -1.26 s-0.77332 -0.40664 -1.12 -0.45996 c-0.4 -0.08 -0.8 -0.06668 -1.2 0.04 c0.29332 -0.48 0.66664 -0.93332 1.12 -1.36 c0.37332 -0.37332 0.84664 -0.74664 1.42 -1.12 s1.2466 -0.66664 2.02 -0.87996 c2.1867 -0.58668 3.7734 -0.09336 4.76 1.48 z"></path></g></svg>