<svg width="330" height="97" viewBox="0 0 330 97" class="css-1j8o68f"><defs id="SvgjsDefs1124"></defs><g id="SvgjsG1125" featurekey="symbolContainer" transform="matrix(1,0,0,1,0,0)" fill="#2f056b"><rect width="110" height="97" rx="8"></rect></g><g id="SvgjsG1126" featurekey="symbolFeature-0" transform="matrix(1.3895950317382812,0,0,1.3895950317382812,20.000201433601426,11.96373301596687)" fill="#f9e1cf"><g xmlns="http://www.w3.org/2000/svg"><path d="M13.82,37.897c-3.106,0-5.496-1.003-6.909-2.898c-3.671-4.932,0.658-14.163,9.856-21.016   c5.318-3.962,11.318-6.328,16.048-6.328c3.106,0,5.495,1.002,6.908,2.898c3.673,4.931-0.657,14.162-9.854,21.016   C24.549,35.531,18.55,37.897,13.82,37.897L13.82,37.897z M32.815,10.148c-4.212,0-9.655,2.181-14.559,5.833   C10.448,21.8,6.168,29.826,8.911,33.51c1.167,1.566,3.313,1.895,4.909,1.895c4.213,0,9.655-2.181,14.559-5.834   c7.808-5.818,12.088-13.844,9.347-17.527C36.559,10.478,34.411,10.148,32.815,10.148L32.815,10.148z"></path><path d="M15.858,32.833c-2.128,0-3.213-0.856-3.749-1.574c-1.153-1.547-0.9-3.875,0.713-6.555c1.415-2.352,3.757-4.812,6.597-6.929   c3.971-2.957,8.182-4.723,11.264-4.723c2.127,0,3.213,0.856,3.75,1.575c1.151,1.547,0.899,3.875-0.715,6.556   c-1.415,2.352-3.76,4.812-6.601,6.927C23.15,31.067,18.941,32.833,15.858,32.833L15.858,32.833z M30.684,15.561   c-2.485,0-6.319,1.659-9.765,4.226c-2.584,1.926-4.697,4.132-5.947,6.21c-1.007,1.674-1.333,3.116-0.852,3.763   c0.368,0.493,1.247,0.566,1.739,0.566c2.485,0,6.317-1.659,9.762-4.228c2.586-1.926,4.699-4.131,5.95-6.209   c1.008-1.674,1.334-3.117,0.853-3.764C32.056,15.634,31.175,15.561,30.684,15.561L30.684,15.561z"></path><path d="M20.303,26.375c-0.532,0-0.823-0.282-0.949-0.451c-0.178-0.239-0.251-0.539-0.207-0.847   c0.151-1.038,2.049-2.59,3.167-3.423c0.834-0.621,2.892-2.066,3.983-2.066c0.534,0,0.826,0.285,0.951,0.455   c0.176,0.233,0.249,0.534,0.204,0.842c-0.149,1.036-2.046,2.587-3.164,3.42C23.453,24.928,21.394,26.375,20.303,26.375   L20.303,26.375z"></path><path d="M45.97,36.837c5.495-8.946,6.312-19.875-0.21-29.01c-0.208-0.368-0.549-0.753-0.806-1.097   c-2.216-2.973-5.903-4.545-10.665-4.545c-6.333,0-13.734,2.807-20.306,7.703C1.969,18.841-3.253,31.48,2.095,38.661   c0.085,0.114,0.187,0.212,0.276,0.322c8.157,10.296,22.1,13.276,33.306,7.437c0,0,2.399-1.171,4.631-0.807   c2.058,0.334,5.645,4.787,5.645,4.787l3.16-2.571c0,0-3.03-3.804-3.583-5.328C44.805,40.504,45.313,38.012,45.97,36.837z    M15.486,11.906c6.146-4.578,12.999-7.204,18.803-7.204c2.743,0,6.472,0.613,8.647,3.532c4.43,5.949-0.673,17.277-11.373,25.25   c-6.148,4.579-13.003,7.206-18.805,7.206c-2.744,0-6.471-0.613-8.646-3.532C-0.318,31.209,4.784,19.881,15.486,11.906z"></path></g></g><g id="SvgjsG1127" featurekey="nameFeature-0" transform="matrix(2.7513346672058105,0,0,2.7513346672058105,127.1924284613007,-39.67298041485597)" fill="#2f056b"><path d="M5.924 39.963594 c-0.22922 0 -0.45796 -0.070392 -0.70156 -0.21117 l-3.5008 -2.0236 c-0.4868 -0.2816 -0.7012 -0.6532 -0.7012 -1.2156 l0 -17.738 c0 -0.5632 0.4568 -1.02 1.02 -1.02 s1.02 0.4568 1.02 1.02 l0 17.372 l2.864 1.6556 l2.864 -1.6556 l0 -3.9016 c0 -0.5632 0.4568 -1.02 1.02 -1.02 s1.02 0.4568 1.02 1.02 l0 4.2684 c0 0.5624 -0.21442 0.934 -0.7016 1.2156 l-3.5008 2.0236 c-0.24359 0.14078 -0.4728 0.21117 -0.70204 0.21117 z M5.9244 35.51 c-0.5632 0 -1.0196 -0.4564 -1.0196 -1.0196 l0 -6.5132 c0 -0.5624 0.21442 -0.934 0.7012 -1.2156 l3.6772 -2.1256 c0.15359 -0.092384 0.3332 -0.14559 0.5252 -0.14559 c0.5632 0 1.02 0.4568 1.02 1.02 c0 0.38398 -0.21238 0.7184 -0.52596 0.8924 l-3.358 1.9408 l0 6.1464 c0 0.5632 -0.4568 1.02 -1.02 1.02 z M5.9192 24.286 l0.0027734 -0.000078124 c-0.5512 0 -1.0216 -0.4568 -1.0216 -1.0252 l0.0048048 -6.7308 c0 -0.5632 0.4564 -1.02 1.0196 -1.02 s1.02 0.4568 1.02 1.02 l0 4.9672 l2.3388 -1.352 c0.15359 -0.092384 0.3332 -0.14559 0.5252 -0.14559 c0.5632 0 1.02 0.4568 1.02 1.02 c0 0.38398 -0.2152 0.7132 -0.52596 0.8928 l-3.8716 2.2364 c-0.15559 0.089608 -0.33238 0.13723 -0.512 0.13723 z M17.764 39.963594 l0.0045312 0.0012109 c-0.22922 0 -0.45844 -0.070392 -0.70204 -0.21117 l-3.5008 -2.0236 c-0.4868 -0.2816 -0.7012 -0.6532 -0.7012 -1.2156 l0 -13.027 c0 -0.5624 0.21442 -0.934 0.7012 -1.2156 l3.6772 -2.1256 c0.15359 -0.092384 0.3332 -0.14559 0.5252 -0.14559 c0.5632 0 1.02 0.4568 1.02 1.02 c0 0.38398 -0.21238 0.7184 -0.52596 0.8924 l-3.358 1.9408 l0 12.293 l2.864 1.6556 l6.7476 -3.9004 l0 -11.114 l-5.7276 3.3108 l0 6.6236 l1.844 -1.066 l0 -3.9016 c0 -0.5632 0.4568 -1.02 1.02 -1.02 s1.02 0.4568 1.02 1.02 l0 4.2684 c0 0.5624 -0.21442 0.93436 -0.7016 1.2156 l-3.6964 2.1348 c-0.15559 0.089608 -0.33238 0.13723 -0.512 0.13723 c-0.6728 0 -1.0208 -0.5924 -1.0208 -1.0252 l0.0048048 -8.7544 c0 -0.5624 0.21398 -0.934 0.7008 -1.2156 l7.5708 -4.378 c0.15559 -0.089608 0.33238 -0.13723 0.512 -0.13723 c0.5504 0 1.0184 0.452 1.0184 1.0196 l0.004414 13.248 c0 0.5624 -0.2148 0.934 -0.702 1.2116 l-7.3844 4.2724 c-0.24359 0.14078 -0.4728 0.21117 -0.70204 0.21117 z M29.599200000000003 40 l0.0030859 0.00082032 c-0.5508 0 -1.0212 -0.4568 -1.0212 -1.0252 l0.0048048 -13.244 c0 -0.5624 0.21442 -0.934 0.7012 -1.2156 l7.3844 -4.2684 c0.24359 -0.14078 0.4728 -0.21117 0.70204 -0.21117 s0.45844 0.070392 0.70204 0.21117 l3.5008 2.0236 c0.4868 0.2816 0.7012 0.6532 0.7012 1.2156 l0 4.0468 c0 0.5624 -0.21442 0.934 -0.7016 1.2156 l-3.1824 1.8396 l0 6.1464 c0 0.5632 -0.4568 1.02 -1.02 1.02 s-1.02 -0.4568 -1.02 -1.02 l0 -6.5132 c0 -0.5624 0.21442 -0.934 0.7012 -1.2156 l3.1824 -1.8396 l0 -3.3128 l-2.864 -1.6552 l-6.7476 3.9004 l0 11.114 l1.844 -1.066 l0 -8.17 c0 -0.5624 0.21442 -0.934 0.7012 -1.2156 l3.6772 -2.1256 c0.1532 -0.092384 0.33281 -0.14559 0.5248 -0.14559 c0.5632 0 1.02 0.4568 1.02 1.02 c0 0.38398 -0.21238 0.7184 -0.52596 0.8924 l-3.358 1.9408 l0 8.17 c0 0.5624 -0.21442 0.934 -0.7016 1.2152 l-3.696 2.1348 c-0.15559 0.089608 -0.33238 0.13723 -0.512 0.13723 z M45.3192 40 l0.0030859 0.00082032 c-0.5508 0 -1.0212 -0.4568 -1.0212 -1.0252 l0.0048048 -13.244 c0 -0.5624 0.21442 -0.934 0.7012 -1.2156 l7.3844 -4.2684 c0.24359 -0.14078 0.4728 -0.21117 0.70204 -0.21117 s0.45844 0.070392 0.70204 0.21117 l3.5008 2.0236 c0.4868 0.2816 0.7012 0.6532 0.7012 1.2156 l0 4.0468 c0 0.5624 -0.21442 0.934 -0.7016 1.2156 l-3.1824 1.8396 l0 6.1464 c0 0.5632 -0.4568 1.02 -1.02 1.02 s-1.02 -0.4568 -1.02 -1.02 l0 -6.5132 c0 -0.5624 0.21442 -0.934 0.7012 -1.2156 l3.1824 -1.8396 l0 -3.3128 l-2.864 -1.6552 l-6.7476 3.9004 l0 11.114 l1.844 -1.066 l0 -8.17 c0 -0.5624 0.21442 -0.934 0.7012 -1.2156 l3.6772 -2.1256 c0.1532 -0.092384 0.33281 -0.14559 0.5248 -0.14559 c0.5632 0 1.02 0.4568 1.02 1.02 c0 0.38398 -0.21238 0.7184 -0.52596 0.8924 l-3.358 1.9408 l0 8.17 c0 0.5624 -0.21442 0.934 -0.7016 1.2152 l-3.696 2.1348 c-0.15559 0.089608 -0.33238 0.13723 -0.512 0.13723 z M69.51 48.7324 c-0.24359 0.14078 -0.47236 0.21039 -0.70156 0.21039 s-0.45844 -0.070392 -0.70204 -0.21117 l-3.676 -2.1248 c-0.31359 -0.17398 -0.52596 -0.5084 -0.52596 -0.8924 c0 -0.5632 0.4568 -1.02 1.02 -1.02 c0.19199 0 0.3716 0.053204 0.5252 0.14559 l3.3588 1.9416 l2.864 -1.6552 l0 -21.862 c0 -0.5632 0.4568 -1.02 1.02 -1.02 s1.02 0.4568 1.02 1.02 l0 22.228 c0 0.5624 -0.21442 0.934 -0.7016 1.2156 z M64.9244 35.5092 c-0.19199 0 -0.37199 -0.052812 -0.5256 -0.1452 l-3.6772 -2.1256 c-0.4868 -0.2816 -0.7012 -0.6532 -0.7012 -1.2156 l0 -8.7584 c0 -0.5632 0.4568 -1.02 1.02 -1.02 s1.02 0.4568 1.02 1.02 l0 8.3916 l3.358 1.9408 c0.31359 0.17398 0.52596 0.5084 0.52596 0.8924 c0 0.5632 -0.4568 1.02 -1.02 1.02 z M68.80799999999999 44.4896 c-0.5632 0 -1.02 -0.4568 -1.02 -1.02 l0 -22.45 c0 -0.5632 0.4568 -1.02 1.02 -1.02 s1.02 0.4568 1.02 1.02 l0 22.45 c0 0.5632 -0.4568 1.02 -1.02 1.02 z M64.924 31.0196 c-0.5632 0 -1.02 -0.4568 -1.02 -1.02 l0 -8.98 c0 -0.5632 0.4568 -1.02 1.02 -1.02 s1.02 0.4568 1.02 1.02 l0 8.98 c0 0.5632 -0.4568 1.02 -1.02 1.02 z"></path></g></svg>