<svg width="379.79633096218646" height="118.44146986175964" viewBox="-10 -5 379.79633096218646 118.44146986175964" class="css-1j8o68f"><defs id="SvgjsDefs2771"></defs><g id="SvgjsG2772" featurekey="QMusi1-0" transform="matrix(0.014262685552239418,0,0,0.014262685552239418,-38.211591223824485,-19.594651234639187)" fill="#d62b70"><defs xmlns="http://www.w3.org/2000/svg"></defs><g xmlns="http://www.w3.org/2000/svg"><path class="fil0" d="M3734 2075c-196,963 245,1780 261,2074 17,294 -196,915 -408,989 -1567,542 -986,2147 -1609,3839 862,-463 1460,-100 1323,-1095 -120,-871 652,-328 702,-1715 734,1671 2832,-215 3480,-261 343,-25 539,-41 539,-41 0,0 -637,-433 -490,-891 1341,-4171 -3398,-4865 -3798,-2899zm142 395c249,-404 709,-328 1173,-203 -477,-964 -1172,-651 -1173,203zm1221 -101c-498,-137 -1000,-241 -1212,278 58,609 331,1247 355,1494 25,253 82,302 229,425 337,280 978,-142 972,-523 -5,-306 -86,-1085 -344,-1674z" style="fill: #d62b70;"></path></g></g><g id="SvgjsG2773" featurekey="UyNsn2-0" transform="matrix(2.7352118492126465,0,0,2.7352118492126465,104.27509514201286,15.174601534036906)" fill="#111111"><path d="M11.099 19.5456 c0.13539 0 0.2324 0.096602 0.2324 0.2226 c0 0.13539 -0.096602 0.232 -0.232 0.232 l-3.02 0 l0 -2.3336 c-0.5484 1.4496 -1.703 2.4914 -3.4036 2.4914 c-1.72 0 -2.8132 -1.0188 -2.8132 -2.8708 l0 -5.291 c0 -0.3048 -0.2354 -0.5614 -0.56138 -0.5614 l-0.43859 0 c-0.13539 0 -0.232 -0.096602 -0.232 -0.2226 c0 -0.13539 0.096602 -0.232 0.232 -0.232 l3.02 0 l0 6.0636 c0 1.6944 0.756 2.2838 1.596 2.2838 c1.636 0 2.6004 -1.7832 2.6004 -3.8958 l0 -3.4358 c0 -0.3048 -0.2354 -0.5614 -0.56138 -0.5614 l-0.43859 0 c-0.13539 0 -0.232 -0.096602 -0.232 -0.2226 c0 -0.13539 0.096602 -0.232 0.232 -0.232 l3.02 0 l0 8.0042 c0 0.3048 0.2354 0.5614 0.56138 0.5614 l0.43859 0 z M16.7024 19.5456 c0.13539 0 0.23202 0.096602 0.23202 0.2226 c0 0.13539 -0.096602 0.232 -0.232 0.232 l-4.02 0 c-0.13539 0 -0.232 -0.096602 -0.232 -0.232 c0 -0.126 0.096602 -0.2226 0.232 -0.2226 l0.43859 0 c0.326 0 0.56138 -0.2566 0.56138 -0.5614 l0 -12.548 c0 -0.3048 -0.2354 -0.5614 -0.56138 -0.5614 l-0.43859 0 c-0.13539 0 -0.232 -0.096602 -0.232 -0.2226 c0 -0.13539 0.096602 -0.232 0.232 -0.232 l3.02 0 l0 13.564 c0 0.3048 0.2354 0.5614 0.56138 0.5614 l0.43859 0 z M22.662 19.5456 c0.13539 0 0.23216 0.096582 0.23216 0.23198 c0 0.126 -0.096602 0.2226 -0.232 0.2226 l-4.1728 0 c-0.13539 0 -0.232 -0.096602 -0.232 -0.232 c0 -0.126 0.096602 -0.2226 0.232 -0.2226 l0.376 0 c0.3256 0 0.4192 -0.2604 0.16721 -0.56378 l-3.0216 -3.625 l4.308 -3.3986 c0.2376 -0.1852 0.1726 -0.5236 -0.2576 -0.5236 l-0.74939 0 c-0.13539 0 -0.232 -0.096602 -0.232 -0.232 c0 -0.126 0.096602 -0.2226 0.232 -0.2226 l3.2432 0 c0.13539 0 0.232 0.096602 0.232 0.232 c0 0.126 -0.096602 0.2226 -0.232 0.2226 l-0.15881 0 c-0.5448 0 -0.83 0.13279 -1.3332 0.5236 l-3.2174 2.5414 l3.8118 4.586 c0.2418 0.299 0.5116 0.46 0.8998 0.46 l0.10461 0 z M34.262 19.5456 c0.13539 0 0.23224 0.096816 0.23224 0.22282 c0 0.13539 -0.096602 0.232 -0.232 0.232 l-4.02 0 c-0.13539 0 -0.232 -0.096602 -0.232 -0.232 c0 -0.126 0.096602 -0.2226 0.232 -0.2226 l0.43859 0 c0.326 0 0.56138 -0.2566 0.56138 -0.5614 l0 -5.0372 c0 -1.6944 -0.8196 -2.2838 -1.6596 -2.2838 c-1.6362 0 -2.7206 1.7832 -2.7206 3.8958 l0 3.4252 c0 0.3048 0.2354 0.5614 0.56138 0.5614 l0.43859 0 c0.13539 0 0.232 0.096602 0.232 0.2226 c0 0.13539 -0.096602 0.232 -0.232 0.232 l-4.02 0 c-0.13539 0 -0.232 -0.096602 -0.232 -0.232 c0 -0.126 0.096602 -0.2226 0.232 -0.2226 l0.43859 0 c0.326 0 0.56138 -0.2566 0.56138 -0.5614 l0 -12.548 c0 -0.3048 -0.2354 -0.5614 -0.56138 -0.5614 l-0.43859 0 c-0.13539 0 -0.232 -0.096602 -0.232 -0.2226 c0 -0.13539 0.096602 -0.232 0.232 -0.232 l3.02 0 l0 8.016 c0.5872 -1.515 1.835 -2.6032 3.5234 -2.6032 c1.72 0 2.8766 1.0188 2.8766 2.8708 l0 5.2804 c0 0.3048 0.2354 0.5614 0.56138 0.5614 l0.43859 0 z M42.30760000000001 18.0046 c0.13539 0 0.213 0.10596 0.213 0.21316 c0 0.085996 -0.067206 0.2542 -0.1932 0.4614 c-0.3414 0.6166 -1.0368 1.487 -2.5132 1.487 c-1.8518 0 -2.9816 -1.1224 -2.9816 -2.796 l0 -5.9356 l-1 0 c-0.13539 0 -0.232 -0.096602 -0.232 -0.232 c0 -0.126 0.096602 -0.2226 0.232 -0.2226 l0.1458 0 c1.2616 0 2.4198 -0.9652 2.4198 -2.7852 c0 -0.13539 0.096602 -0.232 0.232 -0.232 c0.126 0 0.2226 0.096602 0.2226 0.232 l0 2.7852 l3.0244 0 c0.13539 0 0.232 0.096602 0.232 0.232 c0 0.126 -0.096602 0.2226 -0.232 0.2226 l-3.0244 0 l0 5.9356 c0 1.2446 0.6034 2.008 1.5386 2.008 c0.7938 0 1.323 -0.3786 1.6902 -1.1406 c0.069394 -0.1318 0.10719 -0.23298 0.226 -0.23298 z M44.610600000000005 7.686 c0 -0.6356 0.5096 -1.1452 1.1558 -1.1452 c0.6168 0 1.1264 0.5096 1.1264 1.1452 c0 0.6168 -0.5096 1.1264 -1.1264 1.1264 c-0.6462 0 -1.1558 -0.5096 -1.1558 -1.1264 z M47.7624 19.5456 c0.13539 0 0.23202 0.096602 0.23202 0.2226 c0 0.13539 -0.096602 0.232 -0.232 0.232 l-4.02 0 c-0.13539 0 -0.232 -0.096602 -0.232 -0.232 c0 -0.126 0.096602 -0.2226 0.232 -0.2226 l0.43859 0 c0.326 0 0.56138 -0.2566 0.56138 -0.5614 l0 -6.9882 c0 -0.3048 -0.2354 -0.5614 -0.56138 -0.5614 l-0.43859 0 c-0.13539 0 -0.232 -0.096602 -0.232 -0.2226 c0 -0.13539 0.096602 -0.232 0.232 -0.232 l3.02 0 l0 8.0042 c0 0.3048 0.2354 0.5614 0.56138 0.5614 l0.43859 0 z M49.5972 19.1278 c0 -0.5884 0.4908 -1.0698 1.0794 -1.0698 c0.5896 0 1.071 0.4814 1.071 1.0698 c0 0.5896 -0.4814 1.0804 -1.071 1.0804 c-0.5886 0 -1.0794 -0.4908 -1.0794 -1.0804 z M58.16640000000001 11.2702 c0 2.2884 3.7536 3.2742 3.7536 5.9028 c0 1.9366 -1.9688 2.9932 -4.2488 2.9932 c-2.0966 0 -3.9254 -1.0318 -3.9254 -2.9122 c0 -0.7412 0.4506 -1.1168 0.89862 -1.1688 l2.575 -4.5514 c0.1376 -0.4302 0.3708 -0.859 0.6398 -1.2784 c0.15279 -0.2352 0.3374 -0.401 0.4468 -0.401 c0.146 0 0.2332 0.1082 0.21202 0.2248 c-0.1692 0.388 -0.3516 0.683 -0.3516 1.191 z M57.43600000000001 19.70916 c1.7994 0 2.5784 -0.8886 2.5784 -2.0486 c0 -1.7276 -2.9782 -2.6768 -3.0064 -4.8956 l-1.9046 3.4058 c0.2708 0.09539 0.4952 0.34638 0.4952 0.7504 c0 0.6176 -0.7388 0.8212 -0.7388 1.3578 c0 0.7822 1.1988 1.4302 2.5762 1.4302 z M74.08200000000001 19.5456 c0.13539 0 0.23224 0.096816 0.23224 0.22282 c0 0.13539 -0.096602 0.232 -0.232 0.232 l-4.02 0 c-0.13539 0 -0.232 -0.096602 -0.232 -0.232 c0 -0.126 0.096602 -0.2226 0.232 -0.2226 l0.43859 0 c0.326 0 0.56138 -0.2566 0.56138 -0.5614 l0 -5.0372 c0 -1.6944 -0.8196 -2.2838 -1.6596 -2.2838 c-1.6362 0 -2.7206 1.7832 -2.7206 3.8958 l0 3.4252 c0 0.3048 0.2354 0.5614 0.56138 0.5614 l0.43859 0 c0.13539 0 0.232 0.096602 0.232 0.2226 c0 0.13539 -0.096602 0.232 -0.232 0.232 l-4.02 0 c-0.13539 0 -0.232 -0.096602 -0.232 -0.232 c0 -0.126 0.096602 -0.2226 0.232 -0.2226 l0.43859 0 c0.326 0 0.56138 -0.2566 0.56138 -0.5614 l0 -12.548 c0 -0.3048 -0.2354 -0.5614 -0.56138 -0.5614 l-0.43859 0 c-0.13539 0 -0.232 -0.096602 -0.232 -0.2226 c0 -0.13539 0.096602 -0.232 0.232 -0.232 l3.02 0 l0 8.016 c0.5872 -1.515 1.835 -2.6032 3.5234 -2.6032 c1.72 0 2.8766 1.0188 2.8766 2.8708 l0 5.2804 c0 0.3048 0.2354 0.5614 0.56138 0.5614 l0.43859 0 z M80.32740000000001 20.166 c-2.749 0 -4.6418 -1.7684 -4.6418 -4.6964 c0 -2.683 1.7704 -4.6578 4.642 -4.6578 c2.6642 0 4.6324 1.5978 4.6324 4.6578 c0 2.928 -1.827 4.6964 -4.6326 4.6964 z M80.3028 19.72922 c1.5758 -0.010605 2.5722 -1.4874 2.5722 -4.241 c0 -2.8434 -1.036 -4.2302 -2.5478 -4.2302 c-1.4928 0 -2.5572 1.3868 -2.5572 4.2302 c0 2.503 0.9088 4.2304 2.5328 4.241 z M93.12940000000002 10.8118 c2.2588 0 3.9458 1.861 3.9458 4.6758 c0 2.9358 -1.6918 4.6996 -3.946 4.6996 c-1.6294 0 -2.7574 -0.99 -3.407 -2.5616 l0 6.7786 c0 0.3048 0.2354 0.5614 0.56138 0.5614 l0.43859 0 c0.13539 0 0.232 0.096602 0.232 0.2226 c0 0.13539 -0.096602 0.232 -0.232 0.232 l-3.02 0 l0 -13.424 c0 -0.3048 -0.2354 -0.5614 -0.56138 -0.5614 l-0.43859 0 c-0.13539 0 -0.232 -0.096602 -0.232 -0.2226 c0 -0.13539 0.096602 -0.232 0.232 -0.232 l3.02 0 l0 2.3944 c0.612 -1.496 1.7118 -2.5626 3.4072 -2.5626 z M92.55380000000002 19.57378 c1.4244 0 2.4182 -1.0796 2.4182 -4.075 c0 -2.9942 -0.9938 -4.0738 -2.4182 -4.0738 c-1.4658 0 -2.8598 1.874 -2.8598 4.0844 c0 2.1456 1.3564 4.0644 2.8598 4.0644 z"></path></g></svg>