<svg width="360" height="125.76529568331355" viewBox="0 0 360 125.76529568331355" class="css-1j8o68f"><defs id="SvgjsDefs1001"></defs><g id="SvgjsG1007" featurekey="PG4fjM-0" transform="matrix(36.51847457885742,0,0,36.51847457885742,-39.30020817679443,-23.401189594120552)" fill="#a12559"><title xmlns="http://www.w3.org/2000/svg">muslim</title><g xmlns="http://www.w3.org/2000/svg" data-name="Layer 1"><path d="M1.86021,1.45507l.00663-.00365-.01329.0072-.01127.00706-.00306.00185-.0018.00154-.02161.0197L1.80724,1.498l-.00238.00249-.002.003A.235.235,0,0,1,1.86021,1.45507Z"></path><path d="M1.9865,2.0554c-.00583.0002-.01167.00018-.01752.00014l.00191.00053a.38311.38311,0,0,0,.05747-.004C2.01443,2.05368,2.00046,2.05492,1.9865,2.0554Z"></path><path d="M2.73634,1.26761c.01581.02453.03071.04983.04475.07537A.67769.67769,0,0,0,2.73634,1.26761Z"></path><path d="M1.43868,2.56731c.00455-.01979.00851-.03971.01209-.0597q-.03156.12258-.06894.2435c.00883-.02391.01742-.04788.02537-.072C1.41932,2.64231,1.43,2.60505,1.43868,2.56731Z"></path><path d="M3.61521,2.878l-.02666-.04429c-.0501-.0805-.10387-.15881-.15942-.236q.07627.11451.15251.229Z"></path><path d="M2.96683,1.87816c-.00826-.04285-.01738-.08542-.0277-.12764C2.93555,1.72524,2.93134,1.7,2.926,1.675a1.04124,1.04124,0,0,0-.1978-.42681l-.00378.00147a.71173.71173,0,0,0-.11366-.13417A.71625.71625,0,0,0,2.35617.97569L2.32912.96316a.57887.57887,0,0,0-.4425-.00889.51177.51177,0,0,0-.30026.34855.67269.67269,0,0,0-.01494.2601.83757.83757,0,0,0,.01489.08437l-.00251.01517q-.01438.07287-.02822.14588c.00081-.01677.0018-.03353.00341-.05025l-.00358,0a1.77815,1.77815,0,0,1-.03952.17872c-.01368.05566-.02471.11194-.03837.16762-.02448.09979-.04512.20052-.06937.3004q-.03692.152-.08237.30174c-.05971.19667-.1323.38891-.19436.58472a.016.016,0,0,0,.02421.01732l-.00777.02219a.18276.18276,0,0,0,.05563.22057.35592.35592,0,0,0,.07982.038l.0388.01491.00632.003L1.344,3.616l.00732.00491.00118.00144.00532.00579a.14245.14245,0,0,1,.01456.03788.43285.43285,0,0,0,.03871.101.37979.37979,0,0,0,.3628.19155.92019.92019,0,0,1,.11889-.007l.01335.0011.01107.00237.01721.005a.2183.2183,0,0,1,.04368.0281l.00262.00195.00356.00286.00828.00671.02724.02178a.2701.2701,0,0,0,.04472.02877.338.338,0,0,0,.122.03372A.53105.53105,0,0,0,2.41131,4.047a1.29622,1.29622,0,0,0,.2254-.10633q.05027-.03018.09744-.06514l.03467-.02612.00852-.00659.00359-.00223.0152-.0088.00394-.00121.00724.00028.00963.00215.03109.00814.05668.01406c.04507.01053.09043.01888.13621.02564a.82062.82062,0,0,0,.26073.00042.74926.74926,0,0,0,.22694-.0824A1.06555,1.06555,0,0,0,3.6238,3.7401a.79139.79139,0,0,0,.09921-.075c.02711-.02587.05484-.05114.0825-.07642.022-.0201.06085-.05023.06114-.08289L3.866,3.49785l.00328-.00255a2.48408,2.48408,0,0,0-.08853-.39547,1.5755,1.5755,0,0,0-.16133-.33021c-.06386-.10426-.13571-.20281-.2089-.30064q-.11643-.15561-.23328-.3109l-.12071-.16095-.063-.084Zm-1.51606.62945c-.00358.02-.00754.03991-.01209.0597-.00869.03774-.01936.075-.03148.11178-.00795.02414-.01654.04811-.02537.072Q1.41936,2.63026,1.45077,2.50761Zm.16366-.25969c-.00257.0436-.00583.08726-.01032.13071-.009.08683-.02337.17326-.03944.259a3.00782,3.00782,0,0,1-.14545.50682,1.4362,1.4362,0,0,1-.1195.26749.0108.0108,0,0,1-.01951-.00858c.01969-.08372.0533-.16437.07985-.24617.02671-.08229.05054-.16551.07414-.24874q.07017-.24741.12252-.49968c.00973-.0468.01989-.0935.02909-.14041.00991-.05049.02216-.10059.0274-.1518.00047-.00454.00758-.00451.00716.00011C1.61639,2.16044,1.617,2.20408,1.61443,2.24792Zm.19043-.74739L1.80724,1.498l.00857-.00927.02161-.0197.0018-.00154.00306-.00185.01127-.00706.01329-.0072-.00663.00365a.235.235,0,0,0-.05737.0485ZM1.9527,3.21571a.59332.59332,0,0,1-.01525.13472.00857.00857,0,0,1-.0164-.00025A.69537.69537,0,0,1,1.9038,3.2357c-.00416-.0401-.00821-.08022-.01265-.12028-.009-.08088-.01612-.16192-.02632-.24267-.0203-.16063-.04926-.3204-.08139-.479a2.41,2.41,0,0,0-.06213-.26642c-.00161-.005.00606-.00682.0078-.002.0281.077.06109.15216.0882.22965a2.42506,2.42506,0,0,1,.06755.23522c.01934.08062.033.16254.0444.24462a2.3836,2.3836,0,0,1,.02383.24437C1.95464,3.12457,1.95458,3.1703,1.9527,3.21571Zm.1717-.17849c-.02834-.05529-.054-.11044-.07685-.16823-.023-.058-.04212-.11754-.0615-.17681-.019-.058-.038-.11622-.05387-.17517-.01678-.06215-.0284-.12453-.0406-.18755a.00515.00515,0,0,1,.01-.00259c.01875.05821.04.116.05986.174.02026.05926.03951.11881.06123.17757.02128.05755.04554.11385.06828.1708.02314.05795.04535.116.06764.17422C2.16611,3.04314,2.13389,3.05573,2.1244,3.03722ZM1.969,2.05554c.00585,0,.01169.00006.01752-.00014.014-.00048.02793-.00172.04186-.00328a.38311.38311,0,0,1-.05747.004Zm.53079-.245a.65261.65261,0,0,1-.07138.05578,1.068,1.068,0,0,1-.1452.08022,1.50769,1.50769,0,0,1-.15153.05683.40561.40561,0,0,1-.16678.00462.78124.78124,0,0,1-.16275-.031L1.7997,1.97636l-.00361-.02549a.19258.19258,0,0,0,.09753-.04728l.01147-.00841.00346.0112a.04494.04494,0,0,0,.03157.02035c.02446.00468.06035-.00487.0628-.03457a.03492.03492,0,0,0-.0063-.02284.17639.17639,0,0,1,.059.02439l.00255-.00421a.18511.18511,0,0,0-.14526-.03866.2094.2094,0,0,0-.073.03906.31208.31208,0,0,1-.04791.03c-.0027-.02325-.00458-.04655-.00595-.06987l.00552-.00585a.0914.0914,0,0,1,.06182-.019c.0272-.00084.05439.00023.0816-.00062A.656.656,0,0,0,2.01869,1.817c.02907-.0046.0191-.04481-.00571-.04757a.68526.68526,0,0,0-.11149-.00226.31572.31572,0,0,0-.08679.01251.11974.11974,0,0,0-.03067.01563c-.0001-.00742-.0004-.01484-.00035-.02224a.30173.30173,0,0,1,.14992-.30079.30024.30024,0,0,1,.1714-.00461.614.614,0,0,1,.16744.0585.77653.77653,0,0,1,.11482.07324.10843.10843,0,0,0-.052.01559c-.02213.01331-.04241.03039-.06347.04535a.20148.20148,0,0,0-.05353.04716.02166.02166,0,0,0-.00033.02183l.00332.00443a.02159.02159,0,0,0,.021.00588.33954.33954,0,0,0,.10824-.06761A.24911.24911,0,0,1,2.397,1.6413a.08944.08944,0,0,1,.03289-.00675q.03243.02831.06227.05956l-.03723.0019A.24925.24925,0,0,0,2.37847,1.71a.1437.1437,0,0,0-.08564.11455c-.00061.00475.00608.007.00911.00394.0176-.01776.02847-.04018.04548-.05827l.00543-.00533a.04047.04047,0,0,0,.01647.02406.0488.0488,0,0,0,.06861-.0146.03235.03235,0,0,0-.00248-.03893l-.00588-.00429c.01984-.00279.04-.00364.05982-.00628a.13076.13076,0,0,0,.02542-.00633l.03129.03639.00917.01135C2.53693,1.78107,2.51729,1.79477,2.49977,1.8105ZM2.78109,1.343c-.014-.02554-.02894-.05084-.04475-.07537A.67769.67769,0,0,1,2.78109,1.343Zm.01972,1.58426q-.004.064-.01024.12777c-.0021.02145-.00466.04273-.00791.064a.539.539,0,0,1-.016.06542A.00832.00832,0,0,1,2.75041,3.182c-.0008-.02316-.00249-.0447-.00133-.068l.00378-.05954q.00444-.06384.0066-.12782c.00287-.08535.00408-.17072.00175-.2561s-.00733-.17066-.01518-.25564c-.00781-.08455-.0188-.16885-.02179-.25371-.00041-.01174.0166-.01289.01982-.00238a1.31508,1.31508,0,0,1,.04574.25674q.01266.12753.01539.25565C2.80694,2.75652,2.8061,2.842,2.80081,2.92724Zm.78774-.09357.02666.04429-.03357-.05121q-.076-.11471-.15251-.229C3.48468,2.67486,3.53845,2.75317,3.58855,2.83367Z"></path></g></g><g id="SvgjsG1008" featurekey="jxYttZ-0" transform="matrix(2.285951614379883,0,0,2.285951614379883,137.57689246470494,43.570241716391706)" fill="#5f1854"><path d="M1.06 15.82 l0 -5.7 l2.06 0 l0 5.5 c0 2 0.62 2.88 2.32 2.88 c1.92 0 2.7 -1.34 2.7 -3.08 l0 -5.3 l2.06 0 l0 9.88 l-2.06 0 l0 -1.6 c-0.28 0.88 -1.52 1.68 -2.7 1.76 c-2.68 0.2 -4.38 -1.1 -4.38 -4.34 z M20.1 20 l-3.74 -4.78 l-1.08 0.92 l0 3.86 l-2.08 0 l0 -15 l2.08 0 l0 8.58 l3.98 -3.46 l3.2 0 l-4.6 3.84 l4.9 6.04 l-2.66 0 z M33.5 14.3 l0 5.7 l-2.06 0 l0 -5.5 c0 -2 -0.62 -2.88 -2.32 -2.88 c-1.92 0 -2.7 1.34 -2.7 3.08 l0 5.3 l-2.06 0 l0 -15 l2.06 0 l0 6.72 c0.28 -0.88 1.52 -1.68 2.7 -1.76 c2.68 -0.2 4.38 1.1 4.38 4.34 z M39.9 18.36 c0.64 0.26 1.14 0.08 1.44 -0.06 l0 1.6 c-0.26 0.16 -0.64 0.3 -1.18 0.3 c-1.18 0 -2.22 -0.38 -2.86 -1.42 c-0.6 -1 -0.6 -1.54 -0.6 -3.1 l0 -3.88 l-1.2 0 l0 -1.68 l1.2 0 l0 -3.12 l2.06 0 l0 3.12 l2.58 0 l0 1.68 l-2.58 0 l0 3.88 c0 1.64 0.16 2.24 1.14 2.68 z M46.1 10.12 l0 9.88 l-2.06 0 l0 -9.88 l2.06 0 z M46.2 6.5 c0 0.64 -0.5 1.14 -1.14 1.14 c-0.62 0 -1.12 -0.5 -1.12 -1.14 c0 -0.62 0.5 -1.12 1.12 -1.12 c0.64 0 1.14 0.5 1.14 1.12 z M51.81999999999999 18.78 c0 0.8 -0.62 1.42 -1.42 1.42 c-0.78 0 -1.4 -0.62 -1.4 -1.42 c0 -0.76 0.62 -1.38 1.4 -1.38 c0.8 0 1.42 0.62 1.42 1.38 z M61.16 16.16 c0.04 0.12 0.38 1.1 -0.04 2.1 c-0.52 1.18 -1.9 1.94 -3.62 1.94 l-0.02 0 c-1.38 0 -2.64 -0.58 -3.58 -1.5 l1.34 -1.34 c0.56 0.72 1.36 1.08 2.24 1.08 c0.98 0 1.8 -0.36 2.02 -0.88 c0.14 -0.36 0.02 -0.74 0.02 -0.78 c-0.24 -0.6 -1.12 -0.72 -2.12 -0.94 c-1.34 -0.3 -2.68 -0.64 -3.2 -2.04 c-0.26 -0.72 -0.18 -1.56 0.18 -2.26 c0.82 -1.54 2.86 -1.6 3.1 -1.6 c1.38 0 2.68 0.52 3.6 1.46 l-1.34 1.34 c-0.56 -0.72 -1.38 -1.04 -2.26 -1.04 c-0.02 0 -1.2 0.02 -1.54 0.68 c-0.12 0.2 -0.18 0.54 -0.08 0.82 c0.2 0.56 1.1 0.74 2.06 0.96 c1.3 0.3 2.72 0.6 3.24 2 z M72.96 14.3 l0 5.7 l-2.06 0 l0 -5.5 c0 -2 -0.62 -2.88 -2.32 -2.88 c-1.92 0 -2.7 1.34 -2.7 3.08 l0 5.3 l-2.06 0 l0 -15 l2.06 0 l0 6.72 c0.28 -0.88 1.52 -1.68 2.7 -1.76 c2.68 -0.2 4.38 1.1 4.38 4.34 z M80.3 11.64 c-1.7 0 -3.08 1.42 -3.08 3.44 c0 2 1.38 3.44 3.08 3.44 s3.08 -1.44 3.08 -3.44 c0 -2.02 -1.38 -3.44 -3.08 -3.44 z M80.3 9.94 c2.84 0 5.14 2.2 5.14 5.14 s-2.3 5.12 -5.14 5.12 s-5.14 -2.18 -5.14 -5.12 s2.3 -5.14 5.14 -5.14 z M97.3 15.08 c0 2.94 -2.12 5.12 -4.96 5.12 c-0.96 0 -2.18 -0.4 -2.84 -0.94 l0 5.84 l-2.06 0 l0 -14.98 l2.06 0 l0 0.78 c0.78 -0.6 1.88 -0.96 2.84 -0.96 c2.84 0 4.96 2.2 4.96 5.14 z M95.22 15.08 c0 -2.02 -1.38 -3.44 -3.08 -3.44 c-1.12 0 -2.1 0.5 -2.64 1.58 c-0.26 0.54 -0.42 1.18 -0.42 1.86 s0.16 1.32 0.42 1.86 c0.54 1.06 1.52 1.58 2.64 1.58 c1.7 0 3.08 -1.44 3.08 -3.44 z"></path></g></svg>